<svg xmlns="http://www.w3.org/2000/svg" width="249.591" height="207.155" viewBox="0 0 249.591 207.155">
  <g id="Grupo_12318" data-name="Grupo 12318" transform="translate(-4654.691 -437.1)">
    <g id="Color" transform="translate(4655.8 438.319)">
      <g id="Grupo_12259" data-name="Grupo 12259" transform="translate(191.55 149.004)">
        <circle id="Elipse_650" data-name="Elipse 650" cx="20.128" cy="20.128" r="20.128" transform="translate(0 28.466) rotate(-45)" fill="#ffd571"/>
      </g>
      <g id="Grupo_12260" data-name="Grupo 12260" transform="translate(86.619 21.187)">
        <rect id="Rectángulo_2305" data-name="Rectángulo 2305" width="67.289" height="34.956" rx="3" fill="#ff5a5a"/>
      </g>
      <g id="Grupo_12261" data-name="Grupo 12261" transform="translate(0)">
        <path id="Trazado_20114" data-name="Trazado 20114" d="M4715.489,467.687h-4.674a2.031,2.031,0,0,1-1.928-1.439,20.5,20.5,0,0,0-1.211-3.018,2.024,2.024,0,0,1,.374-2.336l3.307-3.3a1.588,1.588,0,0,0,0-2.246l-4.619-4.617a1.587,1.587,0,0,0-2.245,0l-3.028,3.031a2.022,2.022,0,0,1-2.438.316,20.862,20.862,0,0,0-3.35-1.531,2.051,2.051,0,0,1-1.386-1.9v-4.113a1.492,1.492,0,0,0-1.535-1.526h-6.506a1.486,1.486,0,0,0-1.528,1.526v3.557a2.024,2.024,0,0,1-1.53,1.925,21.811,21.811,0,0,0-3.937,1.453,2.034,2.034,0,0,1-2.327-.38l-2.353-2.351a1.59,1.59,0,0,0-2.248,0l-4.617,4.617a1.587,1.587,0,0,0,0,2.246l2.058,2.054a2.024,2.024,0,0,1,.322,2.432,21.279,21.279,0,0,0-1.792,4.169,2.027,2.027,0,0,1-1.927,1.438h-2.859a1.616,1.616,0,0,0-1.634,1.572v6.652a1.685,1.685,0,0,0,1.634,1.653h2.878a1.976,1.976,0,0,1,1.914,1.356,22.672,22.672,0,0,0,1.814,4.177,1.994,1.994,0,0,1-.342,2.393l-2.062,2.047a1.586,1.586,0,0,0,0,2.247l4.614,4.6a1.587,1.587,0,0,0,2.245,0l2.345-2.352a2.023,2.023,0,0,1,2.326-.38,21.892,21.892,0,0,0,3.947,1.459,2.028,2.028,0,0,1,1.53,1.928v3.607a1.553,1.553,0,0,0,1.528,1.606h6.506a1.56,1.56,0,0,0,1.535-1.606v-4.157a2.051,2.051,0,0,1,1.389-1.906,20.732,20.732,0,0,0,3.343-1.525,2.032,2.032,0,0,1,2.44.315l3.016,3.006a1.589,1.589,0,0,0,2.245,0l4.625-4.62a1.589,1.589,0,0,0,0-2.247l-3.279-3.267a2.024,2.024,0,0,1-.375-2.335,19.994,19.994,0,0,0,1.2-2.944,2,2,0,0,1,1.928-1.4h4.673a1.693,1.693,0,0,0,1.644-1.653v-6.652A1.623,1.623,0,0,0,4715.489,467.687Zm-15.333,15.494a15.03,15.03,0,1,1,0-21.255A15.03,15.03,0,0,1,4700.156,483.181Z" transform="translate(-4661.882 -445)" fill="#ffd571"/>
      </g>
    </g>
    <g id="PROJECT" transform="translate(4654.691 437.1)">
      <g id="Grupo_12291" data-name="Grupo 12291" transform="translate(59.046 21.248)">
        <g id="Grupo_12262" data-name="Grupo 12262" transform="translate(0 14.065)">
          <path id="Trazado_20115" data-name="Trazado 20115" d="M5154.064,823.7H5045.15a7.88,7.88,0,0,1-7.871-7.871V673.785a7.88,7.88,0,0,1,7.871-7.871h19.479a1.158,1.158,0,0,1,0,2.315H5045.15a5.562,5.562,0,0,0-5.556,5.556V815.827a5.562,5.562,0,0,0,5.556,5.556h108.914a5.562,5.562,0,0,0,5.556-5.556V673.785a5.562,5.562,0,0,0-5.556-5.556h-19.985a1.158,1.158,0,1,1,0-2.315h19.985a7.88,7.88,0,0,1,7.871,7.871V815.827A7.88,7.88,0,0,1,5154.064,823.7Z" transform="translate(-5037.279 -665.914)" fill="#1e243a"/>
        </g>
        <g id="Grupo_12263" data-name="Grupo 12263" transform="translate(8.785 23.267)">
          <path id="Trazado_20116" data-name="Trazado 20116" d="M5196.329,864.918h-97.171a4.963,4.963,0,0,1-4.958-4.958V730.5a4.963,4.963,0,0,1,4.958-4.958h14.07a1.157,1.157,0,1,1,0,2.315h-14.07a2.646,2.646,0,0,0-2.642,2.643V859.961a2.646,2.646,0,0,0,2.642,2.643h97.171a2.646,2.646,0,0,0,2.643-2.643V730.5a2.646,2.646,0,0,0-2.643-2.643h-14.115a1.157,1.157,0,0,1,0-2.315h14.115a4.963,4.963,0,0,1,4.958,4.958V859.961A4.963,4.963,0,0,1,5196.329,864.918Z" transform="translate(-5094.2 -725.539)" fill="#1e243a"/>
        </g>
        <g id="Grupo_12264" data-name="Grupo 12264" transform="translate(27.526)">
          <path id="Trazado_20117" data-name="Trazado 20117" d="M5281.178,612.05H5219.7a4.067,4.067,0,0,1-4.062-4.062V578.841a4.067,4.067,0,0,1,4.063-4.062h61.479a4.067,4.067,0,0,1,4.062,4.062v29.146A4.067,4.067,0,0,1,5281.178,612.05ZM5219.7,577.094a1.749,1.749,0,0,0-1.748,1.747v29.146a1.749,1.749,0,0,0,1.748,1.747h61.479a1.749,1.749,0,0,0,1.747-1.747V578.841a1.749,1.749,0,0,0-1.747-1.747Z" transform="translate(-5215.636 -574.779)" fill="#1e243a"/>
        </g>
        <g id="Grupo_12265" data-name="Grupo 12265" transform="translate(40.181 36.345)">
          <path id="Trazado_20118" data-name="Trazado 20118" d="M5336.963,823.552H5302.6a4.972,4.972,0,0,1-4.966-4.966v-7.149a1.157,1.157,0,1,1,2.315,0v7.149a2.654,2.654,0,0,0,2.651,2.651h34.362a2.654,2.654,0,0,0,2.651-2.651v-7.149a1.157,1.157,0,1,1,2.315,0v7.149A4.972,4.972,0,0,1,5336.963,823.552Z" transform="translate(-5297.636 -810.279)" fill="#1e243a"/>
        </g>
        <g id="Grupo_12266" data-name="Grupo 12266" transform="translate(40.605 10.22)">
          <path id="Trazado_20119" data-name="Trazado 20119" d="M5342.438,643.315h-40.9a1.157,1.157,0,1,1,0-2.315h40.9a1.157,1.157,0,0,1,0,2.315Z" transform="translate(-5300.382 -641)" fill="#1e243a"/>
        </g>
        <g id="Grupo_12267" data-name="Grupo 12267" transform="translate(46.778 18.4)">
          <path id="Trazado_20120" data-name="Trazado 20120" d="M5370.091,696.315H5341.54a1.157,1.157,0,1,1,0-2.315h28.551a1.157,1.157,0,1,1,0,2.315Z" transform="translate(-5340.382 -694)" fill="#1e243a"/>
        </g>
        <g id="Grupo_12268" data-name="Grupo 12268" transform="translate(52.952 26.425)">
          <path id="Trazado_20121" data-name="Trazado 20121" d="M5397.745,748.315h-16.2a1.158,1.158,0,0,1,0-2.315h16.2a1.158,1.158,0,1,1,0,2.315Z" transform="translate(-5380.383 -746)" fill="#1e243a"/>
        </g>
        <g id="Grupo_12290" data-name="Grupo 12290" transform="translate(20.522 65.928)">
          <g id="Grupo_12275" data-name="Grupo 12275">
            <g id="Grupo_12271" data-name="Grupo 12271">
              <g id="Grupo_12269" data-name="Grupo 12269" transform="translate(3.988 1.981)">
                <path id="Trazado_20122" data-name="Trazado 20122" d="M5200.15,1023.983a1.154,1.154,0,0,1-.818-.339l-2.9-2.9a1.157,1.157,0,0,1,1.637-1.637l2.079,2.079,6.056-6.057a1.158,1.158,0,0,1,1.638,1.637l-6.875,6.875A1.155,1.155,0,0,1,5200.15,1023.983Z" transform="translate(-5196.095 -1014.793)" fill="#ff5a5a"/>
              </g>
              <g id="Grupo_12270" data-name="Grupo 12270">
                <path id="Trazado_20123" data-name="Trazado 20123" d="M5178.56,1018.566a8.3,8.3,0,1,1,0-16.607,1.157,1.157,0,0,1,0,2.315,5.989,5.989,0,1,0,5.988,5.989,1.157,1.157,0,1,1,2.314,0A8.313,8.313,0,0,1,5178.56,1018.566Z" transform="translate(-5170.256 -1001.959)" fill="#ff5a5a"/>
              </g>
            </g>
            <g id="Grupo_12274" data-name="Grupo 12274" transform="translate(21.317 3.71)">
              <g id="Grupo_12272" data-name="Grupo 12272">
                <path id="Trazado_20124" data-name="Trazado 20124" d="M5346.271,1028.315H5309.54a1.157,1.157,0,0,1,0-2.315h36.731a1.157,1.157,0,0,1,0,2.315Z" transform="translate(-5308.383 -1026)" fill="#1e243a"/>
              </g>
              <g id="Grupo_12273" data-name="Grupo 12273" transform="translate(0 6.945)">
                <path id="Trazado_20125" data-name="Trazado 20125" d="M5369.575,1073.315H5309.54a1.157,1.157,0,0,1,0-2.315h60.035a1.157,1.157,0,1,1,0,2.315Z" transform="translate(-5308.383 -1071)" fill="#1e243a"/>
              </g>
            </g>
          </g>
          <g id="Grupo_12282" data-name="Grupo 12282" transform="translate(0 29.375)">
            <g id="Grupo_12278" data-name="Grupo 12278">
              <g id="Grupo_12276" data-name="Grupo 12276" transform="translate(3.988 1.981)">
                <path id="Trazado_20126" data-name="Trazado 20126" d="M5200.15,1214.316a1.153,1.153,0,0,1-.818-.339l-2.9-2.9a1.157,1.157,0,0,1,1.637-1.637l2.079,2.079,6.056-6.057a1.158,1.158,0,0,1,1.638,1.637l-6.875,6.875A1.155,1.155,0,0,1,5200.15,1214.316Z" transform="translate(-5196.095 -1205.126)" fill="#ff5a5a"/>
              </g>
              <g id="Grupo_12277" data-name="Grupo 12277">
                <path id="Trazado_20127" data-name="Trazado 20127" d="M5178.56,1208.9a8.3,8.3,0,1,1,0-16.607,1.157,1.157,0,0,1,0,2.315,5.989,5.989,0,1,0,5.988,5.989,1.157,1.157,0,1,1,2.314,0A8.313,8.313,0,0,1,5178.56,1208.9Z" transform="translate(-5170.256 -1192.293)" fill="#ff5a5a"/>
              </g>
            </g>
            <g id="Grupo_12281" data-name="Grupo 12281" transform="translate(21.317 3.659)">
              <g id="Grupo_12279" data-name="Grupo 12279">
                <path id="Trazado_20128" data-name="Trazado 20128" d="M5346.271,1218.315H5309.54a1.158,1.158,0,0,1,0-2.315h36.731a1.158,1.158,0,0,1,0,2.315Z" transform="translate(-5308.383 -1216)" fill="#1e243a"/>
              </g>
              <g id="Grupo_12280" data-name="Grupo 12280" transform="translate(0 6.945)">
                <path id="Trazado_20129" data-name="Trazado 20129" d="M5369.575,1263.315H5309.54a1.158,1.158,0,0,1,0-2.315h60.035a1.158,1.158,0,1,1,0,2.315Z" transform="translate(-5308.383 -1261)" fill="#1e243a"/>
              </g>
            </g>
          </g>
          <g id="Grupo_12289" data-name="Grupo 12289" transform="translate(0 58.749)">
            <g id="Grupo_12285" data-name="Grupo 12285">
              <g id="Grupo_12283" data-name="Grupo 12283" transform="translate(3.988 1.981)">
                <path id="Trazado_20130" data-name="Trazado 20130" d="M5200.15,1404.65a1.153,1.153,0,0,1-.818-.339l-2.9-2.9a1.157,1.157,0,0,1,1.637-1.637l2.079,2.079,6.056-6.057a1.158,1.158,0,0,1,1.638,1.637l-6.875,6.875A1.154,1.154,0,0,1,5200.15,1404.65Z" transform="translate(-5196.095 -1395.46)" fill="#ff5a5a"/>
              </g>
              <g id="Grupo_12284" data-name="Grupo 12284">
                <path id="Trazado_20131" data-name="Trazado 20131" d="M5178.56,1399.234a8.3,8.3,0,1,1,0-16.607,1.158,1.158,0,0,1,0,2.315,5.989,5.989,0,1,0,5.988,5.988,1.157,1.157,0,1,1,2.314,0A8.312,8.312,0,0,1,5178.56,1399.234Z" transform="translate(-5170.256 -1382.627)" fill="#ff5a5a"/>
              </g>
            </g>
            <g id="Grupo_12288" data-name="Grupo 12288" transform="translate(21.317 3.762)">
              <g id="Grupo_12286" data-name="Grupo 12286">
                <path id="Trazado_20132" data-name="Trazado 20132" d="M5346.271,1409.315H5309.54a1.157,1.157,0,0,1,0-2.315h36.731a1.157,1.157,0,0,1,0,2.315Z" transform="translate(-5308.383 -1407)" fill="#1e243a"/>
              </g>
              <g id="Grupo_12287" data-name="Grupo 12287" transform="translate(0 6.945)">
                <path id="Trazado_20133" data-name="Trazado 20133" d="M5369.575,1454.315H5309.54a1.157,1.157,0,0,1,0-2.315h60.035a1.157,1.157,0,1,1,0,2.315Z" transform="translate(-5308.383 -1452)" fill="#1e243a"/>
              </g>
            </g>
          </g>
        </g>
      </g>
      <g id="Grupo_12299" data-name="Grupo 12299" transform="translate(0 0)">
        <g id="Grupo_12292" data-name="Grupo 12292" transform="translate(12.576 12.593)">
          <path id="Trazado_20134" data-name="Trazado 20134" d="M4752.36,551.055a16.174,16.174,0,1,1,11.446-4.734A16.136,16.136,0,0,1,4752.36,551.055Zm0-30.045a13.861,13.861,0,1,0,9.81,4.057A13.829,13.829,0,0,0,4752.36,521.01Z" transform="translate(-4736.18 -518.696)" fill="#1e243a"/>
        </g>
        <g id="Grupo_12293" data-name="Grupo 12293">
          <path id="Trazado_20135" data-name="Trazado 20135" d="M4686.674,494.709h-6.5a2.748,2.748,0,0,1-2.745-2.745v-3.607a.848.848,0,0,0-.64-.809,22.719,22.719,0,0,1-4.128-1.537.869.869,0,0,0-1,.157l-2.345,2.352a2.725,2.725,0,0,1-1.94.807h0a2.724,2.724,0,0,1-1.939-.8l-4.613-4.605a2.745,2.745,0,0,1,0-3.889l2.062-2.051a.849.849,0,0,0,.149-1.014,23.836,23.836,0,0,1-1.907-4.408.844.844,0,0,0-.812-.583h-2.878a2.748,2.748,0,0,1-2.745-2.745v-6.652a2.749,2.749,0,0,1,2.745-2.745h2.858a.859.859,0,0,0,.821-.615,22.408,22.408,0,0,1,1.89-4.389.873.873,0,0,0-.131-1.044l-2.059-2.054a2.746,2.746,0,0,1,0-3.884l4.616-4.617a2.726,2.726,0,0,1,1.941-.8h0a2.728,2.728,0,0,1,1.942.8l2.349,2.351a.869.869,0,0,0,1,.157,22.807,22.807,0,0,1,4.132-1.531.844.844,0,0,0,.639-.806v-3.557a2.748,2.748,0,0,1,2.745-2.745h6.5a2.748,2.748,0,0,1,2.745,2.745v4.113a.874.874,0,0,0,.59.814,21.855,21.855,0,0,1,3.51,1.617.87.87,0,0,0,1.046-.129l3.028-3.031a2.729,2.729,0,0,1,1.941-.805h0a2.725,2.725,0,0,1,1.94.8l4.619,4.617a2.746,2.746,0,0,1,0,3.883l-3.307,3.3a.867.867,0,0,0-.154,1,21.842,21.842,0,0,1,1.279,3.184.866.866,0,0,0,.823.619h4.674a2.748,2.748,0,0,1,2.745,2.745v6.652a2.748,2.748,0,0,1-2.745,2.745h-4.673a.866.866,0,0,0-.823.62,21.646,21.646,0,0,1-1.263,3.145.867.867,0,0,0,.155,1l3.279,3.267a2.745,2.745,0,0,1,0,3.886l-4.624,4.62a2.748,2.748,0,0,1-3.878,0l-3.013-3.006a.869.869,0,0,0-1.043-.129,21.837,21.837,0,0,1-3.518,1.611.875.875,0,0,0-.591.815v4.157A2.748,2.748,0,0,1,4686.674,494.709Zm-14.411-11.1a3.2,3.2,0,0,1,1.408.326,20.45,20.45,0,0,0,3.707,1.38,3.165,3.165,0,0,1,2.36,3.046v3.607a.43.43,0,0,0,.43.43h6.5a.431.431,0,0,0,.43-.43v-4.157a3.193,3.193,0,0,1,2.134-3,19.509,19.509,0,0,0,3.143-1.44,3.191,3.191,0,0,1,3.825.5l3.013,3.006a.43.43,0,0,0,.607,0l4.624-4.62a.431.431,0,0,0,0-.608l-3.279-3.267a3.181,3.181,0,0,1-.6-3.668,19.322,19.322,0,0,0,1.128-2.808,3.171,3.171,0,0,1,3.033-2.245h4.673a.43.43,0,0,0,.43-.43v-6.652a.43.43,0,0,0-.43-.43h-4.674a3.171,3.171,0,0,1-3.033-2.244,19.442,19.442,0,0,0-1.143-2.845,3.179,3.179,0,0,1,.592-3.667l3.307-3.3a.431.431,0,0,0,0-.608l-4.619-4.617a.429.429,0,0,0-.607,0L4696.2,447.9a3.188,3.188,0,0,1-3.832.5,19.541,19.541,0,0,0-3.137-1.445,3.193,3.193,0,0,1-2.129-3v-4.113a.431.431,0,0,0-.43-.43h-6.5a.43.43,0,0,0-.43.43V443.4a3.161,3.161,0,0,1-2.362,3.044,20.5,20.5,0,0,0-3.711,1.375,3.184,3.184,0,0,1-3.645-.6l-2.349-2.351a.429.429,0,0,0-.3-.126h0a.429.429,0,0,0-.3.126l-4.616,4.618a.431.431,0,0,0,0,.608l2.059,2.054a3.193,3.193,0,0,1,.513,3.82,20.11,20.11,0,0,0-1.694,3.935,3.162,3.162,0,0,1-3.032,2.247h-2.858a.431.431,0,0,0-.43.43v6.652a.43.43,0,0,0,.43.43h2.878a3.151,3.151,0,0,1,3.017,2.194,21.48,21.48,0,0,0,1.721,3.979,3.173,3.173,0,0,1-.536,3.788l-2.062,2.051a.43.43,0,0,0,0,.609l4.613,4.605a.429.429,0,0,0,.3.126h0a.428.428,0,0,0,.3-.126l2.345-2.352A3.166,3.166,0,0,1,4672.264,483.6Z" transform="translate(-4654.69 -437.1)" fill="#1e243a"/>
        </g>
        <g id="Grupo_12294" data-name="Grupo 12294" transform="translate(20.484 20.496)">
          <path id="Trazado_20136" data-name="Trazado 20136" d="M4795.688,586.458a8.276,8.276,0,1,1,5.852-2.424A8.224,8.224,0,0,1,4795.688,586.458Zm0-14.237a5.923,5.923,0,0,0-4.215,1.746h0a5.96,5.96,0,1,0,4.215-1.746Zm-5.033.928h0Z" transform="translate(-4787.416 -569.906)" fill="#1e243a"/>
        </g>
        <g id="Grupo_12295" data-name="Grupo 12295" transform="translate(16.943 16.991)">
          <path id="Trazado_20137" data-name="Trazado 20137" d="M4770.951,554.828a1.154,1.154,0,0,1-.819-.339l-5.317-5.317a1.157,1.157,0,0,1,1.636-1.637l5.318,5.317a1.158,1.158,0,0,1-.818,1.976Z" transform="translate(-4764.476 -547.196)" fill="#1e243a"/>
        </g>
        <g id="Grupo_12296" data-name="Grupo 12296" transform="translate(32.803 32.851)">
          <path id="Trazado_20138" data-name="Trazado 20138" d="M4873.774,657.653a1.154,1.154,0,0,1-.818-.339l-5.381-5.381a1.158,1.158,0,0,1,1.637-1.637l5.38,5.381a1.157,1.157,0,0,1-.818,1.976Z" transform="translate(-4867.236 -649.957)" fill="#1e243a"/>
        </g>
        <g id="Grupo_12297" data-name="Grupo 12297" transform="translate(32.613 16.991)">
          <path id="Trazado_20139" data-name="Trazado 20139" d="M4867.164,555.081a1.157,1.157,0,0,1-.818-1.976l5.571-5.57a1.157,1.157,0,0,1,1.637,1.637l-5.571,5.57A1.154,1.154,0,0,1,4867.164,555.081Z" transform="translate(-4866.006 -547.195)" fill="#1e243a"/>
        </g>
        <g id="Grupo_12298" data-name="Grupo 12298" transform="translate(16.943 32.948)">
          <path id="Trazado_20140" data-name="Trazado 20140" d="M4765.632,658.186a1.158,1.158,0,0,1-.818-1.976l5.284-5.283a1.157,1.157,0,0,1,1.637,1.637l-5.284,5.283A1.153,1.153,0,0,1,4765.632,658.186Z" transform="translate(-4764.476 -650.587)" fill="#1e243a"/>
        </g>
      </g>
      <g id="Grupo_12302" data-name="Grupo 12302" transform="translate(199.84 157.403)">
        <g id="Grupo_12300" data-name="Grupo 12300" transform="translate(9.131 14.11)">
          <path id="Trazado_20141" data-name="Trazado 20141" d="M6018.991,1563.626a1.153,1.153,0,0,1-.819-.339l-9.111-9.111a1.157,1.157,0,0,1,1.637-1.637l8.293,8.292,12.066-12.066a1.157,1.157,0,0,1,1.637,1.637l-12.884,12.885A1.155,1.155,0,0,1,6018.991,1563.626Z" transform="translate(-6008.723 -1548.426)" fill="#1e243a"/>
        </g>
        <g id="Grupo_12301" data-name="Grupo 12301">
          <path id="Trazado_20142" data-name="Trazado 20142" d="M5970.845,1499.572a21.286,21.286,0,1,1,21.286-21.286A21.31,21.31,0,0,1,5970.845,1499.572Zm0-40.257a18.971,18.971,0,1,0,18.971,18.971A18.993,18.993,0,0,0,5970.845,1459.315Z" transform="translate(-5949.56 -1457)" fill="#1e243a"/>
        </g>
      </g>
      <g id="Grupo_12303" data-name="Grupo 12303" transform="translate(32.013 119.7)">
        <path id="Trazado_20143" data-name="Trazado 20143" d="M4866.306,1227.057a1.543,1.543,0,0,1-.745-2.051h0a1.542,1.542,0,0,1,2.051-.745h0a1.542,1.542,0,0,1,.746,2.051h0a1.541,1.541,0,0,1-1.4.891h0A1.54,1.54,0,0,1,4866.306,1227.057Zm4.493-.781a1.542,1.542,0,0,1,.685-2.071h0a1.542,1.542,0,0,1,2.072.685h0a1.542,1.542,0,0,1-.685,2.071h0a1.524,1.524,0,0,1-.692.165h0A1.543,1.543,0,0,1,4870.8,1226.276Zm-8.638-4.311a1.543,1.543,0,0,1,1.146-1.857h0a1.545,1.545,0,0,1,1.857,1.148h0a1.543,1.543,0,0,1-1.147,1.857h0a1.58,1.58,0,0,1-.356.042h0A1.542,1.542,0,0,1,4862.161,1221.966Zm12.883.988a1.542,1.542,0,0,1-1.2-1.821h0a1.542,1.542,0,0,1,1.822-1.2h0a1.544,1.544,0,0,1,1.2,1.823h0a1.544,1.544,0,0,1-1.51,1.233h0A1.555,1.555,0,0,1,4875.044,1222.954Zm-11.209-5.227a1.542,1.542,0,0,1-.251-2.167h0a1.544,1.544,0,0,1,2.168-.252h0a1.543,1.543,0,0,1,.251,2.167h0a1.54,1.54,0,0,1-1.211.586h0A1.536,1.536,0,0,1,4863.835,1217.726Zm9.062-.352a1.544,1.544,0,0,1,.19-2.175h0a1.542,1.542,0,0,1,2.173.19h0a1.543,1.543,0,0,1-.189,2.175h0a1.543,1.543,0,0,1-.993.361h0A1.537,1.537,0,0,1,4872.9,1217.375Zm-4.95-3.131a1.544,1.544,0,0,1,1.543-1.543h0a1.543,1.543,0,0,1,1.543,1.543h0a1.542,1.542,0,0,1-1.543,1.543h0A1.543,1.543,0,0,1,4867.947,1214.243Z" transform="translate(-4862.119 -1212.7)" fill="#1e243a"/>
      </g>
      <g id="Grupo_12304" data-name="Grupo 12304" transform="translate(175.173 8.118)">
        <path id="Trazado_20144" data-name="Trazado 20144" d="M5793.916,504.058h0a1.542,1.542,0,0,1-.746-2.051h0a1.542,1.542,0,0,1,2.051-.745h0a1.542,1.542,0,0,1,.746,2.051h0a1.542,1.542,0,0,1-1.4.891h0A1.533,1.533,0,0,1,5793.916,504.058Zm4.492-.781a1.542,1.542,0,0,1,.686-2.071h0a1.542,1.542,0,0,1,2.072.685h0a1.543,1.543,0,0,1-.686,2.071h0a1.521,1.521,0,0,1-.692.165h0A1.541,1.541,0,0,1,5798.408,503.277Zm-8.638-4.309a1.542,1.542,0,0,1,1.146-1.857h0a1.542,1.542,0,0,1,1.856,1.147h0a1.543,1.543,0,0,1-1.146,1.857h0a1.574,1.574,0,0,1-.356.042h0A1.543,1.543,0,0,1,5789.771,498.968Zm12.884.986a1.542,1.542,0,0,1-1.2-1.821h0a1.544,1.544,0,0,1,1.822-1.2h0a1.543,1.543,0,0,1,1.2,1.823h0a1.544,1.544,0,0,1-1.511,1.233h0A1.54,1.54,0,0,1,5802.654,499.954Zm-11.21-5.227a1.542,1.542,0,0,1-.251-2.167h0a1.542,1.542,0,0,1,2.167-.252h0a1.542,1.542,0,0,1,.253,2.167h0a1.542,1.542,0,0,1-1.212.586h0A1.536,1.536,0,0,1,5791.444,494.727Zm9.062-.352a1.542,1.542,0,0,1,.188-2.175h0a1.544,1.544,0,0,1,2.175.19h0a1.543,1.543,0,0,1-.188,2.175h0a1.54,1.54,0,0,1-.991.361h0A1.535,1.535,0,0,1,5800.506,494.375Zm-4.95-3.131a1.544,1.544,0,0,1,1.544-1.543h0a1.544,1.544,0,0,1,1.543,1.543h0a1.544,1.544,0,0,1-1.543,1.543h0A1.544,1.544,0,0,1,5795.556,491.243Z" transform="translate(-5789.729 -489.7)" fill="#1e243a"/>
      </g>
      <g id="Grupo_12305" data-name="Grupo 12305" transform="translate(197.073 120.861)">
        <path id="Trazado_20145" data-name="Trazado 20145" d="M5936.675,1234.93a1.544,1.544,0,0,1-1.071-1.9h0a1.544,1.544,0,0,1,1.9-1.071h0a1.545,1.545,0,0,1,1.071,1.9h0a1.546,1.546,0,0,1-1.487,1.128h0A1.569,1.569,0,0,1,5936.675,1234.93Zm4.307-1.505a1.544,1.544,0,0,1,.336-2.157h0a1.542,1.542,0,0,1,2.155.336h0a1.542,1.542,0,0,1-.336,2.156h0a1.536,1.536,0,0,1-.909.3h0A1.54,1.54,0,0,1,5940.982,1233.425Zm-9.229-2.838a1.543,1.543,0,0,1,.829-2.02h0a1.542,1.542,0,0,1,2.018.829h0a1.541,1.541,0,0,1-.827,2.019h0a1.528,1.528,0,0,1-.6.12h0A1.545,1.545,0,0,1,5931.752,1230.587Zm12.872-1.136a1.544,1.544,0,0,1-1.483-1.6h0a1.543,1.543,0,0,1,1.6-1.483h0a1.542,1.542,0,0,1,1.483,1.6h0a1.544,1.544,0,0,1-1.542,1.484h-.061Zm-11.914-3.321a1.544,1.544,0,0,1-.6-2.1h0a1.542,1.542,0,0,1,2.1-.6h0a1.541,1.541,0,0,1,.6,2.1h0a1.54,1.54,0,0,1-1.352.8h0A1.535,1.535,0,0,1,5932.71,1226.13Zm8.881-1.832h0a1.54,1.54,0,0,1-.17-2.175h0a1.542,1.542,0,0,1,2.174-.171h0a1.544,1.544,0,0,1,.171,2.176h0a1.537,1.537,0,0,1-1.174.54h0A1.526,1.526,0,0,1,5941.591,1224.3Zm-5.395-2.278a1.544,1.544,0,0,1,1.271-1.775h0a1.543,1.543,0,0,1,1.774,1.27h0a1.541,1.541,0,0,1-1.268,1.775h0a1.619,1.619,0,0,1-.255.021h0A1.544,1.544,0,0,1,5936.2,1222.02Z" transform="translate(-5931.632 -1220.224)" fill="#1e243a"/>
      </g>
      <g id="Grupo_12308" data-name="Grupo 12308" transform="translate(38.227 69.665)">
        <g id="Grupo_12306" data-name="Grupo 12306" transform="translate(3.935)">
          <path id="Trazado_20146" data-name="Trazado 20146" d="M4929.039,898.686a1.158,1.158,0,0,1-1.158-1.158v-7.871a1.157,1.157,0,1,1,2.315,0v7.871A1.157,1.157,0,0,1,4929.039,898.686Z" transform="translate(-4927.881 -888.5)" fill="#1e243a"/>
        </g>
        <g id="Grupo_12307" data-name="Grupo 12307" transform="translate(0 3.935)">
          <path id="Trazado_20147" data-name="Trazado 20147" d="M4911.411,916.315h-7.871a1.157,1.157,0,1,1,0-2.315h7.871a1.157,1.157,0,1,1,0,2.315Z" transform="translate(-4902.382 -914)" fill="#1e243a"/>
        </g>
      </g>
      <g id="Grupo_12311" data-name="Grupo 12311" transform="translate(220.03 46.67)">
        <g id="Grupo_12309" data-name="Grupo 12309" transform="translate(3.935)">
          <path id="Trazado_20148" data-name="Trazado 20148" d="M6107.039,749.686a1.157,1.157,0,0,1-1.157-1.157v-7.871a1.157,1.157,0,1,1,2.314,0v7.871A1.158,1.158,0,0,1,6107.039,749.686Z" transform="translate(-6105.882 -739.5)" fill="#1e243a"/>
        </g>
        <g id="Grupo_12310" data-name="Grupo 12310" transform="translate(0 3.935)">
          <path id="Trazado_20149" data-name="Trazado 20149" d="M6089.411,767.315h-7.871a1.157,1.157,0,0,1,0-2.315h7.871a1.157,1.157,0,0,1,0,2.315Z" transform="translate(-6080.383 -765)" fill="#1e243a"/>
        </g>
      </g>
      <g id="Grupo_12314" data-name="Grupo 12314" transform="translate(70.482 4.537)">
        <g id="Grupo_12312" data-name="Grupo 12312" transform="translate(3.935)">
          <path id="Trazado_20150" data-name="Trazado 20150" d="M5138.039,476.686a1.158,1.158,0,0,1-1.158-1.157v-7.871a1.157,1.157,0,1,1,2.315,0v7.871A1.157,1.157,0,0,1,5138.039,476.686Z" transform="translate(-5136.881 -466.5)" fill="#1e243a"/>
        </g>
        <g id="Grupo_12313" data-name="Grupo 12313" transform="translate(0 3.935)">
          <path id="Trazado_20151" data-name="Trazado 20151" d="M5120.411,494.315h-7.871a1.157,1.157,0,1,1,0-2.315h7.871a1.157,1.157,0,1,1,0,2.315Z" transform="translate(-5111.382 -492)" fill="#1e243a"/>
        </g>
      </g>
      <g id="Grupo_12317" data-name="Grupo 12317" transform="translate(7.823 186.803)">
        <g id="Grupo_12315" data-name="Grupo 12315" transform="translate(3.935)">
          <path id="Trazado_20152" data-name="Trazado 20152" d="M4732.039,1657.686a1.157,1.157,0,0,1-1.157-1.157v-7.871a1.157,1.157,0,1,1,2.315,0v7.871A1.158,1.158,0,0,1,4732.039,1657.686Z" transform="translate(-4730.882 -1647.5)" fill="#1e243a"/>
        </g>
        <g id="Grupo_12316" data-name="Grupo 12316" transform="translate(0 3.935)">
          <path id="Trazado_20153" data-name="Trazado 20153" d="M4714.411,1675.315h-7.871a1.158,1.158,0,1,1,0-2.315h7.871a1.158,1.158,0,0,1,0,2.315Z" transform="translate(-4705.382 -1673)" fill="#1e243a"/>
        </g>
      </g>
    </g>
  </g>
</svg>
