<svg xmlns="http://www.w3.org/2000/svg" width="212.68" height="176.241" viewBox="0 0 212.68 176.241">
  <g id="Grupo_12374" data-name="Grupo 12374" transform="translate(-2501.831 -436)">
    <g id="Color" transform="translate(2515.625 454.443)">
      <g id="Grupo_12320" data-name="Grupo 12320" transform="translate(64.257 0.073)">
        <rect id="Rectángulo_2306" data-name="Rectángulo 2306" width="8.015" height="90.699" rx="4.007" fill="#ff5a5a"/>
      </g>
      <g id="Grupo_12321" data-name="Grupo 12321" transform="translate(160.35 0)">
        <path id="Trazado_20155" data-name="Trazado 20155" d="M3793.87,587.214l15.109-7.188-15.109-7.188Z" transform="translate(-3793.87 -572.838)" fill="#ffd571"/>
      </g>
      <g id="Grupo_12322" data-name="Grupo 12322" transform="translate(0 32.712)">
        <path id="Trazado_20156" data-name="Trazado 20156" d="M2604.174,818.1v20.3a2.559,2.559,0,0,0,2.558,2.559h14.511V815.54h-14.511A2.559,2.559,0,0,0,2604.174,818.1Z" transform="translate(-2604.174 -815.54)" fill="#ff5a5a"/>
      </g>
      <g id="Grupo_12323" data-name="Grupo 12323" transform="translate(130.16 147.878)">
        <path id="Trazado_20157" data-name="Trazado 20157" d="M3569.882,1676.429a2.548,2.548,0,0,0,2.547,2.548H3623.4a2.548,2.548,0,0,0,2.548-2.548V1670h-56.07Z" transform="translate(-3569.882 -1670)" fill="#ffd571"/>
      </g>
      <g id="Grupo_12324" data-name="Grupo 12324" transform="translate(2.153 58.133)">
        <path id="Trazado_20158" data-name="Trazado 20158" d="M2620.15,1063.1a2.843,2.843,0,0,0,2.843,2.843h7.077a2.843,2.843,0,0,0,2.843-2.843v-58.956H2620.15Z" transform="translate(-2620.15 -1004.144)" fill="#ffd571"/>
      </g>
    </g>
    <g id="DIGITAL" transform="translate(2501.831 436)">
      <g id="Grupo_12337" data-name="Grupo 12337" transform="translate(0 17.573)">
        <g id="Grupo_12335" data-name="Grupo 12335">
          <g id="Grupo_12325" data-name="Grupo 12325" transform="translate(77.107)">
            <path id="Trazado_20159" data-name="Trazado 20159" d="M3080.559,658.965h-3.377a3.266,3.266,0,0,1-3.262-3.262V569.641a3.266,3.266,0,0,1,3.262-3.262h3.377a3.265,3.265,0,0,1,3.262,3.262V655.7A3.265,3.265,0,0,1,3080.559,658.965Zm-3.377-90.7a1.376,1.376,0,0,0-1.375,1.375V655.7a1.376,1.376,0,0,0,1.375,1.375h3.377a1.377,1.377,0,0,0,1.375-1.375V569.641a1.377,1.377,0,0,0-1.375-1.375Z" transform="translate(-3073.919 -566.379)" fill="#1e243a"/>
          </g>
          <g id="Grupo_12326" data-name="Grupo 12326" transform="translate(29.92 4.408)">
            <path id="Trazado_20160" data-name="Trazado 20160" d="M2724.76,630.655a.944.944,0,0,1-.505-1.741l46.891-29.681a.943.943,0,0,1,1.009,1.594l-46.891,29.681A.94.94,0,0,1,2724.76,630.655Z" transform="translate(-2723.816 -599.087)" fill="#1e243a"/>
          </g>
          <g id="Grupo_12327" data-name="Grupo 12327" transform="translate(29.92 56.609)">
            <path id="Trazado_20161" data-name="Trazado 20161" d="M2771.649,1017.952a.938.938,0,0,1-.5-.146l-46.891-29.681a.943.943,0,0,1,1.009-1.594l46.891,29.681a.944.944,0,0,1-.506,1.741Z" transform="translate(-2723.816 -986.384)" fill="#1e243a"/>
          </g>
          <g id="Grupo_12328" data-name="Grupo 12328" transform="translate(12.851 32.639)">
            <path id="Trazado_20162" data-name="Trazado 20162" d="M2615.187,835.848h-15.009a3.007,3.007,0,0,1-3-3v-21.3a3.007,3.007,0,0,1,3-3h15.009a.944.944,0,0,1,.944.943v5.661a.944.944,0,0,1-1.887,0v-4.718h-14.065a1.118,1.118,0,0,0-1.117,1.117v21.3a1.118,1.118,0,0,0,1.117,1.117h14.065V831.1a.944.944,0,0,1,1.887,0V834.9A.944.944,0,0,1,2615.187,835.848Z" transform="translate(-2597.174 -808.54)" fill="#1e243a"/>
          </g>
          <g id="Grupo_12329" data-name="Grupo 12329" transform="translate(0 36.445)">
            <path id="Trazado_20163" data-name="Trazado 20163" d="M2515.625,856.474h-9.333a4.466,4.466,0,0,1-4.461-4.461V841.24a4.466,4.466,0,0,1,4.461-4.46h9.333a.943.943,0,0,1,.943.943v17.808A.943.943,0,0,1,2515.625,856.474Zm-9.333-17.808a2.576,2.576,0,0,0-2.574,2.574v10.774a2.577,2.577,0,0,0,2.574,2.574h8.39V838.666Z" transform="translate(-2501.831 -836.779)" fill="#1e243a"/>
          </g>
          <g id="Grupo_12330" data-name="Grupo 12330" transform="translate(18.714 32.936)">
            <path id="Trazado_20164" data-name="Trazado 20164" d="M2641.619,837.456a.943.943,0,0,1-.943-.943V811.686a.943.943,0,1,1,1.887,0v24.827A.944.944,0,0,1,2641.619,837.456Z" transform="translate(-2640.676 -810.742)" fill="#1e243a"/>
          </g>
          <g id="Grupo_12331" data-name="Grupo 12331" transform="translate(24.056 32.936)">
            <path id="Trazado_20165" data-name="Trazado 20165" d="M2681.258,837.456a.944.944,0,0,1-.944-.943V811.686a.944.944,0,0,1,1.887,0v24.827A.944.944,0,0,1,2681.258,837.456Z" transform="translate(-2680.314 -810.742)" fill="#1e243a"/>
          </g>
          <g id="Grupo_12332" data-name="Grupo 12332" transform="translate(15.004 58.06)">
            <path id="Trazado_20166" data-name="Trazado 20166" d="M2624.114,1060.831h-7.278a3.69,3.69,0,0,1-3.686-3.686V998.089a.944.944,0,0,1,.944-.943h12.763a.943.943,0,0,1,.943.943v59.057A3.69,3.69,0,0,1,2624.114,1060.831Zm-9.077-61.8v58.113a1.8,1.8,0,0,0,1.8,1.8h7.278a1.8,1.8,0,0,0,1.8-1.8V999.032Z" transform="translate(-2613.15 -997.145)" fill="#1e243a"/>
          </g>
          <g id="Grupo_12333" data-name="Grupo 12333" transform="translate(27.775 56.824)">
            <path id="Trazado_20167" data-name="Trazado 20167" d="M2718.2,1008.951h-9.353a.943.943,0,1,1,0-1.887h9.353a.828.828,0,0,0,.731-1.216l-8.763-16.486a.943.943,0,1,1,1.666-.886l8.763,16.486a2.715,2.715,0,0,1-2.4,3.988Z" transform="translate(-2707.902 -987.976)" fill="#1e243a"/>
          </g>
          <g id="Grupo_12334" data-name="Grupo 12334" transform="translate(33.837 71.653)">
            <path id="Trazado_20168" data-name="Trazado 20168" d="M2757.6,1099.887h-3.774a.943.943,0,0,1,0-1.887h3.774a.943.943,0,0,1,0,1.887Z" transform="translate(-2752.883 -1098)" fill="#1e243a"/>
          </g>
        </g>
        <g id="Grupo_12336" data-name="Grupo 12336" transform="translate(85.44 39.323)">
          <path id="Trazado_20169" data-name="Trazado 20169" d="M3136.687,871.946a.943.943,0,1,1,0-1.887,5.02,5.02,0,0,0,0-10.041.943.943,0,1,1,0-1.887,6.907,6.907,0,1,1,0,13.815Z" transform="translate(-3135.743 -858.131)" fill="#1e243a"/>
        </g>
      </g>
      <g id="Grupo_12343" data-name="Grupo 12343" transform="translate(148.027 0)">
        <g id="Grupo_12339" data-name="Grupo 12339">
          <g id="Grupo_12338" data-name="Grupo 12338">
            <path id="Trazado_20170" data-name="Trazado 20170" d="M3658.479,487.263h-52.187a6.2,6.2,0,0,1-6.192-6.192v-38.88a6.2,6.2,0,0,1,6.192-6.192h52.187a6.2,6.2,0,0,1,6.192,6.192v38.88A6.2,6.2,0,0,1,3658.479,487.263Zm-52.187-49.376a4.31,4.31,0,0,0-4.305,4.3v38.88a4.31,4.31,0,0,0,4.305,4.3h52.187a4.31,4.31,0,0,0,4.3-4.3v-38.88a4.31,4.31,0,0,0-4.3-4.3Z" transform="translate(-3600.1 -436)" fill="#1e243a"/>
          </g>
        </g>
        <g id="Grupo_12340" data-name="Grupo 12340" transform="translate(25.173 17.5)">
          <path id="Trazado_20171" data-name="Trazado 20171" d="M3787.813,582.1a.944.944,0,0,1-.944-.943V566.78a.944.944,0,0,1,1.349-.852l15.11,7.188a.944.944,0,0,1,0,1.7l-15.11,7.188A.94.94,0,0,1,3787.813,582.1Zm.943-13.826v11.389l11.97-5.695Z" transform="translate(-3786.869 -565.837)" fill="#1e243a"/>
        </g>
        <g id="Grupo_12341" data-name="Grupo 12341" transform="translate(48.088 6.747)">
          <path id="Trazado_20172" data-name="Trazado 20172" d="M3965.779,503.582a.943.943,0,0,1-.943-.943V489.205a1.26,1.26,0,0,0-1.259-1.258h-5.75a.943.943,0,1,1,0-1.887h5.75a3.149,3.149,0,0,1,3.146,3.145v13.433A.944.944,0,0,1,3965.779,503.582Z" transform="translate(-3956.883 -486.06)" fill="#1e243a"/>
        </g>
        <g id="Grupo_12342" data-name="Grupo 12342" transform="translate(6.71 26.965)">
          <path id="Trazado_20173" data-name="Trazado 20173" d="M3658.914,653.851h-5.885a3.149,3.149,0,0,1-3.146-3.145V637a.944.944,0,0,1,1.887,0v13.7a1.26,1.26,0,0,0,1.258,1.258h5.885a.944.944,0,0,1,0,1.887Z" transform="translate(-3649.883 -636.06)" fill="#1e243a"/>
        </g>
      </g>
      <g id="Grupo_12351" data-name="Grupo 12351" transform="translate(142.925 105.628)">
        <g id="Grupo_12344" data-name="Grupo 12344" transform="translate(11.752)">
          <path id="Trazado_20174" data-name="Trazado 20174" d="M3705.128,1277.7h-9.662a.943.943,0,0,1,0-1.887h9.662a.426.426,0,0,0,.426-.425v-53.378a.426.426,0,0,0-.426-.425H3651.75a.426.426,0,0,0-.425.425v10.671a.944.944,0,1,1-1.887,0v-10.671a2.315,2.315,0,0,1,2.312-2.312h53.378a2.315,2.315,0,0,1,2.313,2.312v53.378A2.315,2.315,0,0,1,3705.128,1277.7Z" transform="translate(-3649.438 -1219.695)" fill="#1e243a"/>
        </g>
        <g id="Grupo_12350" data-name="Grupo 12350" transform="translate(0 12.611)">
          <g id="Grupo_12345" data-name="Grupo 12345">
            <path id="Trazado_20175" data-name="Trazado 20175" d="M3617.151,1371.261h-51.816a3.1,3.1,0,0,1-3.093-3.093v-51.816a3.1,3.1,0,0,1,3.093-3.093h51.816a3.1,3.1,0,0,1,3.093,3.093v51.816A3.1,3.1,0,0,1,3617.151,1371.261Zm-51.816-56.115a1.207,1.207,0,0,0-1.206,1.206v51.816a1.208,1.208,0,0,0,1.206,1.206h51.816a1.207,1.207,0,0,0,1.206-1.206v-51.816a1.207,1.207,0,0,0-1.206-1.206Z" transform="translate(-3562.242 -1313.259)" fill="#1e243a"/>
          </g>
          <g id="Grupo_12346" data-name="Grupo 12346" transform="translate(0.086 47.139)">
            <path id="Trazado_20176" data-name="Trazado 20176" d="M3619.9,1664.887h-56.07a.943.943,0,0,1,0-1.887h56.07a.943.943,0,0,1,0,1.887Z" transform="translate(-3562.883 -1663)" fill="#1e243a"/>
          </g>
          <g id="Grupo_12347" data-name="Grupo 12347" transform="translate(0.033 17.154)">
            <path id="Trazado_20177" data-name="Trazado 20177" d="M3617.369,1472.1a.94.94,0,0,1-.667-.276l-29.015-29.015-23.59,23.59a.944.944,0,0,1-1.334-1.334l24.257-24.257a.943.943,0,0,1,1.334,0l29.682,29.682a.943.943,0,0,1-.667,1.611Z" transform="translate(-3562.487 -1440.529)" fill="#1e243a"/>
          </g>
          <g id="Grupo_12348" data-name="Grupo 12348" transform="translate(40.834 25.247)">
            <path id="Trazado_20178" data-name="Trazado 20178" d="M3881.4,1510.344a.94.94,0,0,1-.667-.276l-7.216-7.216-6.7,6.7a.944.944,0,0,1-1.334-1.334l7.371-7.37a.943.943,0,0,1,1.334,0l7.883,7.883a.944.944,0,0,1-.667,1.611Z" transform="translate(-3865.206 -1500.573)" fill="#1e243a"/>
          </g>
          <g id="Grupo_12349" data-name="Grupo 12349" transform="translate(33.41 6.379)">
            <path id="Trazado_20179" data-name="Trazado 20179" d="M3814.388,1369.125a4.268,4.268,0,1,1,4.268-4.268A4.273,4.273,0,0,1,3814.388,1369.125Zm0-6.65a2.381,2.381,0,1,0,2.382,2.381A2.384,2.384,0,0,0,3814.388,1362.476Z" transform="translate(-3810.12 -1360.589)" fill="#1e243a"/>
          </g>
        </g>
      </g>
      <g id="Grupo_12357" data-name="Grupo 12357" transform="translate(21.437 8.357)">
        <g id="Grupo_12352" data-name="Grupo 12352" transform="translate(0 28.574)">
          <path id="Trazado_20180" data-name="Trazado 20180" d="M2661.826,713.5a.944.944,0,0,1-.944-.943v-1.617a.943.943,0,1,1,1.887,0v1.617A.943.943,0,0,1,2661.826,713.5Z" transform="translate(-2660.882 -710)" fill="#1e243a"/>
        </g>
        <g id="Grupo_12353" data-name="Grupo 12353" transform="translate(0 8.222)">
          <path id="Trazado_20181" data-name="Trazado 20181" d="M2661.826,574.635a.944.944,0,0,1-.944-.944v-3.639a.943.943,0,1,1,1.887,0v3.639A.943.943,0,0,1,2661.826,574.635Zm0-10.109a.944.944,0,0,1-.944-.943v-3.639a.943.943,0,0,1,1.887,0v3.639A.943.943,0,0,1,2661.826,564.526Z" transform="translate(-2660.882 -559)" fill="#1e243a"/>
        </g>
        <g id="Grupo_12354" data-name="Grupo 12354">
          <path id="Trazado_20182" data-name="Trazado 20182" d="M2661.826,501.639a.944.944,0,0,1-.944-.943v-1.752a.944.944,0,0,1,.944-.943h1.618a.943.943,0,0,1,0,1.887h-.674v.809A.943.943,0,0,1,2661.826,501.639Z" transform="translate(-2660.882 -498)" fill="#1e243a"/>
        </g>
        <g id="Grupo_12355" data-name="Grupo 12355" transform="translate(7.548)">
          <path id="Trazado_20183" data-name="Trazado 20183" d="M2821.879,499.887h-3.235a.943.943,0,1,1,0-1.887h3.235a.943.943,0,1,1,0,1.887Zm-9.165,0h-3.235a.943.943,0,0,1,0-1.887h3.235a.943.943,0,1,1,0,1.887Zm-9.165,0h-3.235a.943.943,0,1,1,0-1.887h3.235a.943.943,0,0,1,0,1.887Zm-9.165,0h-3.235a.943.943,0,0,1,0-1.887h3.235a.943.943,0,1,1,0,1.887Zm-9.165,0h-3.235a.943.943,0,1,1,0-1.887h3.235a.943.943,0,0,1,0,1.887Zm-9.166,0h-3.235a.943.943,0,0,1,0-1.887h3.235a.943.943,0,1,1,0,1.887Zm-9.165,0h-3.235a.943.943,0,1,1,0-1.887h3.235a.943.943,0,0,1,0,1.887Zm-9.165,0h-3.235a.943.943,0,0,1,0-1.887h3.235a.943.943,0,1,1,0,1.887Zm-9.165,0h-3.235a.943.943,0,1,1,0-1.887h3.235a.943.943,0,0,1,0,1.887Zm-9.165,0h-3.235a.943.943,0,0,1,0-1.887h3.235a.943.943,0,1,1,0,1.887Zm-9.165,0h-3.235a.943.943,0,1,1,0-1.887h3.235a.943.943,0,0,1,0,1.887Zm-9.165,0h-3.235a.943.943,0,0,1,0-1.887h3.235a.943.943,0,1,1,0,1.887Z" transform="translate(-2716.883 -498)" fill="#1e243a"/>
        </g>
        <g id="Grupo_12356" data-name="Grupo 12356" transform="translate(117.396)">
          <path id="Trazado_20184" data-name="Trazado 20184" d="M3534.579,499.887h-1.752a.943.943,0,0,1,0-1.887h1.752a.943.943,0,0,1,0,1.887Z" transform="translate(-3531.883 -498)" fill="#1e243a"/>
        </g>
      </g>
      <g id="Grupo_12363" data-name="Grupo 12363" transform="translate(21.437 145.43)">
        <g id="Grupo_12358" data-name="Grupo 12358">
          <path id="Trazado_20185" data-name="Trazado 20185" d="M2661.826,1518.639a.944.944,0,0,1-.944-.944v-1.752a.943.943,0,0,1,1.887,0v1.752A.943.943,0,0,1,2661.826,1518.639Z" transform="translate(-2660.882 -1515)" fill="#1e243a"/>
        </g>
        <g id="Grupo_12359" data-name="Grupo 12359" transform="translate(0 8.222)">
          <path id="Trazado_20186" data-name="Trazado 20186" d="M2661.826,1581.526a.943.943,0,0,1-.944-.943v-3.639a.943.943,0,1,1,1.887,0v3.639A.943.943,0,0,1,2661.826,1581.526Z" transform="translate(-2660.882 -1576)" fill="#1e243a"/>
        </g>
        <g id="Grupo_12360" data-name="Grupo 12360" transform="translate(0 18.33)">
          <path id="Trazado_20187" data-name="Trazado 20187" d="M2663.443,1654.5h-1.618a.944.944,0,0,1-.944-.944v-1.617a.943.943,0,0,1,1.887,0v.674h.674a.943.943,0,0,1,0,1.887Z" transform="translate(-2660.882 -1651)" fill="#1e243a"/>
        </g>
        <g id="Grupo_12361" data-name="Grupo 12361" transform="translate(7.818 19.948)">
          <path id="Trazado_20188" data-name="Trazado 20188" d="M2817.544,1664.887h-3.37a.943.943,0,0,1,0-1.887h3.37a.943.943,0,0,1,0,1.887Zm-9.435,0h-3.37a.943.943,0,0,1,0-1.887h3.37a.943.943,0,1,1,0,1.887Zm-9.435,0h-3.37a.943.943,0,0,1,0-1.887h3.37a.943.943,0,1,1,0,1.887Zm-9.435,0h-3.37a.943.943,0,0,1,0-1.887h3.37a.943.943,0,0,1,0,1.887Zm-9.435,0h-3.37a.943.943,0,0,1,0-1.887h3.37a.943.943,0,0,1,0,1.887Zm-9.435,0H2767a.943.943,0,0,1,0-1.887h3.37a.943.943,0,0,1,0,1.887Zm-9.435,0h-3.37a.943.943,0,0,1,0-1.887h3.37a.943.943,0,0,1,0,1.887Zm-9.435,0h-3.37a.943.943,0,1,1,0-1.887h3.37a.943.943,0,0,1,0,1.887Zm-9.435,0h-3.37a.943.943,0,1,1,0-1.887h3.37a.943.943,0,0,1,0,1.887Zm-9.435,0h-3.369a.943.943,0,1,1,0-1.887h3.369a.943.943,0,1,1,0,1.887Zm-9.435,0h-3.369a.943.943,0,0,1,0-1.887h3.369a.943.943,0,1,1,0,1.887Z" transform="translate(-2718.883 -1663)" fill="#1e243a"/>
        </g>
        <g id="Grupo_12362" data-name="Grupo 12362" transform="translate(112.409 19.948)">
          <path id="Trazado_20189" data-name="Trazado 20189" d="M3497.579,1664.887h-1.752a.943.943,0,0,1,0-1.887h1.752a.943.943,0,0,1,0,1.887Z" transform="translate(-3494.883 -1663)" fill="#1e243a"/>
        </g>
      </g>
      <g id="Grupo_12366" data-name="Grupo 12366" transform="translate(147.998 77.096)">
        <g id="Grupo_12364" data-name="Grupo 12364" transform="translate(2.965)">
          <path id="Trazado_20190" data-name="Trazado 20190" d="M3622.825,1015.952a.943.943,0,0,1-.943-.943v-6.065a.944.944,0,0,1,1.887,0v6.065A.943.943,0,0,1,3622.825,1015.952Z" transform="translate(-3621.882 -1008)" fill="#1e243a"/>
        </g>
        <g id="Grupo_12365" data-name="Grupo 12365" transform="translate(0 3.1)">
          <path id="Trazado_20191" data-name="Trazado 20191" d="M3606.892,1032.887h-6.065a.943.943,0,0,1,0-1.887h6.065a.943.943,0,0,1,0,1.887Z" transform="translate(-3599.884 -1031)" fill="#1e243a"/>
        </g>
      </g>
      <g id="Grupo_12369" data-name="Grupo 12369" transform="translate(104.059 136.535)">
        <g id="Grupo_12367" data-name="Grupo 12367" transform="translate(2.965)">
          <path id="Trazado_20192" data-name="Trazado 20192" d="M3296.826,1456.952a.943.943,0,0,1-.943-.944v-6.065a.943.943,0,1,1,1.887,0v6.065A.944.944,0,0,1,3296.826,1456.952Z" transform="translate(-3295.882 -1449)" fill="#1e243a"/>
        </g>
        <g id="Grupo_12368" data-name="Grupo 12368" transform="translate(0 3.1)">
          <path id="Trazado_20193" data-name="Trazado 20193" d="M3280.892,1473.887h-6.065a.943.943,0,0,1,0-1.887h6.065a.943.943,0,0,1,0,1.887Z" transform="translate(-3273.883 -1472)" fill="#1e243a"/>
        </g>
      </g>
      <g id="Grupo_12370" data-name="Grupo 12370" transform="translate(189.554 68.812)">
        <path id="Trazado_20194" data-name="Trazado 20194" d="M3914.48,960.144a1.336,1.336,0,0,1,1.314-1.367h0a1.329,1.329,0,0,1,1.38,1.293h0a1.317,1.317,0,0,1-1.314,1.358h-.034A1.321,1.321,0,0,1,3914.48,960.144Zm-3.993-.745a1.349,1.349,0,0,1-.035-1.906h0a1.347,1.347,0,0,1,1.905-.035h0a1.346,1.346,0,0,1,.035,1.906h0a1.339,1.339,0,0,1-.97.412h0A1.348,1.348,0,0,1,3910.487,959.4Zm8.729-.206a1.349,1.349,0,0,1-.059-1.906h0a1.35,1.35,0,0,1,1.906-.059h0a1.35,1.35,0,0,1,.059,1.906h0a1.347,1.347,0,0,1-.982.425h0A1.346,1.346,0,0,1,3919.216,959.192Zm-11.017-5.055a1.362,1.362,0,0,1,1.331-1.379h0a1.366,1.366,0,0,1,1.364,1.354h0a1.36,1.36,0,0,1-1.331,1.386h-.017A1.373,1.373,0,0,1,3908.2,954.137Zm12.25-.322a1.338,1.338,0,0,1,1.3-1.387h0a1.334,1.334,0,0,1,1.4,1.282h0a1.318,1.318,0,0,1-1.3,1.383h-.051A1.33,1.33,0,0,1,3920.449,953.815Zm-10.082-3.146a1.348,1.348,0,0,1-.012-1.906h0a1.347,1.347,0,0,1,1.906-.012h0a1.349,1.349,0,0,1,.012,1.907h0a1.344,1.344,0,0,1-.959.4h0A1.336,1.336,0,0,1,3910.367,950.669Zm8.533-.178h0a1.349,1.349,0,0,1-.082-1.9h0a1.346,1.346,0,0,1,1.9-.082h0a1.347,1.347,0,0,1,.083,1.9h0a1.342,1.342,0,0,1-.993.437h0A1.344,1.344,0,0,1,3918.9,950.491Zm-4.559-2.6a1.321,1.321,0,0,1,1.363-1.348h0a1.381,1.381,0,0,1,1.333,1.347h0a1.348,1.348,0,0,1-1.348,1.348h0A1.347,1.347,0,0,1,3914.341,947.888Z" transform="translate(-3908.199 -946.54)" fill="#1e243a"/>
      </g>
      <g id="Grupo_12371" data-name="Grupo 12371" transform="translate(49.11 138.899)">
        <path id="Trazado_20195" data-name="Trazado 20195" d="M2872.48,1480.144a1.333,1.333,0,0,1,1.314-1.365h0a1.328,1.328,0,0,1,1.38,1.292h0a1.318,1.318,0,0,1-1.314,1.358h-.034A1.322,1.322,0,0,1,2872.48,1480.144Zm-3.991-.745h0a1.347,1.347,0,0,1-.036-1.906h0a1.349,1.349,0,0,1,1.906-.035h0a1.347,1.347,0,0,1,.035,1.906h0a1.343,1.343,0,0,1-.971.412h0A1.343,1.343,0,0,1,2868.489,1479.4Zm8.728-.206a1.35,1.35,0,0,1-.06-1.906h0a1.349,1.349,0,0,1,1.906-.059h0a1.349,1.349,0,0,1,.06,1.906h0a1.348,1.348,0,0,1-.983.425h0A1.344,1.344,0,0,1,2877.217,1479.192Zm-11.018-5.055h0a1.362,1.362,0,0,1,1.332-1.378h0a1.365,1.365,0,0,1,1.364,1.353h0a1.36,1.36,0,0,1-1.33,1.386h-.018A1.374,1.374,0,0,1,2866.2,1474.137Zm12.25-.322a1.338,1.338,0,0,1,1.3-1.387h0a1.334,1.334,0,0,1,1.4,1.282h0a1.318,1.318,0,0,1-1.3,1.383h-.051A1.331,1.331,0,0,1,2878.45,1473.815Zm-10.082-3.146a1.347,1.347,0,0,1-.012-1.906h0a1.347,1.347,0,0,1,1.906-.012h0a1.349,1.349,0,0,1,.012,1.907h0a1.346,1.346,0,0,1-.959.4h0A1.335,1.335,0,0,1,2868.368,1470.668Zm8.533-.178h0a1.349,1.349,0,0,1-.082-1.9h0a1.347,1.347,0,0,1,1.9-.082h0a1.346,1.346,0,0,1,.083,1.9h0a1.341,1.341,0,0,1-.994.438h0A1.344,1.344,0,0,1,2876.9,1470.491Zm-4.574-2.6a1.347,1.347,0,0,1,1.348-1.348h0a1.348,1.348,0,0,1,1.348,1.348h0a1.348,1.348,0,0,1-1.348,1.348h0A1.346,1.346,0,0,1,2872.327,1467.888Z" transform="translate(-2866.199 -1466.54)" fill="#1e243a"/>
      </g>
      <g id="Grupo_12372" data-name="Grupo 12372" transform="translate(109.763 93.073)">
        <path id="Trazado_20196" data-name="Trazado 20196" d="M3322.481,1140.144a1.335,1.335,0,0,1,1.314-1.367h0a1.33,1.33,0,0,1,1.38,1.293h0a1.317,1.317,0,0,1-1.314,1.358h-.034A1.321,1.321,0,0,1,3322.481,1140.144Zm-3.991-.745a1.348,1.348,0,0,1-.037-1.906h0a1.348,1.348,0,0,1,1.906-.035h0a1.346,1.346,0,0,1,.035,1.906h0a1.341,1.341,0,0,1-.97.412h0A1.343,1.343,0,0,1,3318.49,1139.4Zm8.727-.206a1.349,1.349,0,0,1-.059-1.906h0a1.349,1.349,0,0,1,1.906-.059h0a1.35,1.35,0,0,1,.06,1.906h0a1.348,1.348,0,0,1-.983.425h0A1.345,1.345,0,0,1,3327.217,1139.192Zm-11.017-5.042h0a1.326,1.326,0,0,1,1.331-1.385h0a1.362,1.362,0,0,1,1.364,1.35h0a1.358,1.358,0,0,1-1.331,1.383h-.018A1.408,1.408,0,0,1,3316.2,1134.15Zm12.25-.335a1.337,1.337,0,0,1,1.3-1.387h0a1.334,1.334,0,0,1,1.4,1.282h0a1.318,1.318,0,0,1-1.3,1.383h-.051A1.331,1.331,0,0,1,3328.45,1133.815Zm-10.082-3.147a1.347,1.347,0,0,1-.012-1.906h0a1.347,1.347,0,0,1,1.906-.012h0a1.349,1.349,0,0,1,.012,1.907h0a1.347,1.347,0,0,1-.96.4h0A1.337,1.337,0,0,1,3318.368,1130.668Zm8.533-.178a1.358,1.358,0,0,1-.082-1.912h0a1.317,1.317,0,0,1,1.9-.09h0a1.356,1.356,0,0,1,.084,1.911h0a1.345,1.345,0,0,1-.993.442h0A1.339,1.339,0,0,1,3326.9,1130.49Zm-4.574-2.6a1.348,1.348,0,0,1,1.348-1.348h0a1.348,1.348,0,0,1,1.348,1.348h0a1.348,1.348,0,0,1-1.348,1.348h0A1.347,1.347,0,0,1,3322.327,1127.888Z" transform="translate(-3316.2 -1126.54)" fill="#1e243a"/>
      </g>
      <g id="Grupo_12373" data-name="Grupo 12373" transform="translate(117.85 30.264)">
        <path id="Trazado_20197" data-name="Trazado 20197" d="M3382.481,674.144a1.336,1.336,0,0,1,1.314-1.367h0a1.329,1.329,0,0,1,1.38,1.293h0a1.317,1.317,0,0,1-1.314,1.358h-.034A1.322,1.322,0,0,1,3382.481,674.144Zm-3.993-.745a1.349,1.349,0,0,1-.035-1.906h0a1.349,1.349,0,0,1,1.906-.035h0a1.347,1.347,0,0,1,.035,1.906h0a1.342,1.342,0,0,1-.971.412h0A1.343,1.343,0,0,1,3378.488,673.4Zm8.729-.206a1.349,1.349,0,0,1-.06-1.906h0a1.349,1.349,0,0,1,1.906-.059h0a1.349,1.349,0,0,1,.06,1.906h0a1.349,1.349,0,0,1-.983.425h0A1.344,1.344,0,0,1,3387.217,673.192ZM3376.2,668.15h0a1.326,1.326,0,0,1,1.33-1.385h0a1.363,1.363,0,0,1,1.364,1.35h0a1.358,1.358,0,0,1-1.33,1.383h-.018A1.409,1.409,0,0,1,3376.2,668.15Zm12.251-.315a1.345,1.345,0,0,1,1.3-1.4h0a1.347,1.347,0,0,1,1.4,1.3h0a1.346,1.346,0,0,1-1.3,1.4h-.051A1.347,1.347,0,0,1,3388.451,667.834Zm-10.082-3.166a1.347,1.347,0,0,1-.012-1.906h0a1.347,1.347,0,0,1,1.905-.012h0a1.349,1.349,0,0,1,.012,1.907h0a1.346,1.346,0,0,1-.96.4h0A1.335,1.335,0,0,1,3378.369,664.668Zm8.533-.178h0a1.348,1.348,0,0,1-.082-1.9h0a1.348,1.348,0,0,1,1.9-.082h0a1.348,1.348,0,0,1,.083,1.9h0a1.344,1.344,0,0,1-.994.437h0A1.344,1.344,0,0,1,3386.9,664.49Zm-4.574-2.6a1.347,1.347,0,0,1,1.348-1.348h0a1.348,1.348,0,0,1,1.348,1.348h0a1.348,1.348,0,0,1-1.348,1.348h0A1.347,1.347,0,0,1,3382.327,661.888Z" transform="translate(-3376.2 -660.54)" fill="#1e243a"/>
      </g>
    </g>
  </g>
</svg>
