<svg xmlns="http://www.w3.org/2000/svg" width="225.327" height="187.172" viewBox="0 0 225.327 187.172">
  <g id="Grupo_12694" data-name="Grupo 12694" transform="translate(-6795.419 -444)">
    <g id="Color" transform="translate(6815.348 472.264)">
      <path id="Trazado_20398" data-name="Trazado 20398" d="M7761.721,669.706h-6.09a2.66,2.66,0,0,1-2.511-1.891,26.96,26.96,0,0,0-1.579-3.941,2.645,2.645,0,0,1,.486-3.048l4.309-4.308a2.07,2.07,0,0,0,0-2.928l-6.019-6.017a2.068,2.068,0,0,0-2.925,0l-3.946,3.95a2.636,2.636,0,0,1-3.179.412,26.922,26.922,0,0,0-4.346-2,2.655,2.655,0,0,1-1.787-2.482V642.1a2.068,2.068,0,0,0-2.037-2.1h-8.478a2.063,2.063,0,0,0-2.031,2.1v4.636a2.62,2.62,0,0,1-1.973,2.508,28.311,28.311,0,0,0-5.12,1.893,2.645,2.645,0,0,1-3.029-.5l-3.062-3.064a2.07,2.07,0,0,0-2.928,0l-6.016,6.017a2.068,2.068,0,0,0,0,2.927l2.682,2.676a2.637,2.637,0,0,1,.419,3.17,27.928,27.928,0,0,0-2.335,5.449,2.654,2.654,0,0,1-2.51,1.89h-3.725a2.064,2.064,0,0,0-2.113,2.017v8.668a2.053,2.053,0,0,0,2.113,2h3.75a2.644,2.644,0,0,1,2.495,1.841,29.827,29.827,0,0,0,2.364,5.48,2.627,2.627,0,0,1-.446,3.137l-2.687,2.676a2.07,2.07,0,0,0,0,2.932l6.011,6a2.069,2.069,0,0,0,2.927,0l3.055-3.065a2.636,2.636,0,0,1,3.03-.495,28.352,28.352,0,0,0,5.124,1.9,2.624,2.624,0,0,1,1.973,2.512v4.7a2.052,2.052,0,0,0,2.031,2.086h8.478a2.057,2.057,0,0,0,2.037-2.086V704.6a2.655,2.655,0,0,1,1.792-2.484,26.855,26.855,0,0,0,4.347-1.988,2.641,2.641,0,0,1,3.176.411l3.928,3.917a2.069,2.069,0,0,0,2.924,0l6.025-6.02a2.068,2.068,0,0,0,0-2.928l-4.272-4.258a2.637,2.637,0,0,1-.49-3.043,27.044,27.044,0,0,0,1.559-3.911,2.666,2.666,0,0,1,2.512-1.9h6.089a2.058,2.058,0,0,0,2.119-2v-8.668A2.069,2.069,0,0,0,7761.721,669.706Zm-19.981,20.159a19.585,19.585,0,1,1,0-27.7A19.586,19.586,0,0,1,7741.739,689.864Z" transform="translate(-7582.537 -640)" fill="#ffd571"/>
      <path id="Trazado_20399" data-name="Trazado 20399" d="M7623.371,1407.2l-30.586,18.227,30.586,18.227v-10.525h36.051v-15h-36.051Z" transform="translate(-7497.73 -1296.566)" fill="#ff5a5a"/>
      <path id="Trazado_20400" data-name="Trazado 20400" d="M6984.572,1118.207l-4.2,0a1.625,1.625,0,0,1-1.57-1.221,19.624,19.624,0,0,0-1.35-3.659,1.628,1.628,0,0,1,.3-1.867l2.843-2.843a1.619,1.619,0,0,0,0-2.291l-4.227-4.227a1.62,1.62,0,0,0-2.291,0l-2.467,2.467a1.629,1.629,0,0,1-1.987.239,20.613,20.613,0,0,0-3.982-1.828,1.624,1.624,0,0,1-1.115-1.539l0-3.27a1.621,1.621,0,0,0-1.621-1.621h-6a1.62,1.62,0,0,0-1.62,1.622l0,2.889a1.624,1.624,0,0,1-1.212,1.569,20.223,20.223,0,0,0-4.4,1.752,1.621,1.621,0,0,1-1.92-.276l-2-2a1.62,1.62,0,0,0-2.291,0l-4.326,4.326a1.621,1.621,0,0,0,0,2.291l2.016,2.016a1.612,1.612,0,0,1,.293,1.89,21.683,21.683,0,0,0-1.752,4.428,1.612,1.612,0,0,1-1.564,1.184l-2.888-.008a1.62,1.62,0,0,0-1.625,1.621l0,5.99a1.62,1.62,0,0,0,1.623,1.619l3.269-.005a1.625,1.625,0,0,1,1.542,1.118,20.574,20.574,0,0,0,1.822,3.986,1.628,1.628,0,0,1-.24,1.985l-2.5,2.5a1.621,1.621,0,0,0,0,2.291l4.228,4.227a1.62,1.62,0,0,0,2.291,0l2.873-2.874a1.619,1.619,0,0,1,1.858-.308,19.584,19.584,0,0,0,3.669,1.363,1.626,1.626,0,0,1,1.219,1.567l0,4.173a1.62,1.62,0,0,0,1.619,1.618l6.008,0a1.619,1.619,0,0,0,1.62-1.623l-.007-4.515a1.626,1.626,0,0,1,1.126-1.545,19.481,19.481,0,0,0,3.186-1.361,1.626,1.626,0,0,1,1.923.275l3.227,3.226a1.62,1.62,0,0,0,2.291,0l4.326-4.326a1.619,1.619,0,0,0,0-2.291l-3.226-3.227a1.626,1.626,0,0,1-.275-1.923,19.637,19.637,0,0,0,1.375-3.221,1.624,1.624,0,0,1,1.543-1.128l4.558,0a1.62,1.62,0,0,0,1.621-1.62v-6A1.62,1.62,0,0,0,6984.572,1118.207Zm-17.264,12.023a10.469,10.469,0,1,1,0-14.806A10.469,10.469,0,0,1,6967.308,1130.23Z" transform="translate(-6933.617 -1030.712)" fill="#ffd571"/>
    </g>
    <g id="OPTIMIZATION" transform="translate(6795.419 444)">
      <g id="Grupo_12660" data-name="Grupo 12660" transform="translate(113.974 137.815)">
        <g id="Grupo_12658" data-name="Grupo 12658" transform="translate(42.554 7.039)">
          <path id="Trazado_20401" data-name="Trazado 20401" d="M7918.015,1487.128a1.082,1.082,0,0,1-1.082-1.081v-9.633h-34.969a1.082,1.082,0,0,1-1.082-1.081v-6.561a1.082,1.082,0,0,1,2.163,0v5.48h34.97a1.082,1.082,0,0,1,1.082,1.082v8.811l27.391-16.323L7919.1,1451.5v8.838a1.082,1.082,0,0,1-1.082,1.082h-11.464a1.082,1.082,0,1,1,0-2.163h10.382v-9.66a1.082,1.082,0,0,1,1.636-.929l30.585,18.227a1.082,1.082,0,0,1,0,1.858l-30.585,18.227A1.083,1.083,0,0,1,7918.015,1487.128Z" transform="translate(-7880.882 -1448.512)" fill="#1e243a"/>
        </g>
        <g id="Grupo_12659" data-name="Grupo 12659">
          <path id="Trazado_20402" data-name="Trazado 20402" d="M7617.453,1438.315a1.083,1.083,0,0,1-.554-.152l-30.585-18.226a1.082,1.082,0,0,1,0-1.858l30.585-18.227a1.082,1.082,0,0,1,1.635.929v9.777H7653.5a1.082,1.082,0,0,1,1.082,1.082v15a1.082,1.082,0,0,1-1.082,1.082h-34.969v9.516a1.082,1.082,0,0,1-1.082,1.082Zm-28.473-19.308,27.391,16.323v-8.694a1.082,1.082,0,0,1,1.082-1.081h34.969V1412.72h-34.969a1.082,1.082,0,0,1-1.082-1.081v-8.955Z" transform="translate(-7585.786 -1399.698)" fill="#1e243a"/>
        </g>
      </g>
      <g id="Grupo_12688" data-name="Grupo 12688" transform="translate(0.211 0)">
        <g id="Grupo_12682" data-name="Grupo 12682">
          <g id="Grupo_12671" data-name="Grupo 12671">
            <g id="Grupo_12661" data-name="Grupo 12661">
              <path id="Trazado_20403" data-name="Trazado 20403" d="M6915.417,604.931H6802.694a5.892,5.892,0,0,1-5.812-5.816V449.375a5.494,5.494,0,0,1,5.593-5.375h200.5a5.269,5.269,0,0,1,5.308,5.342v149.82a1.082,1.082,0,0,1-2.164,0V449.342a3.092,3.092,0,0,0-3.144-3.179h-200.5a3.33,3.33,0,0,0-3.43,3.212V599.115a3.747,3.747,0,0,0,3.649,3.653h112.723a1.082,1.082,0,1,1,0,2.163Z" transform="translate(-6796.882 -444)" fill="#1e243a"/>
            </g>
            <g id="Grupo_12662" data-name="Grupo 12662" transform="translate(0.361 20.044)">
              <path id="Trazado_20404" data-name="Trazado 20404" d="M6988.65,585.163H6800.465a1.082,1.082,0,1,1,0-2.163H6988.65a1.082,1.082,0,1,1,0,2.163Z" transform="translate(-6799.383 -583)" fill="#1e243a"/>
            </g>
            <g id="Grupo_12663" data-name="Grupo 12663" transform="translate(37.06 1.226)">
              <path id="Trazado_20405" data-name="Trazado 20405" d="M7054.963,471.823a1.082,1.082,0,0,1-1.082-1.082v-17.16a1.082,1.082,0,0,1,2.163,0v17.16A1.081,1.081,0,0,1,7054.963,471.823Z" transform="translate(-7053.882 -452.5)" fill="#1e243a"/>
            </g>
            <g id="Grupo_12666" data-name="Grupo 12666" transform="translate(7.844 6.095)">
              <g id="Grupo_12664" data-name="Grupo 12664">
                <path id="Trazado_20406" data-name="Trazado 20406" d="M6855.929,495.573a4.653,4.653,0,1,1,4.653-4.653A4.659,4.659,0,0,1,6855.929,495.573Zm0-7.144a2.49,2.49,0,1,0,2.49,2.49A2.493,2.493,0,0,0,6855.929,488.429Z" transform="translate(-6851.275 -486.266)" fill="#1e243a"/>
              </g>
              <g id="Grupo_12665" data-name="Grupo 12665" transform="translate(14.367)">
                <path id="Trazado_20407" data-name="Trazado 20407" d="M6955.558,495.573a4.653,4.653,0,1,1,4.654-4.653A4.659,4.659,0,0,1,6955.558,495.573Zm0-7.144a2.49,2.49,0,1,0,2.49,2.49A2.493,2.493,0,0,0,6955.558,488.429Z" transform="translate(-6950.904 -486.266)" fill="#1e243a"/>
              </g>
            </g>
            <g id="Grupo_12669" data-name="Grupo 12669" transform="translate(45.064 6.489)">
              <g id="Grupo_12667" data-name="Grupo 12667">
                <path id="Trazado_20408" data-name="Trazado 20408" d="M7221.934,491.163h-111.47a1.082,1.082,0,0,1,0-2.163h111.47a1.082,1.082,0,1,1,0,2.163Z" transform="translate(-7109.383 -489)" fill="#1e243a"/>
              </g>
              <g id="Grupo_12668" data-name="Grupo 12668" transform="translate(0 7.066)">
                <path id="Trazado_20409" data-name="Trazado 20409" d="M7170.31,540.163h-59.845a1.082,1.082,0,0,1,0-2.163h59.845a1.082,1.082,0,0,1,0,2.163Z" transform="translate(-7109.383 -538)" fill="#1e243a"/>
              </g>
            </g>
            <g id="Grupo_12670" data-name="Grupo 12670" transform="translate(202.678 20.044)">
              <path id="Trazado_20410" data-name="Trazado 20410" d="M8210.1,585.163h-6.633a1.082,1.082,0,1,1,0-2.163h6.633a1.082,1.082,0,1,1,0,2.163Z" transform="translate(-8202.383 -583)" fill="#1e243a"/>
            </g>
          </g>
          <g id="Grupo_12672" data-name="Grupo 12672" transform="translate(34.455 108.828)">
            <path id="Trazado_20411" data-name="Trazado 20411" d="M7047.367,1221.782a11.551,11.551,0,0,1-8.168-19.718h0a11.551,11.551,0,1,1,8.168,19.718Zm0-20.938a9.327,9.327,0,0,0-6.638,2.75h0a9.387,9.387,0,1,0,6.638-2.75Zm-7.4,1.985h0Z" transform="translate(-7035.816 -1198.681)" fill="#1e243a"/>
          </g>
          <g id="Grupo_12673" data-name="Grupo 12673" transform="translate(18.636 93.018)">
            <path id="Trazado_20412" data-name="Trazado 20412" d="M6956.489,1143.768h0l-6.008,0a2.706,2.706,0,0,1-2.7-2.7l0-4.173a.547.547,0,0,0-.413-.522,20.758,20.758,0,0,1-3.87-1.439.537.537,0,0,0-.617.1l-2.874,2.873a2.7,2.7,0,0,1-3.821,0l-4.227-4.227a2.7,2.7,0,0,1,0-3.821l2.5-2.5a.549.549,0,0,0,.074-.669,21.586,21.586,0,0,1-1.918-4.2.544.544,0,0,0-.513-.377h0l-3.27.005h0a2.7,2.7,0,0,1-2.7-2.7l-.005-5.99a2.7,2.7,0,0,1,2.7-2.7h.008l2.888.008h0a.53.53,0,0,0,.516-.384,22.9,22.9,0,0,1,1.84-4.651.534.534,0,0,0-.1-.62l-2.016-2.016a2.7,2.7,0,0,1,0-3.821l4.326-4.326a2.7,2.7,0,0,1,3.82,0l2,2a.538.538,0,0,0,.641.089,21.316,21.316,0,0,1,4.638-1.845.546.546,0,0,0,.41-.523l0-2.889a2.7,2.7,0,0,1,2.7-2.705h6a2.7,2.7,0,0,1,2.7,2.7v3.27a.543.543,0,0,0,.376.513,21.665,21.665,0,0,1,4.192,1.925.548.548,0,0,0,.669-.074l2.467-2.467a2.7,2.7,0,0,1,3.82,0l4.228,4.227a2.7,2.7,0,0,1,0,3.821l-2.843,2.843a.548.548,0,0,0-.1.628,20.773,20.773,0,0,1,1.425,3.86.544.544,0,0,0,.523.413h0l4.2,0h0a2.7,2.7,0,0,1,2.7,2.7v6a2.7,2.7,0,0,1-2.7,2.7h0l-4.558,0h0a.543.543,0,0,0-.515.382,20.806,20.806,0,0,1-1.451,3.4.543.543,0,0,0,.087.646l3.227,3.227a2.7,2.7,0,0,1,0,3.821l-4.326,4.326a2.7,2.7,0,0,1-3.82,0l-3.226-3.226a.543.543,0,0,0-.646-.087,20.692,20.692,0,0,1-3.361,1.436.544.544,0,0,0-.382.516l.008,4.515a2.7,2.7,0,0,1-2.7,2.706Zm-13.234-11.053a2.7,2.7,0,0,1,1.19.277,18.656,18.656,0,0,0,3.467,1.288,2.709,2.709,0,0,1,2.026,2.612l0,4.172a.54.54,0,0,0,.539.538l6.008,0h0a.539.539,0,0,0,.539-.539l-.008-4.515a2.7,2.7,0,0,1,1.873-2.575,18.542,18.542,0,0,0,3.009-1.285,2.693,2.693,0,0,1,3.2.462l3.226,3.226a.538.538,0,0,0,.761,0l4.327-4.326a.54.54,0,0,0,0-.762l-3.227-3.226a2.693,2.693,0,0,1-.462-3.2,18.617,18.617,0,0,0,1.3-3.044,2.7,2.7,0,0,1,2.572-1.875h0l4.559,0h0a.539.539,0,0,0,.538-.539v-6a.538.538,0,0,0-.539-.539h0l-4.2,0h0a2.709,2.709,0,0,1-2.616-2.029,18.576,18.576,0,0,0-1.275-3.458,2.71,2.71,0,0,1,.512-3.106l2.843-2.843a.54.54,0,0,0,0-.762l-4.228-4.227a.538.538,0,0,0-.761,0l-2.467,2.467a2.709,2.709,0,0,1-3.3.4,19.521,19.521,0,0,0-3.772-1.733,2.7,2.7,0,0,1-1.854-2.566l0-3.27a.54.54,0,0,0-.539-.539h-6a.538.538,0,0,0-.539.539l0,2.889a2.711,2.711,0,0,1-2.015,2.616,19.169,19.169,0,0,0-4.166,1.658,2.687,2.687,0,0,1-3.2-.462l-2-2a.538.538,0,0,0-.761,0l-4.326,4.326a.538.538,0,0,0,0,.761l2.016,2.016a2.679,2.679,0,0,1,.485,3.16,20.677,20.677,0,0,0-1.664,4.2,2.7,2.7,0,0,1-2.6,1.984h-.007l-2.888-.008h0a.538.538,0,0,0-.538.539l.005,5.99a.538.538,0,0,0,.539.538h0l3.269-.005h0a2.7,2.7,0,0,1,2.566,1.859,19.465,19.465,0,0,0,1.726,3.776,2.709,2.709,0,0,1-.4,3.3l-2.5,2.5a.538.538,0,0,0,0,.762l4.227,4.227a.538.538,0,0,0,.761,0l2.874-2.873A2.7,2.7,0,0,1,6943.255,1132.715Z" transform="translate(-6926.117 -1089.048)" fill="#1e243a"/>
          </g>
          <g id="Grupo_12681" data-name="Grupo 12681" transform="translate(128.025 27.213)">
            <g id="Grupo_12674" data-name="Grupo 12674" transform="translate(16.379 16.4)">
              <path id="Trazado_20413" data-name="Trazado 20413" d="M7818.937,787.773a20.667,20.667,0,0,1-14.614-35.28h0a20.667,20.667,0,1,1,14.614,35.28Zm0-39.17a18.382,18.382,0,0,0-13.084,5.419h0a18.5,18.5,0,1,0,13.084-5.419Zm-13.849,4.655h0Z" transform="translate(-7798.27 -746.439)" fill="#1e243a"/>
            </g>
            <g id="Grupo_12675" data-name="Grupo 12675">
              <path id="Trazado_20414" data-name="Trazado 20414" d="M7725.943,706.927h-8.478a3.154,3.154,0,0,1-3.15-3.15v-4.7a1.532,1.532,0,0,0-1.151-1.466,29.23,29.23,0,0,1-5.3-1.974,1.557,1.557,0,0,0-1.789.287l-3.056,3.066a3.129,3.129,0,0,1-2.227.926h0a3.129,3.129,0,0,1-2.225-.921l-6.012-6a3.15,3.15,0,0,1,0-4.463l2.687-2.672a1.536,1.536,0,0,0,.266-1.833,30.55,30.55,0,0,1-2.451-5.665,1.525,1.525,0,0,0-1.464-1.056h-3.75a3.153,3.153,0,0,1-3.15-3.15v-8.669a3.153,3.153,0,0,1,3.15-3.15h3.725a1.545,1.545,0,0,0,1.477-1.1,28.821,28.821,0,0,1,2.426-5.635,1.566,1.566,0,0,0-.241-1.872l-2.683-2.676a3.15,3.15,0,0,1,0-4.457l6.015-6.017a3.13,3.13,0,0,1,2.228-.923h0a3.129,3.129,0,0,1,2.228.924l3.061,3.064a1.558,1.558,0,0,0,1.785.287,29.3,29.3,0,0,1,5.307-1.966,1.526,1.526,0,0,0,1.15-1.463V635.86a3.154,3.154,0,0,1,3.15-3.15h8.478a3.153,3.153,0,0,1,3.149,3.15v5.359a1.567,1.567,0,0,0,1.053,1.463,28,28,0,0,1,4.505,2.075,1.56,1.56,0,0,0,1.876-.237l3.946-3.95a3.132,3.132,0,0,1,2.228-.924h0a3.128,3.128,0,0,1,2.227.922l6.019,6.016a3.15,3.15,0,0,1,0,4.456l-4.309,4.3a1.557,1.557,0,0,0-.282,1.8,28.022,28.022,0,0,1,1.642,4.086,1.552,1.552,0,0,0,1.479,1.106h6.09a3.154,3.154,0,0,1,3.15,3.15v8.669a3.154,3.154,0,0,1-3.15,3.15h-6.089a1.553,1.553,0,0,0-1.48,1.107,27.9,27.9,0,0,1-1.621,4.036,1.556,1.556,0,0,0,.284,1.8l4.272,4.257a3.15,3.15,0,0,1,0,4.459l-6.025,6.021a3.156,3.156,0,0,1-4.452,0l-3.925-3.917a1.561,1.561,0,0,0-1.872-.237,28.008,28.008,0,0,1-4.514,2.068,1.566,1.566,0,0,0-1.056,1.464v5.417A3.153,3.153,0,0,1,7725.943,706.927Zm-18.779-13.617a3.747,3.747,0,0,1,1.647.382,27.062,27.062,0,0,0,4.909,1.827,3.7,3.7,0,0,1,2.758,3.557v4.7a.988.988,0,0,0,.987.987h8.478a.988.988,0,0,0,.986-.987V698.36a3.733,3.733,0,0,1,2.5-3.5,25.872,25.872,0,0,0,4.164-1.908,3.731,3.731,0,0,1,4.472.585l3.925,3.917a.988.988,0,0,0,1.394,0l6.026-6.02a.988.988,0,0,0,0-1.4l-4.273-4.258a3.719,3.719,0,0,1-.7-4.288,25.708,25.708,0,0,0,1.5-3.722,3.707,3.707,0,0,1,3.545-2.626h6.089a.988.988,0,0,0,.987-.987v-8.669a.989.989,0,0,0-.987-.987h-6.09a3.706,3.706,0,0,1-3.544-2.625,25.959,25.959,0,0,0-1.515-3.77,3.717,3.717,0,0,1,.69-4.287l4.309-4.3a.986.986,0,0,0,0-1.4L7743.4,642.1a.98.98,0,0,0-.7-.289h0a.983.983,0,0,0-.7.289l-3.946,3.95a3.728,3.728,0,0,1-4.48.586,25.823,25.823,0,0,0-4.156-1.915,3.734,3.734,0,0,1-2.491-3.5V635.86a.988.988,0,0,0-.986-.987h-8.478a.988.988,0,0,0-.987.987V640.5a3.691,3.691,0,0,1-2.76,3.554,27.092,27.092,0,0,0-4.914,1.82,3.724,3.724,0,0,1-4.262-.7l-3.061-3.064a.98.98,0,0,0-.7-.289h0a.98.98,0,0,0-.7.289l-6.015,6.017a.987.987,0,0,0,0,1.4l2.683,2.676a3.734,3.734,0,0,1,.6,4.467,26.613,26.613,0,0,0-2.243,5.211,3.7,3.7,0,0,1-3.544,2.627h-3.725a.988.988,0,0,0-.987.987v8.669a.988.988,0,0,0,.987.987h3.75a3.68,3.68,0,0,1,3.525,2.562,28.432,28.432,0,0,0,2.277,5.264,3.705,3.705,0,0,1-.626,4.425l-2.687,2.672a.985.985,0,0,0,0,1.4l6.011,6a.98.98,0,0,0,.7.289h0a.981.981,0,0,0,.7-.29l3.056-3.065A3.7,3.7,0,0,1,7707.164,693.31Z" transform="translate(-7684.691 -632.71)" fill="#1e243a"/>
            </g>
            <g id="Grupo_12676" data-name="Grupo 12676" transform="translate(26.692 26.714)">
              <path id="Trazado_20415" data-name="Trazado 20415" d="M7880.146,838.667a10.353,10.353,0,0,1-7.324-17.677h0a10.358,10.358,0,1,1,7.324,17.677Zm-5.794-16.148a8.2,8.2,0,1,0,5.794-2.4,8.2,8.2,0,0,0-5.794,2.4Z" transform="translate(-7869.793 -817.961)" fill="#1e243a"/>
            </g>
            <g id="Grupo_12677" data-name="Grupo 12677" transform="translate(22.079 22.142)">
              <path id="Trazado_20416" data-name="Trazado 20416" d="M7845.81,795.346a1.081,1.081,0,0,1-.765-.317l-6.928-6.929a1.082,1.082,0,0,1,1.53-1.529l6.928,6.929a1.081,1.081,0,0,1-.765,1.846Z" transform="translate(-7837.8 -786.254)" fill="#1e243a"/>
            </g>
            <g id="Grupo_12678" data-name="Grupo 12678" transform="translate(42.745 42.808)">
              <path id="Trazado_20417" data-name="Trazado 20417" d="M7989.207,938.744a1.08,1.08,0,0,1-.765-.317l-7.011-7.011a1.082,1.082,0,0,1,1.53-1.529l7.011,7.011a1.081,1.081,0,0,1-.765,1.846Z" transform="translate(-7981.114 -929.569)" fill="#1e243a"/>
            </g>
            <g id="Grupo_12679" data-name="Grupo 12679" transform="translate(42.498 22.142)">
              <path id="Trazado_20418" data-name="Trazado 20418" d="M7980.48,795.676a1.082,1.082,0,0,1-.765-1.846l7.258-7.259a1.082,1.082,0,1,1,1.53,1.529l-7.258,7.259A1.08,1.08,0,0,1,7980.48,795.676Z" transform="translate(-7979.398 -786.254)" fill="#1e243a"/>
            </g>
            <g id="Grupo_12680" data-name="Grupo 12680" transform="translate(22.079 42.935)">
              <path id="Trazado_20419" data-name="Trazado 20419" d="M7838.881,939.5a1.082,1.082,0,0,1-.765-1.846l6.884-6.885a1.082,1.082,0,0,1,1.53,1.529l-6.885,6.885A1.079,1.079,0,0,1,7838.881,939.5Z" transform="translate(-7837.8 -930.447)" fill="#1e243a"/>
            </g>
          </g>
        </g>
        <g id="Grupo_12683" data-name="Grupo 12683" transform="translate(29.346 46.722)">
          <path id="Trazado_20420" data-name="Trazado 20420" d="M7062.174,770.163h-60.71a1.082,1.082,0,0,1,0-2.163h60.71a1.082,1.082,0,0,1,0,2.163Z" transform="translate(-7000.383 -768)" fill="#1e243a"/>
        </g>
        <g id="Grupo_12684" data-name="Grupo 12684" transform="translate(74.77 63.305)">
          <path id="Trazado_20421" data-name="Trazado 20421" d="M7342.565,885.163h-26.1a1.082,1.082,0,1,1,0-2.163h26.1a1.082,1.082,0,1,1,0,2.163Z" transform="translate(-7315.383 -883)" fill="#1e243a"/>
        </g>
        <g id="Grupo_12685" data-name="Grupo 12685" transform="translate(139.661 132.523)">
          <path id="Trazado_20422" data-name="Trazado 20422" d="M7806.841,1365.163h-40.377a1.081,1.081,0,1,1,0-2.163h40.377a1.081,1.081,0,1,1,0,2.163Z" transform="translate(-7765.383 -1363)" fill="#1e243a"/>
        </g>
        <g id="Grupo_12686" data-name="Grupo 12686" transform="translate(111.83 115.94)">
          <path id="Trazado_20423" data-name="Trazado 20423" d="M7597.979,1250.163h-24.515a1.082,1.082,0,0,1,0-2.163h24.515a1.082,1.082,0,0,1,0,2.163Z" transform="translate(-7572.383 -1248)" fill="#1e243a"/>
        </g>
        <g id="Grupo_12687" data-name="Grupo 12687" transform="translate(150.044 115.94)">
          <path id="Trazado_20424" data-name="Trazado 20424" d="M7846.829,1250.163h-8.364a1.082,1.082,0,0,1,0-2.163h8.364a1.082,1.082,0,0,1,0,2.163Z" transform="translate(-7837.383 -1248)" fill="#1e243a"/>
        </g>
      </g>
      <g id="Grupo_12689" data-name="Grupo 12689" transform="translate(0 173.621)">
        <path id="Trazado_20425" data-name="Trazado 20425" d="M6799.332,1661.415h0a1.44,1.44,0,0,1-.694-1.917h0a1.44,1.44,0,0,1,1.916-.7h0a1.442,1.442,0,0,1,.7,1.916h0a1.443,1.443,0,0,1-1.308.832h0A1.426,1.426,0,0,1,6799.332,1661.415Zm4.2-.73a1.441,1.441,0,0,1,.64-1.935h0a1.442,1.442,0,0,1,1.937.639h0a1.443,1.443,0,0,1-.641,1.937h0a1.427,1.427,0,0,1-.647.154h0A1.443,1.443,0,0,1,6803.53,1660.686Zm-8.071-4.027h0a1.443,1.443,0,0,1,1.071-1.735h0a1.442,1.442,0,0,1,1.735,1.073h0a1.442,1.442,0,0,1-1.071,1.735h0a1.472,1.472,0,0,1-.333.039h0A1.441,1.441,0,0,1,6795.458,1656.658Zm12.038.923a1.442,1.442,0,0,1-1.122-1.7h0a1.442,1.442,0,0,1,1.7-1.122h0a1.443,1.443,0,0,1,1.122,1.7h0a1.443,1.443,0,0,1-1.412,1.152h0A1.449,1.449,0,0,1,6807.5,1657.581Zm-10.473-4.884a1.44,1.44,0,0,1-.235-2.025h0a1.442,1.442,0,0,1,2.025-.237h0a1.444,1.444,0,0,1,.236,2.026h0a1.442,1.442,0,0,1-1.132.547h0A1.427,1.427,0,0,1,6797.023,1652.7Zm8.465-.329a1.442,1.442,0,0,1,.177-2.032h0a1.442,1.442,0,0,1,2.031.177h0a1.442,1.442,0,0,1-.177,2.032h0a1.434,1.434,0,0,1-.925.337h0A1.439,1.439,0,0,1,6805.488,1652.368Zm-4.624-2.926a1.443,1.443,0,0,1,1.442-1.442h0a1.442,1.442,0,0,1,1.441,1.442h0a1.442,1.442,0,0,1-1.441,1.442h0A1.443,1.443,0,0,1,6800.865,1649.442Z" transform="translate(-6795.42 -1648)" fill="#1e243a"/>
      </g>
      <g id="Grupo_12690" data-name="Grupo 12690" transform="translate(102.174 170.333)">
        <path id="Trazado_20426" data-name="Trazado 20426" d="M7507.87,1638.615a1.441,1.441,0,0,1-.695-1.916h0a1.441,1.441,0,0,1,1.917-.7h0a1.442,1.442,0,0,1,.695,1.917h0a1.44,1.44,0,0,1-1.307.832h0A1.436,1.436,0,0,1,7507.87,1638.615Zm4.2-.728a1.442,1.442,0,0,1,.641-1.937h0a1.443,1.443,0,0,1,1.937.64h0a1.442,1.442,0,0,1-.641,1.935h0a1.43,1.43,0,0,1-.647.154h0A1.442,1.442,0,0,1,7512.069,1637.887Zm-8.071-4.028a1.442,1.442,0,0,1,1.072-1.735h0a1.442,1.442,0,0,1,1.734,1.071h0a1.441,1.441,0,0,1-1.071,1.735h0a1.475,1.475,0,0,1-.333.039h0A1.441,1.441,0,0,1,7504,1633.859Zm12.039.921a1.441,1.441,0,0,1-1.122-1.7h0a1.441,1.441,0,0,1,1.7-1.123h0a1.443,1.443,0,0,1,1.124,1.7h0a1.443,1.443,0,0,1-1.412,1.152h0A1.438,1.438,0,0,1,7516.036,1634.781Zm-10.474-4.883a1.442,1.442,0,0,1-.235-2.026h0a1.441,1.441,0,0,1,2.025-.235h0a1.44,1.44,0,0,1,.235,2.025h0a1.434,1.434,0,0,1-1.131.548h0A1.436,1.436,0,0,1,7505.562,1629.9Zm8.465-.33a1.443,1.443,0,0,1,.177-2.032h0a1.443,1.443,0,0,1,2.032.177h0a1.442,1.442,0,0,1-.177,2.032h0a1.436,1.436,0,0,1-.926.337h0A1.438,1.438,0,0,1,7514.027,1629.568Zm-4.623-2.926a1.442,1.442,0,0,1,1.442-1.442h0a1.442,1.442,0,0,1,1.442,1.442h0a1.442,1.442,0,0,1-1.442,1.442h0A1.442,1.442,0,0,1,7509.4,1626.642Z" transform="translate(-7503.959 -1625.2)" fill="#1e243a"/>
      </g>
      <g id="Grupo_12693" data-name="Grupo 12693" transform="translate(47.149 168.934)">
        <g id="Grupo_12691" data-name="Grupo 12691" transform="translate(3.677)">
          <path id="Trazado_20427" data-name="Trazado 20427" d="M7148.963,1625.017a1.082,1.082,0,0,1-1.082-1.081v-7.354a1.082,1.082,0,0,1,2.164,0v7.354A1.082,1.082,0,0,1,7148.963,1625.017Z" transform="translate(-7147.882 -1615.5)" fill="#1e243a"/>
        </g>
        <g id="Grupo_12692" data-name="Grupo 12692" transform="translate(0 3.677)">
          <path id="Trazado_20428" data-name="Trazado 20428" d="M7130.818,1643.163h-7.354a1.081,1.081,0,1,1,0-2.163h7.354a1.081,1.081,0,1,1,0,2.163Z" transform="translate(-7122.383 -1641)" fill="#1e243a"/>
        </g>
      </g>
    </g>
  </g>
</svg>
