<svg xmlns="http://www.w3.org/2000/svg" width="240.717" height="195.461" viewBox="0 0 240.717 195.461">
  <g id="Grupo_12758" data-name="Grupo 12758" transform="translate(-4663.129 -472.455)">
    <g id="Color" transform="translate(4670.487 473.61)">
      <g id="Grupo_12696" data-name="Grupo 12696" transform="translate(0)">
        <circle id="Elipse_652" data-name="Elipse 652" cx="27.44" cy="27.44" r="27.44" fill="#ff5a5a"/>
      </g>
      <g id="Grupo_12697" data-name="Grupo 12697" transform="translate(113.362 99.823)">
        <rect id="Rectángulo_2315" data-name="Rectángulo 2315" width="17.501" height="69.019" fill="#ffd571"/>
      </g>
      <g id="Grupo_12698" data-name="Grupo 12698" transform="translate(192.215 99.823)">
        <rect id="Rectángulo_2316" data-name="Rectángulo 2316" width="17.501" height="69.019" fill="#ffd571"/>
      </g>
      <g id="Grupo_12699" data-name="Grupo 12699" transform="translate(95.001 75.867)">
        <rect id="Rectángulo_2317" data-name="Rectángulo 2317" width="133.076" height="7.985" fill="#ffd571"/>
      </g>
      <g id="Grupo_12700" data-name="Grupo 12700" transform="translate(90.874 185.165)">
        <rect id="Rectángulo_2318" data-name="Rectángulo 2318" width="141.331" height="7.985" fill="#ffd571"/>
      </g>
    </g>
    <g id="WIRE" transform="translate(4663.129 472.455)">
      <g id="Grupo_12732" data-name="Grupo 12732" transform="translate(97.076 15.18)">
        <g id="Grupo_12724" data-name="Grupo 12724">
          <g id="Grupo_12701" data-name="Grupo 12701" transform="translate(10.261)">
            <path id="Trazado_20430" data-name="Trazado 20430" d="M5361.089,633.87a1.155,1.155,0,0,1-.816-1.972l60.56-60.56a1.154,1.154,0,0,1,1.633,0l60.376,60.376a1.155,1.155,0,0,1-1.634,1.634l-59.56-59.559-59.742,59.743A1.152,1.152,0,0,1,5361.089,633.87Z" transform="translate(-5359.934 -571)" fill="#1e243a"/>
          </g>
          <g id="Grupo_12702" data-name="Grupo 12702" transform="translate(23.646 13.233)">
            <path id="Trazado_20431" data-name="Trazado 20431" d="M5447.979,706.392a1.155,1.155,0,0,1-.816-1.972l47.174-47.175a1.155,1.155,0,0,1,1.634,0l47,47a1.155,1.155,0,0,1-1.634,1.634L5495.153,659.7,5448.8,706.054A1.154,1.154,0,0,1,5447.979,706.392Z" transform="translate(-5446.823 -656.907)" fill="#1e243a"/>
          </g>
          <g id="Grupo_12703" data-name="Grupo 12703" transform="translate(4.127 60.687)">
            <path id="Trazado_20432" data-name="Trazado 20432" d="M5454.345,975.257h-19.382a1.155,1.155,0,0,1,0-2.311h18.227v-5.675H5322.425v5.675h75.222a1.155,1.155,0,1,1,0,2.311H5321.27a1.156,1.156,0,0,1-1.156-1.155v-7.985a1.156,1.156,0,0,1,1.156-1.155h133.076a1.156,1.156,0,0,1,1.155,1.155V974.1A1.155,1.155,0,0,1,5454.345,975.257Z" transform="translate(-5320.114 -964.961)" fill="#1e243a"/>
          </g>
          <g id="Grupo_12704" data-name="Grupo 12704" transform="translate(10.261 68.672)">
            <path id="Trazado_20433" data-name="Trazado 20433" d="M5481.9,1027.095H5361.088a1.155,1.155,0,0,1-1.155-1.155v-7.985a1.155,1.155,0,1,1,2.311,0v6.83h118.5v-6.83a1.155,1.155,0,1,1,2.311,0v7.985A1.156,1.156,0,0,1,5481.9,1027.095Z" transform="translate(-5359.933 -1016.799)" fill="#1e243a"/>
          </g>
          <g id="Grupo_12705" data-name="Grupo 12705" transform="translate(10.261 161.999)">
            <path id="Trazado_20434" data-name="Trazado 20434" d="M5481.9,1632.945a1.155,1.155,0,0,1-1.155-1.155v-6.83h-118.5v6.83a1.155,1.155,0,1,1-2.311,0V1623.8a1.155,1.155,0,0,1,1.155-1.155H5481.9a1.156,1.156,0,0,1,1.156,1.155v7.985A1.156,1.156,0,0,1,5481.9,1632.945Z" transform="translate(-5359.933 -1622.649)" fill="#1e243a"/>
          </g>
          <g id="Grupo_12706" data-name="Grupo 12706" transform="translate(0 169.984)">
            <path id="Trazado_20435" data-name="Trazado 20435" d="M5435.807,1684.783H5294.476a1.155,1.155,0,0,1-1.155-1.156v-7.985a1.155,1.155,0,0,1,1.155-1.156h39.989a1.155,1.155,0,0,1,0,2.311H5295.63v5.674H5434.65V1676.8h-32.4a1.155,1.155,0,1,1,0-2.311h33.561a1.155,1.155,0,0,1,1.154,1.156v7.985A1.155,1.155,0,0,1,5435.807,1684.783Z" transform="translate(-5293.32 -1674.487)" fill="#1e243a"/>
          </g>
          <g id="Grupo_12707" data-name="Grupo 12707" transform="translate(59.787 169.984)">
            <path id="Trazado_20436" data-name="Trazado 20436" d="M5708.072,1676.8H5682.6a1.155,1.155,0,0,1,0-2.311h25.477a1.155,1.155,0,1,1,0,2.311Z" transform="translate(-5681.44 -1674.487)" fill="#1e243a"/>
          </g>
          <g id="Grupo_12708" data-name="Grupo 12708" transform="translate(17.655 76.657)">
            <path id="Trazado_20437" data-name="Trazado 20437" d="M5420.591,1078.933h-11.506a1.155,1.155,0,0,1-1.155-1.155v-7.985a1.155,1.155,0,1,1,2.311,0v6.83h10.351a1.155,1.155,0,1,1,0,2.311Z" transform="translate(-5407.93 -1068.637)" fill="#1e243a"/>
          </g>
          <g id="Grupo_12709" data-name="Grupo 12709" transform="translate(36.197 76.657)">
            <path id="Trazado_20438" data-name="Trazado 20438" d="M5538.081,1078.933h-8.625a1.155,1.155,0,0,1,0-2.311h7.471v-6.83a1.155,1.155,0,1,1,2.311,0v7.985A1.156,1.156,0,0,1,5538.081,1078.933Z" transform="translate(-5528.301 -1068.637)" fill="#1e243a"/>
          </g>
          <g id="Grupo_12710" data-name="Grupo 12710" transform="translate(96.508 76.657)">
            <path id="Trazado_20439" data-name="Trazado 20439" d="M5932.241,1078.933h-11.262a1.156,1.156,0,0,1-1.155-1.155v-7.985a1.156,1.156,0,0,1,2.311,0v6.83h10.106a1.155,1.155,0,0,1,0,2.311Z" transform="translate(-5919.823 -1068.637)" fill="#1e243a"/>
          </g>
          <g id="Grupo_12711" data-name="Grupo 12711" transform="translate(115.54 76.657)">
            <path id="Trazado_20440" data-name="Trazado 20440" d="M6052.661,1078.933h-8.136a1.155,1.155,0,0,1,0-2.311h6.981v-6.83a1.155,1.155,0,1,1,2.31,0v7.985A1.155,1.155,0,0,1,6052.661,1078.933Z" transform="translate(-6043.369 -1068.637)" fill="#1e243a"/>
          </g>
          <g id="Grupo_12712" data-name="Grupo 12712" transform="translate(17.655 153.662)">
            <path id="Trazado_20441" data-name="Trazado 20441" d="M5436.252,1578.821a1.155,1.155,0,0,1-1.155-1.155v-6.83H5410.24v6.83a1.155,1.155,0,0,1-2.311,0v-7.985a1.155,1.155,0,0,1,1.155-1.155h27.167a1.156,1.156,0,0,1,1.155,1.155v7.985A1.155,1.155,0,0,1,5436.252,1578.821Z" transform="translate(-5407.93 -1568.525)" fill="#1e243a"/>
          </g>
          <g id="Grupo_12713" data-name="Grupo 12713" transform="translate(96.508 153.662)">
            <path id="Trazado_20442" data-name="Trazado 20442" d="M5948.146,1578.821a1.156,1.156,0,0,1-1.156-1.155v-6.83h-24.856v6.83a1.156,1.156,0,0,1-2.311,0v-7.985a1.156,1.156,0,0,1,1.155-1.155h27.168a1.155,1.155,0,0,1,1.155,1.155v7.985A1.155,1.155,0,0,1,5948.146,1578.821Z" transform="translate(-5919.823 -1568.525)" fill="#1e243a"/>
          </g>
          <g id="Grupo_12714" data-name="Grupo 12714" transform="translate(95.054 68.857)">
            <path id="Trazado_20443" data-name="Trazado 20443" d="M5921.551,1020.311h-10.013a1.155,1.155,0,1,1,0-2.311h10.013a1.155,1.155,0,1,1,0,2.311Z" transform="translate(-5910.382 -1018)" fill="#1e243a"/>
          </g>
          <g id="Grupo_12715" data-name="Grupo 12715" transform="translate(22.488 84.643)">
            <path id="Trazado_20444" data-name="Trazado 20444" d="M5457.961,1191.8h-17.5a1.155,1.155,0,0,1-1.155-1.155V1121.63a1.155,1.155,0,1,1,2.311,0v67.864h15.191V1121.63a1.155,1.155,0,1,1,2.311,0v69.019A1.156,1.156,0,0,1,5457.961,1191.8Z" transform="translate(-5439.305 -1120.475)" fill="#1e243a"/>
          </g>
          <g id="Grupo_12716" data-name="Grupo 12716" transform="translate(101.342 84.643)">
            <path id="Trazado_20445" data-name="Trazado 20445" d="M5969.855,1191.8h-17.5a1.155,1.155,0,0,1-1.155-1.155V1121.63a1.155,1.155,0,1,1,2.311,0v67.864h15.19V1121.63a1.155,1.155,0,1,1,2.311,0v69.019A1.155,1.155,0,0,1,5969.855,1191.8Z" transform="translate(-5951.199 -1120.475)" fill="#1e243a"/>
          </g>
          <g id="Grupo_12717" data-name="Grupo 12717" transform="translate(63.164 36.821)">
            <path id="Trazado_20446" data-name="Trazado 20446" d="M5712.084,827.48a8.725,8.725,0,1,1,8.726-8.725A8.735,8.735,0,0,1,5712.084,827.48Zm0-15.14a6.415,6.415,0,1,0,6.415,6.415A6.421,6.421,0,0,0,5712.084,812.34Z" transform="translate(-5703.359 -810.029)" fill="#1e243a"/>
          </g>
          <g id="Grupo_12718" data-name="Grupo 12718" transform="translate(107.763 95.43)">
            <path id="Trazado_20447" data-name="Trazado 20447" d="M5994.038,1215.3a1.155,1.155,0,0,1-1.156-1.155v-22.49a1.156,1.156,0,0,1,2.311,0v22.49A1.156,1.156,0,0,1,5994.038,1215.3Z" transform="translate(-5992.882 -1190.5)" fill="#1e243a"/>
          </g>
          <g id="Grupo_12719" data-name="Grupo 12719" transform="translate(113 132.554)">
            <path id="Trazado_20448" data-name="Trazado 20448" d="M6028.038,1448.291a1.156,1.156,0,0,1-1.156-1.155v-14.48a1.155,1.155,0,1,1,2.311,0v14.48A1.155,1.155,0,0,1,6028.038,1448.291Z" transform="translate(-6026.882 -1431.5)" fill="#1e243a"/>
          </g>
          <g id="Grupo_12720" data-name="Grupo 12720" transform="translate(113 117.92)">
            <path id="Trazado_20449" data-name="Trazado 20449" d="M6028.038,1344.2a1.156,1.156,0,0,1-1.156-1.155v-5.391a1.155,1.155,0,1,1,2.311,0v5.391A1.155,1.155,0,0,1,6028.038,1344.2Z" transform="translate(-6026.882 -1336.5)" fill="#1e243a"/>
          </g>
          <g id="Grupo_12721" data-name="Grupo 12721" transform="translate(28.585 95.43)">
            <path id="Trazado_20450" data-name="Trazado 20450" d="M5480.037,1215.3a1.156,1.156,0,0,1-1.156-1.155v-22.49a1.156,1.156,0,0,1,2.312,0v22.49A1.155,1.155,0,0,1,5480.037,1215.3Z" transform="translate(-5478.881 -1190.5)" fill="#1e243a"/>
          </g>
          <g id="Grupo_12722" data-name="Grupo 12722" transform="translate(33.822 132.554)">
            <path id="Trazado_20451" data-name="Trazado 20451" d="M5514.037,1448.291a1.156,1.156,0,0,1-1.155-1.155v-14.48a1.156,1.156,0,0,1,2.312,0v14.48A1.156,1.156,0,0,1,5514.037,1448.291Z" transform="translate(-5512.882 -1431.5)" fill="#1e243a"/>
          </g>
          <g id="Grupo_12723" data-name="Grupo 12723" transform="translate(33.822 117.92)">
            <path id="Trazado_20452" data-name="Trazado 20452" d="M5514.037,1344.2a1.156,1.156,0,0,1-1.155-1.155v-5.391a1.156,1.156,0,0,1,2.312,0v5.391A1.156,1.156,0,0,1,5514.037,1344.2Z" transform="translate(-5512.882 -1336.5)" fill="#1e243a"/>
          </g>
        </g>
        <g id="Grupo_12725" data-name="Grupo 12725" transform="translate(72.179 109.447)">
          <path id="Trazado_20453" data-name="Trazado 20453" d="M5763.037,1301.68a1.155,1.155,0,0,1-1.155-1.155v-17.869a1.156,1.156,0,0,1,2.311,0v17.869A1.156,1.156,0,0,1,5763.037,1301.68Z" transform="translate(-5761.882 -1281.5)" fill="#1e243a"/>
        </g>
        <g id="Grupo_12728" data-name="Grupo 12728" transform="translate(85.734 93.889)">
          <g id="Grupo_12726" data-name="Grupo 12726">
            <path id="Trazado_20454" data-name="Trazado 20454" d="M5851.037,1190.513a1.155,1.155,0,0,1-1.155-1.155v-7.7a1.155,1.155,0,1,1,2.311,0v7.7A1.155,1.155,0,0,1,5851.037,1190.513Z" transform="translate(-5849.882 -1180.5)" fill="#1e243a"/>
          </g>
          <g id="Grupo_12727" data-name="Grupo 12727" transform="translate(0 18.023)">
            <path id="Trazado_20455" data-name="Trazado 20455" d="M5851.037,1305.048a1.155,1.155,0,0,1-1.155-1.155v-5.237a1.155,1.155,0,1,1,2.311,0v5.237A1.155,1.155,0,0,1,5851.037,1305.048Z" transform="translate(-5849.882 -1297.5)" fill="#1e243a"/>
          </g>
        </g>
        <g id="Grupo_12731" data-name="Grupo 12731" transform="translate(58.315 114.069)">
          <g id="Grupo_12729" data-name="Grupo 12729" transform="translate(0 11.245)">
            <path id="Trazado_20456" data-name="Trazado 20456" d="M5673.037,1399.134a1.155,1.155,0,0,1-1.155-1.155v-12.323a1.156,1.156,0,0,1,2.311,0v12.323A1.155,1.155,0,0,1,5673.037,1399.134Z" transform="translate(-5671.882 -1384.5)" fill="#1e243a"/>
          </g>
          <g id="Grupo_12730" data-name="Grupo 12730">
            <path id="Trazado_20457" data-name="Trazado 20457" d="M5673.037,1316.891a1.156,1.156,0,0,1-1.155-1.155v-3.081a1.156,1.156,0,0,1,2.311,0v3.081A1.155,1.155,0,0,1,5673.037,1316.891Z" transform="translate(-5671.882 -1311.5)" fill="#1e243a"/>
          </g>
        </g>
      </g>
      <g id="Grupo_12738" data-name="Grupo 12738" transform="translate(6.203 0)">
        <g id="Grupo_12736" data-name="Grupo 12736">
          <path id="Trazado_20459" data-name="Trazado 20459" d="M4731.991,529.645a28.6,28.6,0,1,1,28.595-28.6A28.627,28.627,0,0,1,4731.991,529.645Zm0-54.879a26.284,26.284,0,1,0,26.283,26.284A26.315,26.315,0,0,0,4731.991,474.766Z" transform="translate(-4703.396 -472.455)" fill="#1e243a"/>
        </g>
        <g id="Grupo_12737" data-name="Grupo 12737" transform="translate(21.751)">
          <path id="Trazado_20460" data-name="Trazado 20460" d="M4856.8,531.538a29.357,29.357,0,0,1-11.5-2.322,1.155,1.155,0,1,1,.9-2.128,27.234,27.234,0,1,0,10.6-52.322c-.816,0-1.64.036-2.449.108a1.155,1.155,0,0,1-.206-2.3c.877-.078,1.77-.118,2.654-.118a29.541,29.541,0,0,1,0,59.083Z" transform="translate(-4844.596 -472.455)" fill="#1e243a"/>
        </g>
      </g>
      <g id="Grupo_12744" data-name="Grupo 12744" transform="translate(36.47 63.165)">
        <g id="Grupo_12739" data-name="Grupo 12739">
          <path id="Trazado_20461" data-name="Trazado 20461" d="M4901.038,886.813a1.156,1.156,0,0,1-1.156-1.155v-2a1.156,1.156,0,0,1,2.311,0v2A1.155,1.155,0,0,1,4901.038,886.813Z" transform="translate(-4899.882 -882.5)" fill="#1e243a"/>
        </g>
        <g id="Grupo_12740" data-name="Grupo 12740" transform="translate(0 8.626)">
          <path id="Trazado_20462" data-name="Trazado 20462" d="M4901.038,996.112a1.156,1.156,0,0,1-1.156-1.155v-3.7a1.156,1.156,0,0,1,2.311,0v3.7A1.155,1.155,0,0,1,4901.038,996.112Zm0-10.321a1.156,1.156,0,0,1-1.156-1.155v-3.7a1.156,1.156,0,0,1,2.311,0v3.7A1.155,1.155,0,0,1,4901.038,985.791Zm0-10.321a1.156,1.156,0,0,1-1.156-1.155v-3.7a1.156,1.156,0,0,1,2.311,0v3.7A1.155,1.155,0,0,1,4901.038,975.47Zm0-10.321a1.156,1.156,0,0,1-1.156-1.155v-3.7a1.156,1.156,0,0,1,2.311,0v3.7A1.155,1.155,0,0,1,4901.038,965.149Zm0-10.321a1.156,1.156,0,0,1-1.156-1.156v-3.7a1.156,1.156,0,0,1,2.311,0v3.7A1.155,1.155,0,0,1,4901.038,954.829Zm0-10.321a1.156,1.156,0,0,1-1.156-1.155v-3.7a1.156,1.156,0,0,1,2.311,0v3.7A1.155,1.155,0,0,1,4901.038,944.508Z" transform="translate(-4899.882 -938.5)" fill="#1e243a"/>
        </g>
        <g id="Grupo_12741" data-name="Grupo 12741" transform="translate(0 70.86)">
          <path id="Trazado_20463" data-name="Trazado 20463" d="M4902.963,1346.736h-1.925a1.156,1.156,0,0,1-1.156-1.155v-1.926a1.156,1.156,0,0,1,2.311,0v.77h.77a1.155,1.155,0,1,1,0,2.31Z" transform="translate(-4899.882 -1342.5)" fill="#1e243a"/>
        </g>
        <g id="Grupo_12742" data-name="Grupo 12742" transform="translate(8.858 72.785)">
          <path id="Trazado_20464" data-name="Trazado 20464" d="M5016.3,1357.311h-3.851a1.155,1.155,0,0,1,0-2.311h3.851a1.155,1.155,0,0,1,0,2.311Zm-10.783,0h-3.851a1.155,1.155,0,0,1,0-2.311h3.851a1.155,1.155,0,0,1,0,2.311Zm-10.783,0h-3.851a1.155,1.155,0,1,1,0-2.311h3.851a1.155,1.155,0,1,1,0,2.311Zm-10.783,0H4980.1a1.155,1.155,0,1,1,0-2.311h3.851a1.155,1.155,0,0,1,0,2.311Zm-10.783,0h-3.851a1.155,1.155,0,0,1,0-2.311h3.851a1.155,1.155,0,0,1,0,2.311Zm-10.783,0h-3.851a1.155,1.155,0,1,1,0-2.311h3.851a1.155,1.155,0,0,1,0,2.311Z" transform="translate(-4957.383 -1355)" fill="#1e243a"/>
        </g>
        <g id="Grupo_12743" data-name="Grupo 12743" transform="translate(73.71 72.785)">
          <path id="Trazado_20465" data-name="Trazado 20465" d="M5381.541,1357.311h-2a1.155,1.155,0,0,1,0-2.311h2a1.155,1.155,0,1,1,0,2.311Z" transform="translate(-5378.383 -1355)" fill="#1e243a"/>
        </g>
      </g>
      <g id="Grupo_12745" data-name="Grupo 12745" transform="translate(65.266 109.87)">
        <path id="Trazado_20466" data-name="Trazado 20466" d="M5091,1200.031a1.542,1.542,0,0,1-.745-2.047h0a1.541,1.541,0,0,1,2.049-.744h0a1.54,1.54,0,0,1,.742,2.047h0a1.539,1.539,0,0,1-1.4.889h0A1.535,1.535,0,0,1,5091,1200.031Zm4.486-.779a1.538,1.538,0,0,1,.682-2.067h0a1.539,1.539,0,0,1,2.069.684h0a1.538,1.538,0,0,1-.684,2.067h0a1.519,1.519,0,0,1-.69.165h0A1.535,1.535,0,0,1,5095.484,1199.251Zm-8.624-4.3h0a1.54,1.54,0,0,1,1.146-1.853h0a1.54,1.54,0,0,1,1.853,1.144h0a1.541,1.541,0,0,1-1.146,1.853h0a1.557,1.557,0,0,1-.356.042h0A1.541,1.541,0,0,1,5086.861,1194.95Zm12.861.984a1.539,1.539,0,0,1-1.2-1.818h0a1.541,1.541,0,0,1,1.819-1.2h0a1.539,1.539,0,0,1,1.2,1.819h0a1.539,1.539,0,0,1-1.506,1.231h0A1.505,1.505,0,0,1,5099.722,1195.935Zm-11.19-5.217a1.538,1.538,0,0,1-.251-2.163h0a1.54,1.54,0,0,1,2.164-.251h0a1.538,1.538,0,0,1,.251,2.163h0a1.537,1.537,0,0,1-1.209.585h0A1.532,1.532,0,0,1,5088.532,1190.717Zm9.043-.351a1.541,1.541,0,0,1,.189-2.17h0a1.541,1.541,0,0,1,2.171.189h0a1.541,1.541,0,0,1-.19,2.17h0a1.536,1.536,0,0,1-.991.361h0A1.536,1.536,0,0,1,5097.576,1190.366Zm-4.938-3.125a1.54,1.54,0,0,1,1.539-1.541h0a1.541,1.541,0,0,1,1.542,1.541h0a1.54,1.54,0,0,1-1.542,1.54h0A1.539,1.539,0,0,1,5092.637,1187.24Z" transform="translate(-5086.819 -1185.7)" fill="#1e243a"/>
      </g>
      <g id="Grupo_12746" data-name="Grupo 12746" transform="translate(101.135 10.59)">
        <path id="Trazado_20467" data-name="Trazado 20467" d="M5323.849,555.531h0a1.538,1.538,0,0,1-.744-2.047h0a1.539,1.539,0,0,1,2.047-.744h0a1.538,1.538,0,0,1,.744,2.047h0a1.54,1.54,0,0,1-1.4.889h0A1.529,1.529,0,0,1,5323.849,555.531Zm4.483-.779a1.541,1.541,0,0,1,.684-2.067h0a1.54,1.54,0,0,1,2.069.684h0a1.539,1.539,0,0,1-.684,2.067h0a1.524,1.524,0,0,1-.69.165h0A1.541,1.541,0,0,1,5328.332,554.751Zm-8.622-4.3a1.539,1.539,0,0,1,1.145-1.853h0a1.538,1.538,0,0,1,1.853,1.145h0a1.539,1.539,0,0,1-1.145,1.853h0a1.562,1.562,0,0,1-.355.042h0A1.542,1.542,0,0,1,5319.71,550.45Zm12.861.984a1.539,1.539,0,0,1-1.2-1.818h0a1.543,1.543,0,0,1,1.82-1.2h0a1.54,1.54,0,0,1,1.2,1.819h0a1.54,1.54,0,0,1-1.506,1.231h0A1.533,1.533,0,0,1,5332.571,551.435Zm-11.189-5.217a1.539,1.539,0,0,1-.251-2.163h0a1.541,1.541,0,0,1,2.165-.251h0a1.539,1.539,0,0,1,.25,2.163h0a1.536,1.536,0,0,1-1.209.585h0A1.532,1.532,0,0,1,5321.382,546.217Zm9.044-.351a1.54,1.54,0,0,1,.188-2.169h0a1.539,1.539,0,0,1,2.17.188h0a1.539,1.539,0,0,1-.187,2.17h0a1.539,1.539,0,0,1-.99.361h0A1.536,1.536,0,0,1,5330.426,545.866Zm-4.94-3.125a1.541,1.541,0,0,1,1.541-1.54h0a1.54,1.54,0,0,1,1.54,1.54h0a1.54,1.54,0,0,1-1.54,1.54h0A1.541,1.541,0,0,1,5325.486,542.74Z" transform="translate(-5319.669 -541.2)" fill="#1e243a"/>
      </g>
      <g id="Grupo_12747" data-name="Grupo 12747" transform="translate(0 73.498)">
        <path id="Trazado_20468" data-name="Trazado 20468" d="M4667.309,963.911a1.54,1.54,0,0,1-.744-2.047h0a1.54,1.54,0,0,1,2.048-.744h0a1.54,1.54,0,0,1,.744,2.047h0a1.539,1.539,0,0,1-1.4.889h0A1.533,1.533,0,0,1,4667.309,963.911Zm4.485-.779a1.538,1.538,0,0,1,.684-2.067h0a1.538,1.538,0,0,1,2.068.684h0a1.539,1.539,0,0,1-.684,2.067h0a1.532,1.532,0,0,1-.691.165h0A1.537,1.537,0,0,1,4671.794,963.131Zm-8.624-4.3a1.542,1.542,0,0,1,1.146-1.855h0a1.544,1.544,0,0,1,1.854,1.146h0a1.54,1.54,0,0,1-1.146,1.853h0a1.561,1.561,0,0,1-.354.042h0A1.542,1.542,0,0,1,4663.17,958.83Zm12.861.984a1.54,1.54,0,0,1-1.2-1.818h0a1.541,1.541,0,0,1,1.82-1.2h0a1.542,1.542,0,0,1,1.2,1.819h0a1.544,1.544,0,0,1-1.508,1.231h0A1.544,1.544,0,0,1,4676.032,959.815Zm-11.19-5.216a1.541,1.541,0,0,1-.251-2.164h0a1.542,1.542,0,0,1,2.165-.253h0a1.54,1.54,0,0,1,.25,2.164h0a1.534,1.534,0,0,1-1.209.585h0A1.539,1.539,0,0,1,4664.842,954.6Zm9.043-.353h0a1.541,1.541,0,0,1,.19-2.17h0a1.541,1.541,0,0,1,2.17.189h0a1.542,1.542,0,0,1-.189,2.171h0a1.538,1.538,0,0,1-.99.36h0A1.537,1.537,0,0,1,4673.885,954.246Zm-4.938-3.125a1.54,1.54,0,0,1,1.541-1.54h0a1.541,1.541,0,0,1,1.54,1.54h0a1.541,1.541,0,0,1-1.54,1.54h0A1.54,1.54,0,0,1,4668.947,951.12Z" transform="translate(-4663.129 -949.58)" fill="#1e243a"/>
      </g>
      <g id="Grupo_12748" data-name="Grupo 12748" transform="translate(65.266 178.803)">
        <path id="Trazado_20469" data-name="Trazado 20469" d="M5091,1647.521a1.541,1.541,0,0,1-.745-2.049h0a1.54,1.54,0,0,1,2.047-.742h0a1.539,1.539,0,0,1,.744,2.047h0a1.541,1.541,0,0,1-1.4.889h0A1.533,1.533,0,0,1,5091,1647.521Zm4.486-.78a1.538,1.538,0,0,1,.684-2.069h0a1.539,1.539,0,0,1,2.067.684h0a1.539,1.539,0,0,1-.684,2.069h0a1.521,1.521,0,0,1-.69.165h0A1.538,1.538,0,0,1,5095.484,1646.741Zm-8.624-4.3a1.541,1.541,0,0,1,1.146-1.853h0a1.541,1.541,0,0,1,1.853,1.146h0a1.54,1.54,0,0,1-1.146,1.853h0a1.56,1.56,0,0,1-.356.042h0A1.542,1.542,0,0,1,5086.861,1642.439Zm12.861.986a1.541,1.541,0,0,1-1.2-1.819h0a1.54,1.54,0,0,1,1.819-1.2h0a1.539,1.539,0,0,1,1.2,1.819h0a1.539,1.539,0,0,1-1.506,1.231h0A1.524,1.524,0,0,1,5099.722,1643.425Zm-11.19-5.218a1.538,1.538,0,0,1-.251-2.163h0a1.539,1.539,0,0,1,2.164-.253h0a1.54,1.54,0,0,1,.251,2.164h0a1.54,1.54,0,0,1-1.209.584h0A1.529,1.529,0,0,1,5088.532,1638.207Zm9.043-.351h0a1.541,1.541,0,0,1,.189-2.17h0a1.542,1.542,0,0,1,2.171.189h0a1.541,1.541,0,0,1-.19,2.171h0a1.536,1.536,0,0,1-.991.36h0A1.54,1.54,0,0,1,5097.576,1637.856Zm-4.94-3.125a1.542,1.542,0,0,1,1.542-1.541h0a1.541,1.541,0,0,1,1.54,1.541h0a1.541,1.541,0,0,1-1.54,1.54h0A1.541,1.541,0,0,1,5092.636,1634.73Z" transform="translate(-5086.819 -1633.19)" fill="#1e243a"/>
      </g>
      <g id="Grupo_12751" data-name="Grupo 12751" transform="translate(14.057 168.838)">
        <g id="Grupo_12749" data-name="Grupo 12749" transform="translate(3.928)">
          <path id="Trazado_20470" data-name="Trazado 20470" d="M4781.037,1578.667a1.156,1.156,0,0,1-1.155-1.155v-7.856a1.155,1.155,0,1,1,2.311,0v7.856A1.155,1.155,0,0,1,4781.037,1578.667Z" transform="translate(-4779.882 -1568.5)" fill="#1e243a"/>
        </g>
        <g id="Grupo_12750" data-name="Grupo 12750" transform="translate(0 3.928)">
          <path id="Trazado_20471" data-name="Trazado 20471" d="M4763.394,1596.311h-7.856a1.155,1.155,0,1,1,0-2.311h7.856a1.155,1.155,0,0,1,0,2.311Z" transform="translate(-4754.382 -1594)" fill="#1e243a"/>
        </g>
      </g>
      <g id="Grupo_12754" data-name="Grupo 12754" transform="translate(70.437 59.93)">
        <g id="Grupo_12752" data-name="Grupo 12752" transform="translate(3.928)">
          <path id="Trazado_20472" data-name="Trazado 20472" d="M5147.037,871.667a1.155,1.155,0,0,1-1.155-1.155v-7.856a1.155,1.155,0,1,1,2.31,0v7.856A1.154,1.154,0,0,1,5147.037,871.667Z" transform="translate(-5145.882 -861.5)" fill="#1e243a"/>
        </g>
        <g id="Grupo_12753" data-name="Grupo 12753" transform="translate(0 3.928)">
          <path id="Trazado_20473" data-name="Trazado 20473" d="M5129.395,889.311h-7.856a1.155,1.155,0,0,1,0-2.311h7.856a1.155,1.155,0,0,1,0,2.311Z" transform="translate(-5120.383 -887)" fill="#1e243a"/>
        </g>
      </g>
      <g id="Grupo_12757" data-name="Grupo 12757" transform="translate(228.177 34.05)">
        <g id="Grupo_12755" data-name="Grupo 12755" transform="translate(3.928)">
          <path id="Trazado_20474" data-name="Trazado 20474" d="M6171.037,703.667a1.156,1.156,0,0,1-1.155-1.155v-7.856a1.156,1.156,0,0,1,2.311,0v7.856A1.156,1.156,0,0,1,6171.037,703.667Z" transform="translate(-6169.882 -693.5)" fill="#1e243a"/>
        </g>
        <g id="Grupo_12756" data-name="Grupo 12756" transform="translate(0 3.928)">
          <path id="Trazado_20475" data-name="Trazado 20475" d="M6153.395,721.311h-7.857a1.155,1.155,0,0,1,0-2.311h7.857a1.155,1.155,0,0,1,0,2.311Z" transform="translate(-6144.383 -719)" fill="#1e243a"/>
        </g>
      </g>
    </g>
  </g>
</svg>
