<svg xmlns="http://www.w3.org/2000/svg" width="830" height="442.328" viewBox="0 0 830 442.328">
  <g id="Grupo_12933" data-name="Grupo 12933" transform="translate(-521 -4514)">
    <path id="Trazado_20665" data-name="Trazado 20665" d="M0,0H266V388H0Z" transform="translate(521 4514)" fill="#ffd571"/>
    <path id="Trazado_20666" data-name="Trazado 20666" d="M0,0H266V291H0Z" transform="translate(803 4611)" fill="#5fe0ed"/>
    <path id="Trazado_20671" data-name="Trazado 20671" d="M0,0H266V194H0Z" transform="translate(1085 4708)" fill="#ff5a5a"/>
    <path id="Trazado_20667" data-name="Trazado 20667" d="M0,0H149V388H0Z" transform="translate(521 4514)" fill="#fff" opacity="0.164"/>
    <path id="Trazado_20668" data-name="Trazado 20668" d="M0,0H133V291H0Z" transform="translate(803 4611)" fill="rgba(255,255,255,0.23)"/>
    <path id="Trazado_20672" data-name="Trazado 20672" d="M0,0H133V194H0Z" transform="translate(1085 4708)" fill="#fff" opacity="0.139"/>
    <path id="Trazado_20669" data-name="Trazado 20669" d="M-87.15,0h-5.11l-1.624-18.611L-100.138,0h-3.315l-6.255-18.611L-111.349,0h-5.127l2.068-24.695h7.314l5.264,15.5,5.332-15.5h7.314Zm19.021-4.768A16.436,16.436,0,0,0-67.7-.479V0h-4.6l-.393-1.914A5.712,5.712,0,0,1-75.153-.222a9.07,9.07,0,0,1-3.179.564A8.359,8.359,0,0,1-79.972.188,5.577,5.577,0,0,1-81.45-.333a4.486,4.486,0,0,1-1.222-.914,4.009,4.009,0,0,1-.82-1.393A5.548,5.548,0,0,1-83.8-4.546a5.284,5.284,0,0,1,.325-1.906,4.466,4.466,0,0,1,.854-1.427,5.183,5.183,0,0,1,1.384-1.042,10.592,10.592,0,0,1,1.743-.752,20.828,20.828,0,0,1,2.085-.547l2.888-.649a3.185,3.185,0,0,0,1.307-.555,1.108,1.108,0,0,0,.385-.88A1.813,1.813,0,0,0-73.691-14a4.03,4.03,0,0,0-2.094-.513q-3.025,0-3.435,2.683l-4.358-.786a5.9,5.9,0,0,1,2.546-4.008,10.121,10.121,0,0,1,5.52-1.29q7.383,0,7.383,6.34Zm-8.665,1.777a3.958,3.958,0,0,0,3.042-1.273,5.365,5.365,0,0,0,1.179-3.768l-4.17,1.179a4.928,4.928,0,0,0-1.752.718A1.474,1.474,0,0,0-79.1-4.871a1.637,1.637,0,0,0,.649,1.393A2.688,2.688,0,0,0-76.793-2.991Zm24.609-14.578h5.042L-57.977,8.271h-4.99l4.016-8.989L-66.18-17.568h5.366l4.187,11.553ZM-37.059.342A11.047,11.047,0,0,1-42.032-.735,8.047,8.047,0,0,1-45.442-3.9a9.422,9.422,0,0,1-1.239-4.9,8.594,8.594,0,0,1,2.666-6.665,9.89,9.89,0,0,1,6.956-2.444,9.915,9.915,0,0,1,6.973,2.444A8.594,8.594,0,0,1-27.421-8.8a8.642,8.642,0,0,1-2.666,6.691A9.894,9.894,0,0,1-37.059.342Zm-.051-3.914a4.509,4.509,0,0,0,3.478-1.436A5.374,5.374,0,0,0-32.308-8.8,5.374,5.374,0,0,0-33.633-12.6a4.509,4.509,0,0,0-3.478-1.436,4.344,4.344,0,0,0-3.375,1.444A5.424,5.424,0,0,0-41.793-8.8a5.424,5.424,0,0,0,1.307,3.785A4.344,4.344,0,0,0-37.111-3.572Zm18.064-11.211a5.7,5.7,0,0,1,2.307-2.111,7.04,7.04,0,0,1,3.435-.88v4.392a6.655,6.655,0,0,0-4.2,1.06q-1.3,1.06-1.3,3.76V0h-4.956V-17.568h4.717ZM6.862.342A11.047,11.047,0,0,1,1.888-.735,8.047,8.047,0,0,1-1.521-3.9,9.422,9.422,0,0,1-2.76-8.8,8.594,8.594,0,0,1-.094-15.466,9.89,9.89,0,0,1,6.862-17.91a9.915,9.915,0,0,1,6.973,2.444A8.594,8.594,0,0,1,16.5-8.8a8.642,8.642,0,0,1-2.666,6.691A9.894,9.894,0,0,1,6.862.342ZM6.81-3.572a4.509,4.509,0,0,0,3.478-1.436A5.374,5.374,0,0,0,11.613-8.8,5.374,5.374,0,0,0,10.288-12.6,4.509,4.509,0,0,0,6.81-14.031a4.344,4.344,0,0,0-3.375,1.444A5.424,5.424,0,0,0,2.128-8.8,5.424,5.424,0,0,0,3.435-5.016,4.344,4.344,0,0,0,6.81-3.572ZM31.761-20.2a2.763,2.763,0,0,1-2.017-.829,2.721,2.721,0,0,1-.837-2.008,2.688,2.688,0,0,1,.846-1.991,2.772,2.772,0,0,1,2.008-.829,2.724,2.724,0,0,1,1.982.829,2.7,2.7,0,0,1,.837,1.991,2.721,2.721,0,0,1-.837,2.008A2.724,2.724,0,0,1,31.761-20.2ZM29.249,0V-17.568h4.956V0ZM51.4-17.568H56.08V-1.316a13.142,13.142,0,0,1-.658,4.375,7.215,7.215,0,0,1-1.906,3,7.943,7.943,0,0,1-2.922,1.683,12.32,12.32,0,0,1-3.828.547q-6.956,0-9.058-5.452l4.084-1.743a5.96,5.96,0,0,0,1.9,2.546,4.836,4.836,0,0,0,2.888.82q4.563,0,4.563-5.417V-3.008a5.534,5.534,0,0,1-2.213,1.735,7.358,7.358,0,0,1-3.119.658,7.775,7.775,0,0,1-3.085-.624A7.836,7.836,0,0,1,40.17-2.982a8.116,8.116,0,0,1-1.735-2.76A9.685,9.685,0,0,1,37.794-9.3a9.665,9.665,0,0,1,.641-3.563,7.789,7.789,0,0,1,1.743-2.726,8.021,8.021,0,0,1,2.563-1.709,7.911,7.911,0,0,1,3.1-.615,7.144,7.144,0,0,1,3.256.726,5.192,5.192,0,0,1,2.179,1.94ZM43.844-5.947a4.335,4.335,0,0,0,3.23,1.35A4.309,4.309,0,0,0,50.3-5.964,4.626,4.626,0,0,0,51.62-9.3a4.664,4.664,0,0,0-1.307-3.35,4.3,4.3,0,0,0-3.239-1.367,4.306,4.306,0,0,0-3.239,1.342A4.674,4.674,0,0,0,42.545-9.3,4.643,4.643,0,0,0,43.844-5.947ZM72.828-17.568H77.75V0H73.085l-.12-2.119A6.709,6.709,0,0,1,67.377.342a6.849,6.849,0,0,1-4.854-1.581,5.861,5.861,0,0,1-1.692-4.5V-17.568H65.77V-6.8a3.037,3.037,0,0,0,.88,2.41,3.341,3.341,0,0,0,2.281.769,3.962,3.962,0,0,0,2.794-1,4.3,4.3,0,0,0,1.1-3.256ZM97.25-4.768a16.436,16.436,0,0,0,.427,4.29V0h-4.6l-.393-1.914A5.712,5.712,0,0,1,90.226-.222a9.07,9.07,0,0,1-3.179.564A8.359,8.359,0,0,1,85.406.188a5.577,5.577,0,0,1-1.478-.521,4.486,4.486,0,0,1-1.222-.914,4.009,4.009,0,0,1-.82-1.393,5.548,5.548,0,0,1-.308-1.906A5.284,5.284,0,0,1,81.9-6.451a4.466,4.466,0,0,1,.854-1.427,5.183,5.183,0,0,1,1.384-1.042,10.592,10.592,0,0,1,1.743-.752,20.828,20.828,0,0,1,2.085-.547l2.888-.649a3.185,3.185,0,0,0,1.307-.555,1.108,1.108,0,0,0,.385-.88A1.813,1.813,0,0,0,91.687-14a4.03,4.03,0,0,0-2.094-.513q-3.025,0-3.435,2.683L81.8-12.612a5.9,5.9,0,0,1,2.546-4.008,10.121,10.121,0,0,1,5.52-1.29q7.383,0,7.383,6.34ZM88.585-2.991a3.958,3.958,0,0,0,3.042-1.273,5.365,5.365,0,0,0,1.179-3.768l-4.17,1.179a4.928,4.928,0,0,0-1.752.718,1.474,1.474,0,0,0-.607,1.265,1.637,1.637,0,0,0,.649,1.393A2.688,2.688,0,0,0,88.585-2.991ZM102.035,0V-26.25h4.973V0ZM-37.692,35.232a16.435,16.435,0,0,0,.427,4.29V40h-4.6l-.393-1.914a5.712,5.712,0,0,1-2.461,1.692,9.07,9.07,0,0,1-3.179.564,8.359,8.359,0,0,1-1.641-.154,5.577,5.577,0,0,1-1.478-.521,4.486,4.486,0,0,1-1.222-.914,4.009,4.009,0,0,1-.82-1.393,5.548,5.548,0,0,1-.308-1.906,5.284,5.284,0,0,1,.325-1.906,4.466,4.466,0,0,1,.854-1.427A5.183,5.183,0,0,1-50.8,31.079a10.592,10.592,0,0,1,1.743-.752,20.828,20.828,0,0,1,2.085-.547l2.888-.649a3.185,3.185,0,0,0,1.307-.555,1.108,1.108,0,0,0,.385-.88A1.813,1.813,0,0,0-43.254,26a4.03,4.03,0,0,0-2.094-.513q-3.025,0-3.435,2.683l-4.358-.786a5.9,5.9,0,0,1,2.546-4.008,10.121,10.121,0,0,1,5.52-1.29q7.383,0,7.383,6.34Zm-8.665,1.777a3.958,3.958,0,0,0,3.042-1.273,5.365,5.365,0,0,0,1.179-3.768l-4.17,1.179a4.928,4.928,0,0,0-1.752.718,1.474,1.474,0,0,0-.607,1.265,1.637,1.637,0,0,0,.649,1.393A2.688,2.688,0,0,0-46.356,37.009ZM-32.906,40V13.75h4.973V40ZM-5.8,14.98A9.549,9.549,0,0,1-1.2,16.1a8.426,8.426,0,0,1,3.273,3.093,8.294,8.294,0,0,1,1.2,4.384,10.089,10.089,0,0,1-2.2,6.016L-6.622,40h-5.605l6.392-8.357a8.182,8.182,0,0,1-1.111.068,8.079,8.079,0,0,1-3.914-.983,7.716,7.716,0,0,1-2.948-2.863,8.1,8.1,0,0,1-1.136-4.272,7.918,7.918,0,0,1,2.683-6.161A9.278,9.278,0,0,1-5.8,14.98Zm4.443,8.784A4.22,4.22,0,0,0-2.5,20.612a4.216,4.216,0,0,0-3.17-1.2,4.44,4.44,0,0,0-3.2,1.2,4.163,4.163,0,0,0-1.273,3.1,4.224,4.224,0,0,0,1.2,3.179,4.335,4.335,0,0,0,3.23,1.248,4.136,4.136,0,0,0,3.127-1.248A4.463,4.463,0,0,0-1.359,23.765Zm16.44,16.577a7.7,7.7,0,0,1-6.639-3.2q-2.316-3.2-2.316-9.5,0-6.323,2.307-9.5a7.711,7.711,0,0,1,6.648-3.179,7.694,7.694,0,0,1,6.631,3.179q2.307,3.179,2.307,9.5,0,6.306-2.316,9.5A7.685,7.685,0,0,1,15.082,40.342Zm0-4.443a3.247,3.247,0,0,0,2.965-2.025A14.1,14.1,0,0,0,19.1,27.644a14,14,0,0,0-1.06-6.229,3.253,3.253,0,0,0-2.957-2.025q-4.033,0-4.033,8.254T15.082,35.9Zm17.654-9.417A5.523,5.523,0,0,1,28.668,24.8a5.8,5.8,0,0,1,.009-8.16,5.751,5.751,0,0,1,9.818,4.067A5.594,5.594,0,0,1,36.82,24.79,5.529,5.529,0,0,1,32.736,26.482ZM31.488,40.017l12.92-24.729h4.119L35.59,40.017ZM32.736,23.2a2.438,2.438,0,0,0,2.5-2.5,2.373,2.373,0,0,0-.735-1.752,2.507,2.507,0,0,0-3.521-.009,2.365,2.365,0,0,0-.735,1.76,2.466,2.466,0,0,0,2.5,2.5ZM47.45,40.291a5.758,5.758,0,0,1-4.084-9.835,5.58,5.58,0,0,1,4.084-1.683,5.5,5.5,0,0,1,4.05,1.683,5.787,5.787,0,0,1,0,8.143A5.49,5.49,0,0,1,47.45,40.291Zm0-3.3a2.43,2.43,0,0,0,1.76-.718,2.346,2.346,0,0,0,.735-1.743,2.524,2.524,0,0,0-2.5-2.5,2.442,2.442,0,0,0-1.786.718,2.4,2.4,0,0,0-.726,1.777,2.359,2.359,0,0,0,.726,1.743A2.442,2.442,0,0,0,47.45,36.992Z" transform="translate(654 4810)" fill="#273045"/>
    <path id="Trazado_20670" data-name="Trazado 20670" d="M-45.066,0h-5.11L-51.8-18.611-58.054,0H-61.37l-6.255-18.611L-69.265,0h-5.127l2.068-24.695h7.314l5.264,15.5,5.332-15.5H-47.1Zm19.021-4.768a16.436,16.436,0,0,0,.427,4.29V0h-4.6l-.393-1.914A5.712,5.712,0,0,1-33.069-.222a9.07,9.07,0,0,1-3.179.564A8.359,8.359,0,0,1-37.888.188a5.577,5.577,0,0,1-1.478-.521,4.486,4.486,0,0,1-1.222-.914,4.009,4.009,0,0,1-.82-1.393,5.548,5.548,0,0,1-.308-1.906,5.284,5.284,0,0,1,.325-1.906,4.466,4.466,0,0,1,.854-1.427,5.183,5.183,0,0,1,1.384-1.042,10.592,10.592,0,0,1,1.743-.752,20.828,20.828,0,0,1,2.085-.547l2.888-.649a3.185,3.185,0,0,0,1.307-.555,1.108,1.108,0,0,0,.385-.88A1.813,1.813,0,0,0-31.608-14a4.03,4.03,0,0,0-2.094-.513q-3.025,0-3.435,2.683l-4.358-.786a5.9,5.9,0,0,1,2.546-4.008,10.121,10.121,0,0,1,5.52-1.29q7.383,0,7.383,6.34Zm-8.665,1.777a3.958,3.958,0,0,0,3.042-1.273,5.365,5.365,0,0,0,1.179-3.768l-4.17,1.179a4.928,4.928,0,0,0-1.752.718,1.474,1.474,0,0,0-.607,1.265,1.637,1.637,0,0,0,.649,1.393A2.688,2.688,0,0,0-34.709-2.991ZM-10.1-17.568h5.042L-15.894,8.271h-4.99l4.016-8.989L-24.1-17.568h5.366l4.187,11.553ZM5.024.342A11.047,11.047,0,0,1,.051-.735,8.047,8.047,0,0,1-3.358-3.9,9.422,9.422,0,0,1-4.6-8.8a8.594,8.594,0,0,1,2.666-6.665A9.89,9.89,0,0,1,5.024-17.91,9.915,9.915,0,0,1,12-15.466,8.594,8.594,0,0,1,14.663-8.8,8.642,8.642,0,0,1,12-2.111,9.894,9.894,0,0,1,5.024.342ZM4.973-3.572A4.509,4.509,0,0,0,8.451-5.007,5.374,5.374,0,0,0,9.775-8.8,5.374,5.374,0,0,0,8.451-12.6a4.509,4.509,0,0,0-3.478-1.436A4.344,4.344,0,0,0,1.6-12.587,5.424,5.424,0,0,0,.291-8.8,5.424,5.424,0,0,0,1.6-5.016,4.344,4.344,0,0,0,4.973-3.572ZM23.037-14.783a5.7,5.7,0,0,1,2.307-2.111,7.04,7.04,0,0,1,3.435-.88v4.392a6.655,6.655,0,0,0-4.2,1.06q-1.3,1.06-1.3,3.76V0H18.32V-17.568h4.717ZM55.166-4.768a16.435,16.435,0,0,0,.427,4.29V0H51L50.6-1.914A5.712,5.712,0,0,1,48.142-.222a9.07,9.07,0,0,1-3.179.564A8.359,8.359,0,0,1,43.323.188a5.577,5.577,0,0,1-1.478-.521,4.486,4.486,0,0,1-1.222-.914A4.009,4.009,0,0,1,39.8-2.64a5.548,5.548,0,0,1-.308-1.906,5.284,5.284,0,0,1,.325-1.906,4.466,4.466,0,0,1,.854-1.427,5.183,5.183,0,0,1,1.384-1.042A10.592,10.592,0,0,1,43.8-9.673a20.828,20.828,0,0,1,2.085-.547l2.888-.649a3.185,3.185,0,0,0,1.307-.555,1.108,1.108,0,0,0,.385-.88A1.813,1.813,0,0,0,49.6-14a4.03,4.03,0,0,0-2.094-.513q-3.025,0-3.435,2.683l-4.358-.786a5.9,5.9,0,0,1,2.546-4.008,10.121,10.121,0,0,1,5.52-1.29q7.383,0,7.383,6.34ZM46.5-2.991a3.958,3.958,0,0,0,3.042-1.273,5.365,5.365,0,0,0,1.179-3.768l-4.17,1.179a4.928,4.928,0,0,0-1.752.718,1.474,1.474,0,0,0-.607,1.265,1.637,1.637,0,0,0,.649,1.393A2.688,2.688,0,0,0,46.5-2.991ZM59.951,0V-26.25h4.973V0ZM-95.233,31.711a8.051,8.051,0,0,1-.726,3.469,8.186,8.186,0,0,1-2,2.743,9.415,9.415,0,0,1-2.931,1.76,9.72,9.72,0,0,1-3.5.641,9.7,9.7,0,0,1-3.563-.658,8.775,8.775,0,0,1-2.888-1.8,8.377,8.377,0,0,1-1.906-2.743,8.354,8.354,0,0,1-.7-3.392,10.263,10.263,0,0,1,2.188-6.033l7.69-10.391h5.588l-6.409,8.357a8.326,8.326,0,0,1,1.128-.068,8.051,8.051,0,0,1,3.033.581,8.214,8.214,0,0,1,2.555,1.615,7.472,7.472,0,0,1,1.769,2.572A8.638,8.638,0,0,1-95.233,31.711Zm-4.819-.12a4.219,4.219,0,0,0-1.2-3.187,4.351,4.351,0,0,0-3.23-1.239,4.171,4.171,0,0,0-3.127,1.248,4.407,4.407,0,0,0-1.248,3.11,4.226,4.226,0,0,0,1.145,3.17,4.244,4.244,0,0,0,3.179,1.2,4.451,4.451,0,0,0,3.213-1.2A4.17,4.17,0,0,0-100.052,31.592Zm16.15-7.6q9.485,0,9.485,7.793a8.324,8.324,0,0,1-2.393,6.246,8.647,8.647,0,0,1-6.306,2.333,10.461,10.461,0,0,1-4.418-.914,7.623,7.623,0,0,1-3.2-2.717,7.277,7.277,0,0,1-1.213-4.161,7.683,7.683,0,0,1,.1-1.23l4.888-.222a7.224,7.224,0,0,0-.12,1.094,3.325,3.325,0,0,0,1.111,2.726,4.186,4.186,0,0,0,2.751.914A3.792,3.792,0,0,0-80.348,34.8a3.914,3.914,0,0,0,1.008-2.828,3.52,3.52,0,0,0-1.23-2.888,6.589,6.589,0,0,0-4.136-1.008h-6.477l1.025-12.766H-75.58V19.7H-85.731l-.325,4.29Zm18.167,2.5A5.523,5.523,0,0,1-69.8,24.8a5.586,5.586,0,0,1-1.675-4.093,5.56,5.56,0,0,1,1.683-4.067,5.518,5.518,0,0,1,4.059-1.692,5.537,5.537,0,0,1,4.076,1.692,5.56,5.56,0,0,1,1.683,4.067,5.594,5.594,0,0,1-1.675,4.084A5.529,5.529,0,0,1-65.736,26.482Zm-1.248,13.535,12.92-24.729h4.119L-62.882,40.017ZM-65.736,23.2a2.406,2.406,0,0,0,1.786-.718,2.429,2.429,0,0,0,.709-1.777,2.373,2.373,0,0,0-.735-1.752,2.416,2.416,0,0,0-1.76-.726,2.43,2.43,0,0,0-1.76.718,2.365,2.365,0,0,0-.735,1.76,2.4,2.4,0,0,0,.726,1.777A2.422,2.422,0,0,0-65.736,23.2Zm14.714,17.09a5.563,5.563,0,0,1-4.1-1.683A5.566,5.566,0,0,1-56.8,34.531a5.537,5.537,0,0,1,1.692-4.076,5.58,5.58,0,0,1,4.084-1.683,5.5,5.5,0,0,1,4.05,1.683A5.566,5.566,0,0,1-45.3,34.531,5.574,5.574,0,0,1-46.971,38.6,5.49,5.49,0,0,1-51.022,40.291Zm0-3.3a2.43,2.43,0,0,0,1.76-.718,2.346,2.346,0,0,0,.735-1.743,2.388,2.388,0,0,0-.743-1.76,2.41,2.41,0,0,0-1.752-.735,2.442,2.442,0,0,0-1.786.718,2.4,2.4,0,0,0-.726,1.777,2.359,2.359,0,0,0,.726,1.743A2.442,2.442,0,0,0-51.022,36.992Zm30.334-14.561h5.042l-10.835,25.84h-4.99l4.016-8.989-7.229-16.851h5.366l4.187,11.553Zm37.546-.342a6.712,6.712,0,0,1,4.529,1.427,5.106,5.106,0,0,1,1.658,4.093V40H18.124V29.011a2.935,2.935,0,0,0-.786-2.222,2.753,2.753,0,0,0-1.982-.752,3.175,3.175,0,0,0-2.393.957,4.347,4.347,0,0,0-.923,3.093V40H7.067V29.063A3.013,3.013,0,0,0,6.281,26.8a2.8,2.8,0,0,0-2.034-.76,3.074,3.074,0,0,0-2.375,1.008,4.815,4.815,0,0,0-.923,3.3V40h-4.9V22.432h4.9V24.5a5.974,5.974,0,0,1,5.093-2.41,7.512,7.512,0,0,1,3.307.675,4.5,4.5,0,0,1,2.076,1.957A6.212,6.212,0,0,1,16.859,22.09Zm27.5,8.87-.051,1.179H31.283a4.548,4.548,0,0,0,1.4,3.213,4.482,4.482,0,0,0,3.093,1.111,4.319,4.319,0,0,0,2.316-.607,3.729,3.729,0,0,0,1.478-1.769l4.512.667a7.67,7.67,0,0,1-3.076,4.119,9.146,9.146,0,0,1-5.2,1.47,9.511,9.511,0,0,1-6.844-2.418,8.823,8.823,0,0,1-2.538-6.708,8.876,8.876,0,0,1,2.546-6.708,9.228,9.228,0,0,1,6.682-2.452,8.819,8.819,0,0,1,6.306,2.239Q44.34,26.533,44.357,30.959Zm-8.665-5.417a3.889,3.889,0,0,0-4.272,3.384h8.066a3.7,3.7,0,0,0-1.213-2.512A3.846,3.846,0,0,0,35.692,25.542ZM58.473,22.09a6.849,6.849,0,0,1,4.854,1.581,5.861,5.861,0,0,1,1.692,4.5V40H60.079V29.233a3.06,3.06,0,0,0-.88-2.427,3.316,3.316,0,0,0-2.264-.769,4.626,4.626,0,0,0-1.47.222,3.776,3.776,0,0,0-1.23.692,3.059,3.059,0,0,0-.88,1.324,6.125,6.125,0,0,0-.333,2.034V40H48.1V22.432h4.922V24.38A6.769,6.769,0,0,1,58.473,22.09Zm19.5,18.252A11.047,11.047,0,0,1,73,39.265,8.047,8.047,0,0,1,69.59,36.1a9.422,9.422,0,0,1-1.239-4.9,8.594,8.594,0,0,1,2.666-6.665,9.89,9.89,0,0,1,6.956-2.444,9.915,9.915,0,0,1,6.973,2.444A8.594,8.594,0,0,1,87.611,31.2a8.642,8.642,0,0,1-2.666,6.691A9.894,9.894,0,0,1,77.972,40.342Zm-.051-3.914A4.509,4.509,0,0,0,81.4,34.993,5.374,5.374,0,0,0,82.723,31.2,5.374,5.374,0,0,0,81.4,27.4a4.509,4.509,0,0,0-3.478-1.436,4.344,4.344,0,0,0-3.375,1.444A5.424,5.424,0,0,0,73.239,31.2a5.424,5.424,0,0,0,1.307,3.785A4.344,4.344,0,0,0,77.921,36.428Zm19.534,3.914a9.818,9.818,0,0,1-5.127-1.23,5.2,5.2,0,0,1-2.512-3.657l4.119-1.162a3.31,3.31,0,0,0,3.521,2.615,3.636,3.636,0,0,0,1.794-.4,1.4,1.4,0,0,0,.7-1.359,1.437,1.437,0,0,0-.291-.906,2.3,2.3,0,0,0-.9-.649,11.177,11.177,0,0,0-1.2-.461q-.59-.188-1.564-.453t-1.624-.5a10.876,10.876,0,0,1-1.547-.658,6.6,6.6,0,0,1-1.282-.906,3.651,3.651,0,0,1-.957-1.376,4.963,4.963,0,0,1-.333-1.88,4.488,4.488,0,0,1,1.906-3.931,8.514,8.514,0,0,1,4.982-1.333,8.729,8.729,0,0,1,4.6,1.128,5.1,5.1,0,0,1,2.358,3.521l-3.811.854a2.985,2.985,0,0,0-3.127-2.222,3.425,3.425,0,0,0-1.726.393,1.263,1.263,0,0,0-.684,1.162,1.331,1.331,0,0,0,.1.53,1.049,1.049,0,0,0,.359.427,5.234,5.234,0,0,0,.5.325,3.739,3.739,0,0,0,.7.282q.461.145.769.222t.9.231l.914.239q.94.256,1.649.513a9.659,9.659,0,0,1,1.512.718,5.428,5.428,0,0,1,1.324,1.034,4.611,4.611,0,0,1,.863,1.453,5.365,5.365,0,0,1,.342,1.957,5.285,5.285,0,0,1-.59,2.546,4.426,4.426,0,0,1-1.615,1.718,7.861,7.861,0,0,1-2.281.923A11.835,11.835,0,0,1,97.455,40.342ZM-37.692,75.232a16.435,16.435,0,0,0,.427,4.29V80h-4.6l-.393-1.914a5.712,5.712,0,0,1-2.461,1.692,9.07,9.07,0,0,1-3.179.564,8.359,8.359,0,0,1-1.641-.154,5.577,5.577,0,0,1-1.478-.521,4.486,4.486,0,0,1-1.222-.914,4.009,4.009,0,0,1-.82-1.393,5.548,5.548,0,0,1-.308-1.906,5.284,5.284,0,0,1,.325-1.906,4.466,4.466,0,0,1,.854-1.427A5.183,5.183,0,0,1-50.8,71.079a10.592,10.592,0,0,1,1.743-.752,20.828,20.828,0,0,1,2.085-.547l2.888-.649a3.185,3.185,0,0,0,1.307-.555,1.108,1.108,0,0,0,.385-.88A1.813,1.813,0,0,0-43.254,66a4.03,4.03,0,0,0-2.094-.513q-3.025,0-3.435,2.683l-4.358-.786a5.9,5.9,0,0,1,2.546-4.008,10.121,10.121,0,0,1,5.52-1.29q7.383,0,7.383,6.34Zm-8.665,1.777a3.958,3.958,0,0,0,3.042-1.273,5.365,5.365,0,0,0,1.179-3.768l-4.17,1.179a4.928,4.928,0,0,0-1.752.718,1.474,1.474,0,0,0-.607,1.265,1.637,1.637,0,0,0,.649,1.393A2.688,2.688,0,0,0-46.356,77.009ZM-32.906,80V53.75h4.973V80ZM-5.8,54.98A9.549,9.549,0,0,1-1.2,56.1a8.426,8.426,0,0,1,3.273,3.093,8.294,8.294,0,0,1,1.2,4.384,10.089,10.089,0,0,1-2.2,6.016L-6.622,80h-5.605l6.392-8.357a8.182,8.182,0,0,1-1.111.068,8.079,8.079,0,0,1-3.914-.983,7.716,7.716,0,0,1-2.948-2.863,8.1,8.1,0,0,1-1.136-4.272,7.918,7.918,0,0,1,2.683-6.161A9.278,9.278,0,0,1-5.8,54.98Zm4.443,8.784A4.22,4.22,0,0,0-2.5,60.612a4.216,4.216,0,0,0-3.17-1.2,4.44,4.44,0,0,0-3.2,1.2,4.163,4.163,0,0,0-1.273,3.1,4.224,4.224,0,0,0,1.2,3.179,4.335,4.335,0,0,0,3.23,1.248,4.136,4.136,0,0,0,3.127-1.248A4.463,4.463,0,0,0-1.359,63.765Zm16.44,16.577a7.7,7.7,0,0,1-6.639-3.2q-2.316-3.2-2.316-9.5,0-6.323,2.307-9.5a7.711,7.711,0,0,1,6.648-3.179,7.694,7.694,0,0,1,6.631,3.179q2.307,3.179,2.307,9.5,0,6.306-2.316,9.5A7.685,7.685,0,0,1,15.082,80.342Zm0-4.443a3.247,3.247,0,0,0,2.965-2.025A14.1,14.1,0,0,0,19.1,67.644a14,14,0,0,0-1.06-6.229,3.253,3.253,0,0,0-2.957-2.025q-4.033,0-4.033,8.254T15.082,75.9Zm17.654-9.417A5.523,5.523,0,0,1,28.668,64.8a5.8,5.8,0,0,1,.009-8.16,5.751,5.751,0,0,1,9.818,4.067A5.594,5.594,0,0,1,36.82,64.79,5.529,5.529,0,0,1,32.736,66.482ZM31.488,80.017l12.92-24.729h4.119L35.59,80.017ZM32.736,63.2a2.438,2.438,0,0,0,2.5-2.5,2.373,2.373,0,0,0-.735-1.752,2.507,2.507,0,0,0-3.521-.009,2.365,2.365,0,0,0-.735,1.76,2.466,2.466,0,0,0,2.5,2.5ZM47.45,80.291a5.759,5.759,0,1,1,0-11.519,5.5,5.5,0,0,1,4.05,1.683,5.787,5.787,0,0,1,0,8.143A5.49,5.49,0,0,1,47.45,80.291Zm0-3.3a2.43,2.43,0,0,0,1.76-.718,2.346,2.346,0,0,0,.735-1.743,2.524,2.524,0,0,0-2.5-2.5,2.442,2.442,0,0,0-1.786.718,2.4,2.4,0,0,0-.726,1.777,2.359,2.359,0,0,0,.726,1.743A2.442,2.442,0,0,0,47.45,76.992Z" transform="translate(936 4770)" fill="#273045"/>
    <path id="Trazado_20673" data-name="Trazado 20673" d="M-43.511,0h-5.11l-1.624-18.611L-56.5,0h-3.315l-6.255-18.611L-67.71,0h-5.127l2.068-24.695h7.314l5.264,15.5,5.332-15.5h7.314Zm21.14-9.041-.051,1.179H-35.444a4.548,4.548,0,0,0,1.4,3.213A4.482,4.482,0,0,0-30.95-3.538a4.319,4.319,0,0,0,2.316-.607,3.729,3.729,0,0,0,1.478-1.769l4.512.667A7.67,7.67,0,0,1-25.72-1.128a9.146,9.146,0,0,1-5.2,1.47A9.511,9.511,0,0,1-37.76-2.076,8.823,8.823,0,0,1-40.3-8.784a8.876,8.876,0,0,1,2.546-6.708,9.228,9.228,0,0,1,6.682-2.452,8.819,8.819,0,0,1,6.306,2.239Q-22.388-13.467-22.371-9.041Zm-8.665-5.417a3.889,3.889,0,0,0-4.272,3.384h8.066a3.7,3.7,0,0,0-1.213-2.512A3.846,3.846,0,0,0-31.035-14.458ZM-8.254-17.91A6.849,6.849,0,0,1-3.4-16.329a5.861,5.861,0,0,1,1.692,4.5V0H-6.648V-10.767a3.06,3.06,0,0,0-.88-2.427,3.316,3.316,0,0,0-2.264-.769,4.626,4.626,0,0,0-1.47.222,3.776,3.776,0,0,0-1.23.692,3.059,3.059,0,0,0-.88,1.324,6.125,6.125,0,0,0-.333,2.034V0h-4.922V-17.568h4.922v1.948A6.769,6.769,0,0,1-8.254-17.91ZM11.245.342A11.047,11.047,0,0,1,6.272-.735,8.047,8.047,0,0,1,2.863-3.9,9.422,9.422,0,0,1,1.624-8.8,8.594,8.594,0,0,1,4.29-15.466a9.89,9.89,0,0,1,6.956-2.444,9.915,9.915,0,0,1,6.973,2.444A8.594,8.594,0,0,1,20.884-8.8a8.642,8.642,0,0,1-2.666,6.691A9.894,9.894,0,0,1,11.245.342Zm-.051-3.914a4.509,4.509,0,0,0,3.478-1.436A5.374,5.374,0,0,0,16-8.8,5.374,5.374,0,0,0,14.672-12.6a4.509,4.509,0,0,0-3.478-1.436,4.344,4.344,0,0,0-3.375,1.444A5.424,5.424,0,0,0,6.511-8.8,5.424,5.424,0,0,0,7.819-5.016,4.344,4.344,0,0,0,11.194-3.572ZM29.258-14.783a5.7,5.7,0,0,1,2.307-2.111A7.04,7.04,0,0,1,35-17.773v4.392a6.655,6.655,0,0,0-4.2,1.06q-1.3,1.06-1.3,3.76V0H24.541V-17.568h4.717ZM55.166.342A11.047,11.047,0,0,1,50.193-.735,8.047,8.047,0,0,1,46.783-3.9a9.422,9.422,0,0,1-1.239-4.9,8.594,8.594,0,0,1,2.666-6.665,9.89,9.89,0,0,1,6.956-2.444,9.915,9.915,0,0,1,6.973,2.444A8.594,8.594,0,0,1,64.8-8.8a8.642,8.642,0,0,1-2.666,6.691A9.894,9.894,0,0,1,55.166.342Zm-.051-3.914a4.509,4.509,0,0,0,3.478-1.436A5.374,5.374,0,0,0,59.917-8.8,5.374,5.374,0,0,0,58.593-12.6a4.509,4.509,0,0,0-3.478-1.436,4.344,4.344,0,0,0-3.375,1.444A5.424,5.424,0,0,0,50.432-8.8,5.424,5.424,0,0,0,51.74-5.016,4.344,4.344,0,0,0,55.115-3.572ZM-95.558,19.8a2.763,2.763,0,0,1-2.017-.829,2.721,2.721,0,0,1-.837-2.008,2.688,2.688,0,0,1,.846-1.991,2.772,2.772,0,0,1,2.008-.829,2.724,2.724,0,0,1,1.982.829,2.7,2.7,0,0,1,.837,1.991,2.721,2.721,0,0,1-.837,2.008A2.724,2.724,0,0,1-95.558,19.8ZM-98.07,40V22.432h4.956V40Zm22.148-17.568h4.683V38.684a13.142,13.142,0,0,1-.658,4.375,7.215,7.215,0,0,1-1.906,3,7.943,7.943,0,0,1-2.922,1.683,12.32,12.32,0,0,1-3.828.547q-6.956,0-9.058-5.452l4.084-1.743a5.96,5.96,0,0,0,1.9,2.546,4.836,4.836,0,0,0,2.888.82q4.563,0,4.563-5.417V36.992a5.534,5.534,0,0,1-2.213,1.735,7.358,7.358,0,0,1-3.119.658,7.775,7.775,0,0,1-3.085-.624,7.836,7.836,0,0,1-2.555-1.743,8.116,8.116,0,0,1-1.735-2.76,9.685,9.685,0,0,1-.641-3.555,9.665,9.665,0,0,1,.641-3.563,7.789,7.789,0,0,1,1.743-2.726,8.021,8.021,0,0,1,2.563-1.709,7.911,7.911,0,0,1,3.1-.615,7.144,7.144,0,0,1,3.256.726,5.192,5.192,0,0,1,2.179,1.94Zm-7.554,11.621a4.335,4.335,0,0,0,3.23,1.35,4.309,4.309,0,0,0,3.23-1.367A4.626,4.626,0,0,0-75.7,30.7a4.664,4.664,0,0,0-1.307-3.35,4.3,4.3,0,0,0-3.239-1.367,4.306,4.306,0,0,0-3.239,1.342,4.674,4.674,0,0,0-1.29,3.375A4.643,4.643,0,0,0-83.475,34.053Zm28.984-11.621h4.922V40h-4.666l-.12-2.119a6.709,6.709,0,0,1-5.588,2.461A6.849,6.849,0,0,1-64.8,38.761a5.861,5.861,0,0,1-1.692-4.5V22.432h4.939V33.2a3.037,3.037,0,0,0,.88,2.41,3.341,3.341,0,0,0,2.281.769,3.962,3.962,0,0,0,2.794-1,4.3,4.3,0,0,0,1.1-3.256Zm24.421,12.8a16.436,16.436,0,0,0,.427,4.29V40h-4.6l-.393-1.914a5.712,5.712,0,0,1-2.461,1.692,9.07,9.07,0,0,1-3.179.564,8.359,8.359,0,0,1-1.641-.154,5.577,5.577,0,0,1-1.478-.521,4.486,4.486,0,0,1-1.222-.914,4.009,4.009,0,0,1-.82-1.393,5.548,5.548,0,0,1-.308-1.906,5.284,5.284,0,0,1,.325-1.906,4.466,4.466,0,0,1,.854-1.427,5.183,5.183,0,0,1,1.384-1.042,10.592,10.592,0,0,1,1.743-.752,20.828,20.828,0,0,1,2.085-.547l2.888-.649a3.185,3.185,0,0,0,1.307-.555,1.108,1.108,0,0,0,.385-.88A1.813,1.813,0,0,0-35.632,26a4.03,4.03,0,0,0-2.094-.513q-3.025,0-3.435,2.683l-4.358-.786a5.9,5.9,0,0,1,2.546-4.008,10.121,10.121,0,0,1,5.52-1.29q7.383,0,7.383,6.34Zm-8.665,1.777a3.958,3.958,0,0,0,3.042-1.273,5.365,5.365,0,0,0,1.179-3.768l-4.17,1.179a4.928,4.928,0,0,0-1.752.718,1.474,1.474,0,0,0-.607,1.265,1.637,1.637,0,0,0,.649,1.393A2.688,2.688,0,0,0-38.734,37.009ZM-25.284,40V13.75h4.973V40ZM8.28,35.232a16.435,16.435,0,0,0,.427,4.29V40H4.11l-.393-1.914a5.712,5.712,0,0,1-2.461,1.692,9.07,9.07,0,0,1-3.179.564,8.359,8.359,0,0,1-1.641-.154,5.577,5.577,0,0,1-1.478-.521,4.486,4.486,0,0,1-1.222-.914,4.009,4.009,0,0,1-.82-1.393,5.548,5.548,0,0,1-.308-1.906,5.284,5.284,0,0,1,.325-1.906,4.466,4.466,0,0,1,.854-1.427,5.183,5.183,0,0,1,1.384-1.042,10.592,10.592,0,0,1,1.743-.752A20.828,20.828,0,0,1-1,29.78l2.888-.649A3.185,3.185,0,0,0,3.2,28.575a1.108,1.108,0,0,0,.385-.88A1.813,1.813,0,0,0,2.717,26a4.03,4.03,0,0,0-2.094-.513q-3.025,0-3.435,2.683l-4.358-.786A5.9,5.9,0,0,1-4.623,23.38,10.121,10.121,0,0,1,.9,22.09q7.383,0,7.383,6.34ZM-.385,37.009a3.958,3.958,0,0,0,3.042-1.273,5.365,5.365,0,0,0,1.179-3.768l-4.17,1.179a4.928,4.928,0,0,0-1.752.718,1.474,1.474,0,0,0-.607,1.265,1.637,1.637,0,0,0,.649,1.393A2.688,2.688,0,0,0-.385,37.009ZM13.065,40V13.75h4.973V40ZM49.21,31.711a8.051,8.051,0,0,1-.726,3.469,8.186,8.186,0,0,1-2,2.743,9.415,9.415,0,0,1-2.931,1.76,9.937,9.937,0,0,1-7.067-.017,8.775,8.775,0,0,1-2.888-1.8,8.489,8.489,0,0,1-2.606-6.135A10.263,10.263,0,0,1,33.18,25.7l7.69-10.391h5.588L40.05,23.662a8.326,8.326,0,0,1,1.128-.068,8.051,8.051,0,0,1,3.033.581,8.214,8.214,0,0,1,2.555,1.615,7.473,7.473,0,0,1,1.769,2.572A8.638,8.638,0,0,1,49.21,31.711Zm-4.819-.12a4.219,4.219,0,0,0-1.2-3.187,4.351,4.351,0,0,0-3.23-1.239,4.171,4.171,0,0,0-3.127,1.248,4.407,4.407,0,0,0-1.248,3.11A4.052,4.052,0,0,0,39.913,35.9a4.451,4.451,0,0,0,3.213-1.2A4.17,4.17,0,0,0,44.391,31.592Zm16.15-7.6q9.485,0,9.485,7.793a8.324,8.324,0,0,1-2.393,6.246,8.647,8.647,0,0,1-6.306,2.333,10.461,10.461,0,0,1-4.418-.914,7.623,7.623,0,0,1-3.2-2.717,7.277,7.277,0,0,1-1.213-4.161,7.683,7.683,0,0,1,.1-1.23l4.888-.222a7.224,7.224,0,0,0-.12,1.094,3.325,3.325,0,0,0,1.111,2.726,4.186,4.186,0,0,0,2.751.914A3.792,3.792,0,0,0,64.1,34.8,3.914,3.914,0,0,0,65.1,31.968a3.52,3.52,0,0,0-1.23-2.888,6.589,6.589,0,0,0-4.136-1.008H53.26l1.025-12.766H68.864V19.7H58.712l-.325,4.29Zm18.167,2.5A5.523,5.523,0,0,1,74.64,24.8a5.8,5.8,0,0,1,.009-8.16,5.751,5.751,0,0,1,9.818,4.067,5.594,5.594,0,0,1-1.675,4.084A5.529,5.529,0,0,1,78.707,26.482ZM77.46,40.017,90.38,15.288H94.5L81.561,40.017ZM78.707,23.2a2.438,2.438,0,0,0,2.5-2.5,2.373,2.373,0,0,0-.735-1.752,2.507,2.507,0,0,0-3.521-.009,2.365,2.365,0,0,0-.735,1.76,2.466,2.466,0,0,0,2.5,2.5Zm14.714,17.09a5.758,5.758,0,0,1-4.084-9.835,5.58,5.58,0,0,1,4.084-1.683,5.5,5.5,0,0,1,4.05,1.683,5.787,5.787,0,0,1,0,8.143A5.49,5.49,0,0,1,93.422,40.291Zm0-3.3a2.43,2.43,0,0,0,1.76-.718,2.346,2.346,0,0,0,.735-1.743,2.524,2.524,0,0,0-2.5-2.5,2.442,2.442,0,0,0-1.786.718,2.4,2.4,0,0,0-.726,1.777,2.359,2.359,0,0,0,.726,1.743A2.442,2.442,0,0,0,93.422,36.992Z" transform="translate(1219 4810)" fill="#273045"/>
    <path id="Trazado_20679" data-name="Trazado 20679" d="M9.119.273A9.545,9.545,0,0,1,3.637-1.237,6.059,6.059,0,0,1,.971-5.469l4.238-.971a3.6,3.6,0,0,0,1.306,2.5,4.332,4.332,0,0,0,2.769.868,3.576,3.576,0,0,0,2.16-.608,2.052,2.052,0,0,0,.82-1.8,1.917,1.917,0,0,0-.7-1.463,4.556,4.556,0,0,0-1.388-.9q-.69-.267-2.222-.731-.205-.068-.3-.1-.779-.246-1.258-.41T5.216-9.536a7.875,7.875,0,0,1-1.148-.574,8.408,8.408,0,0,1-.95-.711,3.724,3.724,0,0,1-.793-.909,4.83,4.83,0,0,1-.479-1.135,5.008,5.008,0,0,1-.191-1.408,5.289,5.289,0,0,1,.923-3.11,5.652,5.652,0,0,1,2.488-1.982,9.056,9.056,0,0,1,3.562-.663,11.251,11.251,0,0,1,2.577.287,9.027,9.027,0,0,1,2.3.882,5.643,5.643,0,0,1,1.839,1.627,6.117,6.117,0,0,1,1.046,2.4l-3.965.984a3.212,3.212,0,0,0-3.555-2.83,3.892,3.892,0,0,0-2.2.574,1.946,1.946,0,0,0-.861,1.736q0,1.08,1.436,1.75a21.392,21.392,0,0,0,2.748.943q.807.246,1.313.41t1.271.479a8.835,8.835,0,0,1,1.244.608,9.206,9.206,0,0,1,1.039.759,4.086,4.086,0,0,1,.882.984,5.323,5.323,0,0,1,.54,1.224A5.114,5.114,0,0,1,16.5-5.687a5.989,5.989,0,0,1-.4,2.229,4.85,4.85,0,0,1-1.087,1.682A6.312,6.312,0,0,1,13.385-.622a7.926,7.926,0,0,1-2.01.684A11.559,11.559,0,0,1,9.119.273Zm17.2,0A8.838,8.838,0,0,1,22.34-.588a6.437,6.437,0,0,1-2.728-2.529,7.538,7.538,0,0,1-.991-3.924,6.875,6.875,0,0,1,2.133-5.332,7.912,7.912,0,0,1,5.564-1.955A7.932,7.932,0,0,1,31.9-12.373a6.875,6.875,0,0,1,2.133,5.332A6.913,6.913,0,0,1,31.9-1.688,7.915,7.915,0,0,1,26.318.273Zm-.041-3.131A3.608,3.608,0,0,0,29.06-4.006a4.3,4.3,0,0,0,1.06-3.035,4.3,4.3,0,0,0-1.06-3.035,3.608,3.608,0,0,0-2.782-1.148,3.476,3.476,0,0,0-2.7,1.155,4.339,4.339,0,0,0-1.046,3.028,4.339,4.339,0,0,0,1.046,3.028A3.476,3.476,0,0,0,26.277-2.857ZM45.213-14.328a6.8,6.8,0,0,1,2.611.506,6.516,6.516,0,0,1,2.153,1.429,6.512,6.512,0,0,1,1.456,2.317A8.548,8.548,0,0,1,51.967-7a8.548,8.548,0,0,1-.533,3.076,6.512,6.512,0,0,1-1.456,2.317A6.516,6.516,0,0,1,47.824-.178a6.8,6.8,0,0,1-2.611.506,6.07,6.07,0,0,1-2.659-.567,3.931,3.931,0,0,1-1.771-1.593L40.688,0H36.955V-21h3.938v8.654a3.924,3.924,0,0,1,1.757-1.463A6.18,6.18,0,0,1,45.213-14.328ZM44.3-2.939A3.542,3.542,0,0,0,46.97-4.047,4.093,4.093,0,0,0,48.029-7a4.112,4.112,0,0,0-1.06-2.967A3.542,3.542,0,0,0,44.3-11.074a3.5,3.5,0,0,0-2.652,1.128A4.113,4.113,0,0,0,40.578-7a4.1,4.1,0,0,0,1.06,2.939A3.505,3.505,0,0,0,44.3-2.939Zm14.41-8.887a4.562,4.562,0,0,1,1.846-1.688,5.632,5.632,0,0,1,2.748-.7v3.514a5.324,5.324,0,0,0-3.363.848A3.7,3.7,0,0,0,58.9-6.85V0H54.934V-14.055h3.773ZM78.75-7.232l-.041.943H68.291a3.639,3.639,0,0,0,1.121,2.57,3.585,3.585,0,0,0,2.475.889,3.455,3.455,0,0,0,1.853-.485A2.983,2.983,0,0,0,74.922-4.73l3.609.533A6.136,6.136,0,0,1,76.07-.9,7.317,7.317,0,0,1,71.914.273a7.609,7.609,0,0,1-5.476-1.935,7.059,7.059,0,0,1-2.03-5.366,7.1,7.1,0,0,1,2.037-5.366,7.383,7.383,0,0,1,5.346-1.962,7.055,7.055,0,0,1,5.045,1.791A7.026,7.026,0,0,1,78.75-7.232Zm-6.932-4.334A3.111,3.111,0,0,0,68.4-8.859h6.453a2.96,2.96,0,0,0-.971-2.01A3.077,3.077,0,0,0,71.818-11.566ZM86.693.273a7.855,7.855,0,0,1-4.1-.984,4.161,4.161,0,0,1-2.01-2.926l3.295-.93a2.648,2.648,0,0,0,2.816,2.092A2.909,2.909,0,0,0,88.129-2.8a1.118,1.118,0,0,0,.561-1.087,1.15,1.15,0,0,0-.232-.725,1.841,1.841,0,0,0-.718-.52,8.943,8.943,0,0,0-.957-.369q-.472-.15-1.251-.362t-1.3-.4A8.7,8.7,0,0,1,83-6.788a5.277,5.277,0,0,1-1.025-.725,2.921,2.921,0,0,1-.766-1.1,3.97,3.97,0,0,1-.267-1.5,3.591,3.591,0,0,1,1.524-3.145,6.811,6.811,0,0,1,3.985-1.066,6.983,6.983,0,0,1,3.678.9,4.084,4.084,0,0,1,1.887,2.816l-3.049.684a2.388,2.388,0,0,0-2.5-1.777,2.74,2.74,0,0,0-1.381.314,1.01,1.01,0,0,0-.547.93,1.065,1.065,0,0,0,.082.424.839.839,0,0,0,.287.342,4.188,4.188,0,0,0,.4.26,2.991,2.991,0,0,0,.561.226q.369.116.615.178t.718.185l.731.191q.752.205,1.319.41a7.727,7.727,0,0,1,1.21.574,4.343,4.343,0,0,1,1.06.827,3.689,3.689,0,0,1,.69,1.162,4.292,4.292,0,0,1,.273,1.565A4.228,4.228,0,0,1,92-2.078,3.541,3.541,0,0,1,90.713-.7a6.288,6.288,0,0,1-1.825.738A9.468,9.468,0,0,1,86.693.273Zm20.139-4.088a13.148,13.148,0,0,0,.342,3.432V0H103.5l-.314-1.531a4.57,4.57,0,0,1-1.969,1.354A7.256,7.256,0,0,1,98.67.273,6.687,6.687,0,0,1,97.357.15a4.462,4.462,0,0,1-1.183-.417A3.589,3.589,0,0,1,95.2-1a3.208,3.208,0,0,1-.656-1.114,4.439,4.439,0,0,1-.246-1.524,4.227,4.227,0,0,1,.26-1.524A3.573,3.573,0,0,1,95.238-6.3a4.147,4.147,0,0,1,1.107-.834,8.473,8.473,0,0,1,1.395-.6,16.663,16.663,0,0,1,1.668-.437l2.311-.52a2.548,2.548,0,0,0,1.046-.444.886.886,0,0,0,.308-.7,1.45,1.45,0,0,0-.69-1.354,3.224,3.224,0,0,0-1.675-.41q-2.42,0-2.748,2.146l-3.486-.629A4.719,4.719,0,0,1,96.51-13.3a8.1,8.1,0,0,1,4.416-1.032q5.906,0,5.906,5.072ZM99.9-2.393a3.167,3.167,0,0,0,2.434-1.019,4.292,4.292,0,0,0,.943-3.015l-3.336.943a3.942,3.942,0,0,0-1.4.574A1.179,1.179,0,0,0,98.055-3.9a1.309,1.309,0,0,0,.52,1.114A2.15,2.15,0,0,0,99.9-2.393ZM110.66,0V-21h3.979V0Zm10.063-16.16a2.211,2.211,0,0,1-1.613-.663,2.177,2.177,0,0,1-.67-1.606,2.15,2.15,0,0,1,.677-1.593,2.217,2.217,0,0,1,1.606-.663,2.179,2.179,0,0,1,1.586.663,2.161,2.161,0,0,1,.67,1.593,2.177,2.177,0,0,1-.67,1.606A2.179,2.179,0,0,1,120.723-16.16ZM118.713,0V-14.055h3.965V0Zm21.26-7.232-.041.943H129.514a3.639,3.639,0,0,0,1.121,2.57,3.585,3.585,0,0,0,2.475.889,3.455,3.455,0,0,0,1.853-.485,2.983,2.983,0,0,0,1.183-1.415l3.609.533A6.136,6.136,0,0,1,137.293-.9,7.317,7.317,0,0,1,133.137.273a7.609,7.609,0,0,1-5.476-1.935,7.059,7.059,0,0,1-2.03-5.366,7.1,7.1,0,0,1,2.037-5.366,7.383,7.383,0,0,1,5.346-1.962,7.055,7.055,0,0,1,5.045,1.791A7.026,7.026,0,0,1,139.973-7.232Zm-6.932-4.334a3.111,3.111,0,0,0-3.418,2.707h6.453a2.96,2.96,0,0,0-.971-2.01A3.077,3.077,0,0,0,133.041-11.566Zm18.225-2.762a5.479,5.479,0,0,1,3.883,1.265,4.689,4.689,0,0,1,1.354,3.6V0h-3.951V-8.613a2.448,2.448,0,0,0-.7-1.941,2.653,2.653,0,0,0-1.812-.615,3.7,3.7,0,0,0-1.176.178,3.021,3.021,0,0,0-.984.554,2.447,2.447,0,0,0-.7,1.06,4.9,4.9,0,0,0-.267,1.627V0h-3.937V-14.055H146.9V-12.5A5.415,5.415,0,0,1,151.266-14.328ZM165.553,0a4.245,4.245,0,0,1-3.172-1.142,4.44,4.44,0,0,1-1.121-3.247v-6.645H158.5v-3.021h.889a2.319,2.319,0,0,0,1.75-.588,3.027,3.027,0,0,0,.561-2.092v-1.859h3.555v4.539h2.9v3.021h-2.9v6.221q0,1.818,1.627,1.818h1.271V0Zm18.813-7.232-.041.943H173.906a3.639,3.639,0,0,0,1.121,2.57,3.585,3.585,0,0,0,2.475.889,3.455,3.455,0,0,0,1.853-.485,2.983,2.983,0,0,0,1.183-1.415l3.609.533A6.136,6.136,0,0,1,181.686-.9,7.317,7.317,0,0,1,177.529.273a7.609,7.609,0,0,1-5.476-1.935,7.059,7.059,0,0,1-2.03-5.366,7.1,7.1,0,0,1,2.037-5.366,7.383,7.383,0,0,1,5.346-1.962,7.055,7.055,0,0,1,5.045,1.791A7.026,7.026,0,0,1,184.365-7.232Zm-6.932-4.334a3.111,3.111,0,0,0-3.418,2.707h6.453a2.96,2.96,0,0,0-.971-2.01A3.077,3.077,0,0,0,177.434-11.566Z" transform="translate(562 4956)" fill="#273045"/>
    <path id="Trazado_20680" data-name="Trazado 20680" d="M9.119.273A9.545,9.545,0,0,1,3.637-1.237,6.059,6.059,0,0,1,.971-5.469l4.238-.971a3.6,3.6,0,0,0,1.306,2.5,4.332,4.332,0,0,0,2.769.868,3.576,3.576,0,0,0,2.16-.608,2.052,2.052,0,0,0,.82-1.8,1.917,1.917,0,0,0-.7-1.463,4.556,4.556,0,0,0-1.388-.9q-.69-.267-2.222-.731-.205-.068-.3-.1-.779-.246-1.258-.41T5.216-9.536a7.875,7.875,0,0,1-1.148-.574,8.408,8.408,0,0,1-.95-.711,3.724,3.724,0,0,1-.793-.909,4.83,4.83,0,0,1-.479-1.135,5.008,5.008,0,0,1-.191-1.408,5.289,5.289,0,0,1,.923-3.11,5.652,5.652,0,0,1,2.488-1.982,9.056,9.056,0,0,1,3.562-.663,11.251,11.251,0,0,1,2.577.287,9.027,9.027,0,0,1,2.3.882,5.643,5.643,0,0,1,1.839,1.627,6.117,6.117,0,0,1,1.046,2.4l-3.965.984a3.212,3.212,0,0,0-3.555-2.83,3.892,3.892,0,0,0-2.2.574,1.946,1.946,0,0,0-.861,1.736q0,1.08,1.436,1.75a21.392,21.392,0,0,0,2.748.943q.807.246,1.313.41t1.271.479a8.835,8.835,0,0,1,1.244.608,9.206,9.206,0,0,1,1.039.759,4.086,4.086,0,0,1,.882.984,5.323,5.323,0,0,1,.54,1.224A5.114,5.114,0,0,1,16.5-5.687a5.989,5.989,0,0,1-.4,2.229,4.85,4.85,0,0,1-1.087,1.682A6.312,6.312,0,0,1,13.385-.622a7.926,7.926,0,0,1-2.01.684A11.559,11.559,0,0,1,9.119.273ZM31.295-3.814a13.148,13.148,0,0,0,.342,3.432V0H27.959l-.314-1.531A4.57,4.57,0,0,1,25.676-.178a7.256,7.256,0,0,1-2.543.451A6.687,6.687,0,0,1,21.82.15a4.462,4.462,0,0,1-1.183-.417A3.589,3.589,0,0,1,19.66-1,3.208,3.208,0,0,1,19-2.112a4.439,4.439,0,0,1-.246-1.524,4.227,4.227,0,0,1,.26-1.524A3.573,3.573,0,0,1,19.7-6.3a4.146,4.146,0,0,1,1.107-.834,8.474,8.474,0,0,1,1.395-.6,16.663,16.663,0,0,1,1.668-.437l2.311-.52a2.548,2.548,0,0,0,1.046-.444.886.886,0,0,0,.308-.7,1.45,1.45,0,0,0-.69-1.354,3.224,3.224,0,0,0-1.675-.41q-2.42,0-2.748,2.146l-3.486-.629A4.719,4.719,0,0,1,20.973-13.3a8.1,8.1,0,0,1,4.416-1.032q5.906,0,5.906,5.072ZM24.363-2.393A3.167,3.167,0,0,0,26.8-3.411a4.292,4.292,0,0,0,.943-3.015L24.4-5.482a3.942,3.942,0,0,0-1.4.574A1.179,1.179,0,0,0,22.518-3.9a1.309,1.309,0,0,0,.52,1.114A2.15,2.15,0,0,0,24.363-2.393ZM40.168,0A4.245,4.245,0,0,1,37-1.142a4.44,4.44,0,0,1-1.121-3.247v-6.645H33.113v-3.021H34a2.319,2.319,0,0,0,1.75-.588,3.027,3.027,0,0,0,.561-2.092v-1.859h3.555v4.539h2.9v3.021h-2.9v6.221q0,1.818,1.627,1.818h1.271V0Zm7.656-16.16a2.211,2.211,0,0,1-1.613-.663,2.177,2.177,0,0,1-.67-1.606,2.15,2.15,0,0,1,.677-1.593,2.217,2.217,0,0,1,1.606-.663,2.179,2.179,0,0,1,1.586.663,2.161,2.161,0,0,1,.67,1.593,2.177,2.177,0,0,1-.67,1.606A2.179,2.179,0,0,1,47.824-16.16ZM45.814,0V-14.055h3.965V0ZM58.8.273a7.855,7.855,0,0,1-4.1-.984,4.161,4.161,0,0,1-2.01-2.926l3.295-.93A2.648,2.648,0,0,0,58.8-2.475,2.909,2.909,0,0,0,60.238-2.8,1.118,1.118,0,0,0,60.8-3.883a1.15,1.15,0,0,0-.232-.725,1.841,1.841,0,0,0-.718-.52,8.942,8.942,0,0,0-.957-.369q-.472-.15-1.251-.362t-1.3-.4A8.7,8.7,0,0,1,55.1-6.788a5.278,5.278,0,0,1-1.025-.725,2.921,2.921,0,0,1-.766-1.1,3.97,3.97,0,0,1-.267-1.5,3.591,3.591,0,0,1,1.524-3.145,6.811,6.811,0,0,1,3.985-1.066,6.983,6.983,0,0,1,3.678.9,4.084,4.084,0,0,1,1.887,2.816l-3.049.684a2.388,2.388,0,0,0-2.5-1.777,2.74,2.74,0,0,0-1.381.314,1.01,1.01,0,0,0-.547.93,1.065,1.065,0,0,0,.082.424.839.839,0,0,0,.287.342,4.187,4.187,0,0,0,.4.26,2.991,2.991,0,0,0,.561.226q.369.116.615.178t.718.185l.731.191q.752.205,1.319.41a7.727,7.727,0,0,1,1.21.574,4.343,4.343,0,0,1,1.06.827,3.689,3.689,0,0,1,.69,1.162,4.292,4.292,0,0,1,.273,1.565,4.228,4.228,0,0,1-.472,2.037A3.541,3.541,0,0,1,62.822-.7,6.288,6.288,0,0,1,61,.034,9.468,9.468,0,0,1,58.8.273ZM75.346-17.855h-.082q-.383,0-.581.007t-.561.048a2.27,2.27,0,0,0-.567.123,2.891,2.891,0,0,0-.472.253,1.259,1.259,0,0,0-.41.41,2.478,2.478,0,0,0-.246.608,3.176,3.176,0,0,0-.1.848v1.5h3.021v3.021H72.324V0H68.4V-11.033H65.652v-3.021H68.4v-1.518a8.219,8.219,0,0,1,.178-1.791,5.45,5.45,0,0,1,.479-1.36,3.184,3.184,0,0,1,.8-.978,4.72,4.72,0,0,1,1.039-.656,5.938,5.938,0,0,1,1.292-.4,11.332,11.332,0,0,1,1.483-.2Q74.4-21,75.346-21Zm13.7,14.041a13.148,13.148,0,0,0,.342,3.432V0H85.709l-.314-1.531A4.57,4.57,0,0,1,83.426-.178a7.256,7.256,0,0,1-2.543.451A6.687,6.687,0,0,1,79.57.15a4.462,4.462,0,0,1-1.183-.417A3.589,3.589,0,0,1,77.41-1a3.208,3.208,0,0,1-.656-1.114,4.439,4.439,0,0,1-.246-1.524,4.227,4.227,0,0,1,.26-1.524A3.573,3.573,0,0,1,77.451-6.3a4.147,4.147,0,0,1,1.107-.834,8.473,8.473,0,0,1,1.395-.6,16.663,16.663,0,0,1,1.668-.437l2.311-.52a2.548,2.548,0,0,0,1.046-.444.886.886,0,0,0,.308-.7,1.45,1.45,0,0,0-.69-1.354,3.224,3.224,0,0,0-1.675-.41q-2.42,0-2.748,2.146l-3.486-.629A4.719,4.719,0,0,1,78.723-13.3a8.1,8.1,0,0,1,4.416-1.032q5.906,0,5.906,5.072ZM82.113-2.393a3.167,3.167,0,0,0,2.434-1.019,4.292,4.292,0,0,0,.943-3.015l-3.336.943a3.942,3.942,0,0,0-1.4.574A1.179,1.179,0,0,0,80.268-3.9a1.309,1.309,0,0,0,.52,1.114A2.15,2.15,0,0,0,82.113-2.393ZM98.916.26a7.509,7.509,0,0,1-5.428-2.023,6.989,6.989,0,0,1-2.105-5.277,6.973,6.973,0,0,1,2.1-5.277,7.533,7.533,0,0,1,5.435-2.01,7.489,7.489,0,0,1,4.553,1.354A6.043,6.043,0,0,1,105.82-9.16l-3.637.4a3.116,3.116,0,0,0-1.176-1.846,3.575,3.575,0,0,0-2.133-.615,3.224,3.224,0,0,0-2.57,1.148,4.5,4.5,0,0,0-.984,3.035A4.508,4.508,0,0,0,96.3-4.013a3.216,3.216,0,0,0,2.57,1.155A3.544,3.544,0,0,0,101-3.473a3.188,3.188,0,0,0,1.183-1.846l3.637.4a6.059,6.059,0,0,1-2.372,3.814A7.458,7.458,0,0,1,98.916.26ZM113.859,0a4.245,4.245,0,0,1-3.172-1.142,4.44,4.44,0,0,1-1.121-3.247v-6.645H106.8v-3.021h.889a2.319,2.319,0,0,0,1.75-.588A3.027,3.027,0,0,0,110-16.734v-1.859h3.555v4.539h2.9v3.021h-2.9v6.221q0,1.818,1.627,1.818h1.271V0ZM126,.273a8.838,8.838,0,0,1-3.979-.861,6.437,6.437,0,0,1-2.728-2.529,7.538,7.538,0,0,1-.991-3.924,6.875,6.875,0,0,1,2.133-5.332A7.912,7.912,0,0,1,126-14.328a7.932,7.932,0,0,1,5.578,1.955,6.875,6.875,0,0,1,2.133,5.332,6.913,6.913,0,0,1-2.133,5.353A7.915,7.915,0,0,1,126,.273Zm-.041-3.131a3.608,3.608,0,0,0,2.782-1.148,4.3,4.3,0,0,0,1.06-3.035,4.3,4.3,0,0,0-1.06-3.035,3.608,3.608,0,0,0-2.782-1.148,3.476,3.476,0,0,0-2.7,1.155,4.339,4.339,0,0,0-1.046,3.028,4.339,4.339,0,0,0,1.046,3.028A3.476,3.476,0,0,0,125.959-2.857Zm14.451-8.969a4.563,4.563,0,0,1,1.846-1.688,5.632,5.632,0,0,1,2.748-.7v3.514a5.324,5.324,0,0,0-3.363.848A3.7,3.7,0,0,0,140.6-6.85V0h-3.965V-14.055h3.773Zm8.914-4.334a2.21,2.21,0,0,1-1.613-.663,2.177,2.177,0,0,1-.67-1.606,2.15,2.15,0,0,1,.677-1.593,2.217,2.217,0,0,1,1.606-.663,2.179,2.179,0,0,1,1.586.663,2.161,2.161,0,0,1,.67,1.593,2.177,2.177,0,0,1-.67,1.606A2.179,2.179,0,0,1,149.324-16.16ZM147.314,0V-14.055h3.965V0ZM161.9.273a8.838,8.838,0,0,1-3.979-.861A6.438,6.438,0,0,1,155.2-3.117a7.538,7.538,0,0,1-.991-3.924,6.875,6.875,0,0,1,2.133-5.332,7.912,7.912,0,0,1,5.564-1.955,7.932,7.932,0,0,1,5.578,1.955,6.875,6.875,0,0,1,2.133,5.332,6.913,6.913,0,0,1-2.133,5.353A7.915,7.915,0,0,1,161.9.273Zm-.041-3.131a3.608,3.608,0,0,0,2.782-1.148,4.3,4.3,0,0,0,1.06-3.035,4.3,4.3,0,0,0-1.06-3.035,3.608,3.608,0,0,0-2.782-1.148,3.476,3.476,0,0,0-2.7,1.155,4.339,4.339,0,0,0-1.046,3.028,4.339,4.339,0,0,0,1.046,3.028A3.476,3.476,0,0,0,161.861-2.857Z" transform="translate(856 4956)" fill="#273045"/>
    <path id="Trazado_20681" data-name="Trazado 20681" d="M16.051-19.756h4.088V0H15.395L6.645-14.123V0H2.557V-19.756H7.246l8.8,14.041ZM31.2.273a8.838,8.838,0,0,1-3.979-.861,6.437,6.437,0,0,1-2.728-2.529A7.538,7.538,0,0,1,23.5-7.041a6.875,6.875,0,0,1,2.133-5.332A7.912,7.912,0,0,1,31.2-14.328a7.932,7.932,0,0,1,5.578,1.955A6.875,6.875,0,0,1,38.91-7.041a6.913,6.913,0,0,1-2.133,5.353A7.915,7.915,0,0,1,31.2.273Zm-.041-3.131A3.608,3.608,0,0,0,33.94-4.006,4.3,4.3,0,0,0,35-7.041a4.3,4.3,0,0,0-1.06-3.035,3.608,3.608,0,0,0-2.782-1.148,3.476,3.476,0,0,0-2.7,1.155,4.339,4.339,0,0,0-1.046,3.028,4.339,4.339,0,0,0,1.046,3.028A3.476,3.476,0,0,0,31.158-2.857ZM54.059.273a7.855,7.855,0,0,1-4.1-.984,4.161,4.161,0,0,1-2.01-2.926l3.295-.93a2.648,2.648,0,0,0,2.816,2.092A2.909,2.909,0,0,0,55.494-2.8a1.118,1.118,0,0,0,.561-1.087,1.15,1.15,0,0,0-.232-.725,1.841,1.841,0,0,0-.718-.52,8.942,8.942,0,0,0-.957-.369q-.472-.15-1.251-.362t-1.3-.4a8.7,8.7,0,0,1-1.237-.526,5.278,5.278,0,0,1-1.025-.725,2.921,2.921,0,0,1-.766-1.1,3.97,3.97,0,0,1-.267-1.5,3.591,3.591,0,0,1,1.524-3.145,6.811,6.811,0,0,1,3.985-1.066,6.983,6.983,0,0,1,3.678.9,4.084,4.084,0,0,1,1.887,2.816l-3.049.684a2.388,2.388,0,0,0-2.5-1.777,2.74,2.74,0,0,0-1.381.314,1.01,1.01,0,0,0-.547.93,1.065,1.065,0,0,0,.082.424.839.839,0,0,0,.287.342,4.187,4.187,0,0,0,.4.26,2.991,2.991,0,0,0,.561.226q.369.116.615.178t.718.185l.731.191q.752.205,1.319.41a7.727,7.727,0,0,1,1.21.574,4.343,4.343,0,0,1,1.06.827,3.689,3.689,0,0,1,.69,1.162,4.292,4.292,0,0,1,.273,1.565,4.228,4.228,0,0,1-.472,2.037A3.541,3.541,0,0,1,58.078-.7a6.288,6.288,0,0,1-1.825.738A9.468,9.468,0,0,1,54.059.273ZM74.2-3.814a13.148,13.148,0,0,0,.342,3.432V0H70.861l-.314-1.531A4.57,4.57,0,0,1,68.578-.178a7.256,7.256,0,0,1-2.543.451A6.687,6.687,0,0,1,64.723.15,4.462,4.462,0,0,1,63.54-.267,3.589,3.589,0,0,1,62.563-1a3.208,3.208,0,0,1-.656-1.114,4.439,4.439,0,0,1-.246-1.524,4.227,4.227,0,0,1,.26-1.524A3.573,3.573,0,0,1,62.6-6.3a4.146,4.146,0,0,1,1.107-.834,8.473,8.473,0,0,1,1.395-.6,16.663,16.663,0,0,1,1.668-.437l2.311-.52A2.548,2.548,0,0,0,70.13-9.14a.886.886,0,0,0,.308-.7,1.45,1.45,0,0,0-.69-1.354,3.224,3.224,0,0,0-1.675-.41q-2.42,0-2.748,2.146l-3.486-.629A4.719,4.719,0,0,1,63.875-13.3a8.1,8.1,0,0,1,4.416-1.032q5.906,0,5.906,5.072ZM67.266-2.393A3.167,3.167,0,0,0,69.7-3.411a4.292,4.292,0,0,0,.943-3.015l-3.336.943a3.942,3.942,0,0,0-1.4.574A1.179,1.179,0,0,0,65.42-3.9a1.309,1.309,0,0,0,.52,1.114A2.15,2.15,0,0,0,67.266-2.393ZM83.07,0A4.245,4.245,0,0,1,79.9-1.142a4.44,4.44,0,0,1-1.121-3.247v-6.645H76.016v-3.021H76.9a2.319,2.319,0,0,0,1.75-.588,3.027,3.027,0,0,0,.561-2.092v-1.859H82.77v4.539h2.9v3.021h-2.9v6.221q0,1.818,1.627,1.818h1.271V0Zm7.656-16.16a2.211,2.211,0,0,1-1.613-.663,2.177,2.177,0,0,1-.67-1.606,2.15,2.15,0,0,1,.677-1.593,2.217,2.217,0,0,1,1.606-.663,2.179,2.179,0,0,1,1.586.663,2.161,2.161,0,0,1,.67,1.593,2.177,2.177,0,0,1-.67,1.606A2.179,2.179,0,0,1,90.727-16.16ZM88.717,0V-14.055h3.965V0Zm12.988.273a7.855,7.855,0,0,1-4.1-.984,4.161,4.161,0,0,1-2.01-2.926l3.295-.93a2.648,2.648,0,0,0,2.816,2.092,2.909,2.909,0,0,0,1.436-.321,1.118,1.118,0,0,0,.561-1.087,1.15,1.15,0,0,0-.232-.725,1.841,1.841,0,0,0-.718-.52,8.943,8.943,0,0,0-.957-.369q-.472-.15-1.251-.362t-1.3-.4a8.7,8.7,0,0,1-1.237-.526,5.277,5.277,0,0,1-1.025-.725,2.921,2.921,0,0,1-.766-1.1,3.97,3.97,0,0,1-.267-1.5,3.591,3.591,0,0,1,1.524-3.145,6.811,6.811,0,0,1,3.985-1.066,6.983,6.983,0,0,1,3.678.9,4.084,4.084,0,0,1,1.887,2.816l-3.049.684a2.388,2.388,0,0,0-2.5-1.777,2.74,2.74,0,0,0-1.381.314,1.01,1.01,0,0,0-.547.93,1.065,1.065,0,0,0,.082.424.839.839,0,0,0,.287.342,4.188,4.188,0,0,0,.4.26,2.991,2.991,0,0,0,.561.226q.369.116.615.178t.718.185l.731.191q.752.205,1.319.41a7.727,7.727,0,0,1,1.21.574,4.343,4.343,0,0,1,1.06.827,3.689,3.689,0,0,1,.69,1.162,4.292,4.292,0,0,1,.273,1.565,4.228,4.228,0,0,1-.472,2.037A3.541,3.541,0,0,1,105.725-.7,6.288,6.288,0,0,1,103.9.034,9.468,9.468,0,0,1,101.705.273Zm16.543-18.129h-.082q-.383,0-.581.007t-.561.048a2.27,2.27,0,0,0-.567.123,2.891,2.891,0,0,0-.472.253,1.259,1.259,0,0,0-.41.41,2.478,2.478,0,0,0-.246.608,3.176,3.176,0,0,0-.1.848v1.5h3.021v3.021h-3.021V0H111.3V-11.033h-2.748v-3.021H111.3v-1.518a8.219,8.219,0,0,1,.178-1.791,5.45,5.45,0,0,1,.479-1.36,3.184,3.184,0,0,1,.8-.978,4.72,4.72,0,0,1,1.039-.656,5.938,5.938,0,0,1,1.292-.4,11.332,11.332,0,0,1,1.483-.2Q117.3-21,118.248-21Zm13.7,14.041a13.149,13.149,0,0,0,.342,3.432V0h-3.678L128.3-1.531a4.57,4.57,0,0,1-1.969,1.354,7.256,7.256,0,0,1-2.543.451A6.687,6.687,0,0,1,122.473.15a4.462,4.462,0,0,1-1.183-.417A3.589,3.589,0,0,1,120.313-1a3.208,3.208,0,0,1-.656-1.114,4.439,4.439,0,0,1-.246-1.524,4.227,4.227,0,0,1,.26-1.524,3.573,3.573,0,0,1,.684-1.142,4.147,4.147,0,0,1,1.107-.834,8.473,8.473,0,0,1,1.395-.6,16.663,16.663,0,0,1,1.668-.437l2.311-.52a2.548,2.548,0,0,0,1.046-.444.886.886,0,0,0,.308-.7,1.45,1.45,0,0,0-.69-1.354,3.224,3.224,0,0,0-1.675-.41q-2.42,0-2.748,2.146l-3.486-.629a4.719,4.719,0,0,1,2.037-3.206,8.1,8.1,0,0,1,4.416-1.032q5.906,0,5.906,5.072Zm-6.932,1.422a3.167,3.167,0,0,0,2.434-1.019,4.292,4.292,0,0,0,.943-3.015l-3.336.943a3.942,3.942,0,0,0-1.4.574A1.179,1.179,0,0,0,123.17-3.9a1.309,1.309,0,0,0,.52,1.114A2.15,2.15,0,0,0,125.016-2.393ZM141.818.26a7.509,7.509,0,0,1-5.428-2.023,6.989,6.989,0,0,1-2.105-5.277,6.973,6.973,0,0,1,2.1-5.277,7.533,7.533,0,0,1,5.435-2.01,7.489,7.489,0,0,1,4.553,1.354,6.043,6.043,0,0,1,2.352,3.814l-3.637.4a3.116,3.116,0,0,0-1.176-1.846,3.575,3.575,0,0,0-2.133-.615,3.224,3.224,0,0,0-2.57,1.148,4.5,4.5,0,0,0-.984,3.035,4.508,4.508,0,0,0,.984,3.028,3.216,3.216,0,0,0,2.57,1.155,3.544,3.544,0,0,0,2.126-.615,3.188,3.188,0,0,0,1.183-1.846l3.637.4a6.059,6.059,0,0,1-2.372,3.814A7.458,7.458,0,0,1,141.818.26ZM156.762,0a4.245,4.245,0,0,1-3.172-1.142,4.44,4.44,0,0,1-1.121-3.247v-6.645h-2.762v-3.021h.889a2.319,2.319,0,0,0,1.75-.588,3.027,3.027,0,0,0,.561-2.092v-1.859h3.555v4.539h2.9v3.021h-2.9v6.221q0,1.818,1.627,1.818h1.271V0ZM168.9.273a8.838,8.838,0,0,1-3.979-.861A6.438,6.438,0,0,1,162.2-3.117a7.538,7.538,0,0,1-.991-3.924,6.875,6.875,0,0,1,2.133-5.332,7.912,7.912,0,0,1,5.564-1.955,7.932,7.932,0,0,1,5.578,1.955,6.875,6.875,0,0,1,2.133,5.332,6.913,6.913,0,0,1-2.133,5.353A7.915,7.915,0,0,1,168.9.273Zm-.041-3.131a3.608,3.608,0,0,0,2.782-1.148,4.3,4.3,0,0,0,1.06-3.035,4.3,4.3,0,0,0-1.06-3.035,3.608,3.608,0,0,0-2.782-1.148,3.476,3.476,0,0,0-2.7,1.155,4.339,4.339,0,0,0-1.046,3.028,4.339,4.339,0,0,0,1.046,3.028A3.476,3.476,0,0,0,168.861-2.857Zm14.451-8.969a4.563,4.563,0,0,1,1.846-1.688,5.632,5.632,0,0,1,2.748-.7v3.514a5.324,5.324,0,0,0-3.363.848A3.7,3.7,0,0,0,183.5-6.85V0h-3.965V-14.055h3.773Zm8.914-4.334a2.21,2.21,0,0,1-1.613-.663,2.177,2.177,0,0,1-.67-1.606,2.15,2.15,0,0,1,.677-1.593,2.217,2.217,0,0,1,1.606-.663,2.179,2.179,0,0,1,1.586.663,2.161,2.161,0,0,1,.67,1.593,2.177,2.177,0,0,1-.67,1.606A2.179,2.179,0,0,1,192.227-16.16ZM190.217,0V-14.055h3.965V0ZM204.8.273a8.838,8.838,0,0,1-3.979-.861A6.438,6.438,0,0,1,198.1-3.117a7.538,7.538,0,0,1-.991-3.924,6.875,6.875,0,0,1,2.133-5.332,7.912,7.912,0,0,1,5.564-1.955,7.932,7.932,0,0,1,5.578,1.955,6.875,6.875,0,0,1,2.133,5.332,6.913,6.913,0,0,1-2.133,5.353A7.915,7.915,0,0,1,204.8.273Zm-.041-3.131a3.608,3.608,0,0,0,2.782-1.148,4.3,4.3,0,0,0,1.06-3.035,4.3,4.3,0,0,0-1.06-3.035,3.608,3.608,0,0,0-2.782-1.148,3.476,3.476,0,0,0-2.7,1.155,4.339,4.339,0,0,0-1.046,3.028,4.339,4.339,0,0,0,1.046,3.028A3.476,3.476,0,0,0,204.764-2.857Z" transform="translate(1112 4956)" fill="#273045"/>
  </g>
</svg>
