<svg xmlns="http://www.w3.org/2000/svg" width="526" height="526" viewBox="0 0 526 526">
  <g id="Grupo_12932" data-name="Grupo 12932" transform="translate(-694 -1715)">
    <path id="Trazado_20659" data-name="Trazado 20659" d="M263,0C408.251,0,526,117.749,526,263S408.251,526,263,526,0,408.251,0,263,117.749,0,263,0Z" transform="translate(694 1715)" fill="#ffd571"/>
    <path id="Trazado_20660" data-name="Trazado 20660" d="M-1150,1534h261.827q1.164,12.342,1.173,25c0,145.251-117.749,263-263,263Z" transform="translate(2107 419)" fill="#ff5a5a"/>
    <path id="Trazado_20662" data-name="Trazado 20662" d="M20.986.684q-7.827,0-12.9-4.136A13.588,13.588,0,0,1,3.008-14.561a13.842,13.842,0,0,1,2.068-7.571,14.172,14.172,0,0,1,5.725-5.11,12.511,12.511,0,0,1-4.084-4.2,10.857,10.857,0,0,1-1.487-5.605,11.585,11.585,0,0,1,4.409-9.417q4.409-3.606,11.348-3.606A17.061,17.061,0,0,1,32.18-46.467a11.6,11.6,0,0,1,4.392,9.417,11.063,11.063,0,0,1-1.436,5.588,12.614,12.614,0,0,1-3.965,4.221,14.1,14.1,0,0,1,5.674,5.11A13.929,13.929,0,0,1,38.9-14.561a14.191,14.191,0,0,1-2.358,8.118,14.844,14.844,0,0,1-6.409,5.315A22.163,22.163,0,0,1,20.986.684Zm0-30.8a6.567,6.567,0,0,0,4.683-1.846,5.977,5.977,0,0,0,1.948-4.512,5.832,5.832,0,0,0-1.948-4.443,6.634,6.634,0,0,0-4.683-1.812,6.661,6.661,0,0,0-4.734,1.812,5.856,5.856,0,0,0-1.931,4.443,5.986,5.986,0,0,0,1.931,4.529A6.626,6.626,0,0,0,20.986-30.112Zm0,21.978a8.253,8.253,0,0,0,5.776-2.085,7.208,7.208,0,0,0,2.29-5.605,7.008,7.008,0,0,0-2.307-5.486,8.309,8.309,0,0,0-5.759-2.068,8.4,8.4,0,0,0-5.828,2.068,7.008,7.008,0,0,0-2.307,5.486,7.182,7.182,0,0,0,2.307,5.605A8.363,8.363,0,0,0,20.986-8.135ZM61.729-32.026q18.97,0,18.97,15.586,0,7.827-4.785,12.493T63.3.718a20.922,20.922,0,0,1-8.835-1.829,15.245,15.245,0,0,1-6.409-5.435,14.554,14.554,0,0,1-2.427-8.323,15.366,15.366,0,0,1,.205-2.461l9.775-.444a14.448,14.448,0,0,0-.239,2.188,6.651,6.651,0,0,0,2.222,5.452,8.373,8.373,0,0,0,5.5,1.829,7.584,7.584,0,0,0,5.742-2.1,7.829,7.829,0,0,0,2.017-5.657,7.041,7.041,0,0,0-2.461-5.776q-2.461-2.017-8.271-2.017H47.168L49.219-49.39H78.374v8.784h-20.3l-.649,8.579Zm36.333,4.99A11.047,11.047,0,0,1,89.927-30.4a11.172,11.172,0,0,1-3.35-8.186,11.12,11.12,0,0,1,3.367-8.135,11.035,11.035,0,0,1,8.118-3.384,11.075,11.075,0,0,1,8.152,3.384,11.12,11.12,0,0,1,3.367,8.135,11.188,11.188,0,0,1-3.35,8.169A11.059,11.059,0,0,1,98.062-27.036ZM95.566.034l25.84-49.458h8.237L103.77.034Zm2.5-33.633a4.813,4.813,0,0,0,3.572-1.436,4.858,4.858,0,0,0,1.418-3.555,4.747,4.747,0,0,0-1.47-3.5,4.831,4.831,0,0,0-3.521-1.453,4.86,4.86,0,0,0-3.521,1.436,4.731,4.731,0,0,0-1.47,3.521,4.8,4.8,0,0,0,1.453,3.555A4.844,4.844,0,0,0,98.062-33.6ZM127.49.581a11.127,11.127,0,0,1-8.2-3.367,11.132,11.132,0,0,1-3.35-8.152,11.075,11.075,0,0,1,3.384-8.152,11.16,11.16,0,0,1,8.169-3.367,11.007,11.007,0,0,1,8.1,3.367,11.132,11.132,0,0,1,3.35,8.152,11.148,11.148,0,0,1-3.35,8.135A10.979,10.979,0,0,1,127.49.581Zm0-6.6a4.86,4.86,0,0,0,3.521-1.436,4.691,4.691,0,0,0,1.47-3.486,4.775,4.775,0,0,0-1.487-3.521,4.82,4.82,0,0,0-3.5-1.47,4.885,4.885,0,0,0-3.572,1.436,4.8,4.8,0,0,0-1.453,3.555,4.718,4.718,0,0,0,1.453,3.486A4.885,4.885,0,0,0,127.49-6.016Z" transform="translate(758.992 1938)" fill="#00223d"/>
    <path id="Trazado_20664" data-name="Trazado 20664" d="M19.551-49.39h9.365V0h-9.81V-39.272L7.759-28.711V-38.828ZM61.729-32.026q18.97,0,18.97,15.586,0,7.827-4.785,12.493T63.3.718a20.922,20.922,0,0,1-8.835-1.829,15.245,15.245,0,0,1-6.409-5.435,14.554,14.554,0,0,1-2.427-8.323,15.366,15.366,0,0,1,.205-2.461l9.775-.444a14.448,14.448,0,0,0-.239,2.188,6.651,6.651,0,0,0,2.222,5.452,8.373,8.373,0,0,0,5.5,1.829,7.584,7.584,0,0,0,5.742-2.1,7.829,7.829,0,0,0,2.017-5.657,7.041,7.041,0,0,0-2.461-5.776q-2.461-2.017-8.271-2.017H47.168L49.219-49.39H78.374v8.784h-20.3l-.649,8.579Zm36.333,4.99A11.047,11.047,0,0,1,89.927-30.4a11.172,11.172,0,0,1-3.35-8.186,11.12,11.12,0,0,1,3.367-8.135,11.035,11.035,0,0,1,8.118-3.384,11.075,11.075,0,0,1,8.152,3.384,11.12,11.12,0,0,1,3.367,8.135,11.188,11.188,0,0,1-3.35,8.169A11.059,11.059,0,0,1,98.062-27.036ZM95.566.034l25.84-49.458h8.237L103.77.034Zm2.5-33.633a4.813,4.813,0,0,0,3.572-1.436,4.858,4.858,0,0,0,1.418-3.555,4.747,4.747,0,0,0-1.47-3.5,4.831,4.831,0,0,0-3.521-1.453,4.86,4.86,0,0,0-3.521,1.436,4.731,4.731,0,0,0-1.47,3.521,4.8,4.8,0,0,0,1.453,3.555A4.844,4.844,0,0,0,98.062-33.6ZM127.49.581a11.127,11.127,0,0,1-8.2-3.367,11.132,11.132,0,0,1-3.35-8.152,11.075,11.075,0,0,1,3.384-8.152,11.16,11.16,0,0,1,8.169-3.367,11.007,11.007,0,0,1,8.1,3.367,11.132,11.132,0,0,1,3.35,8.152,11.148,11.148,0,0,1-3.35,8.135A10.979,10.979,0,0,1,127.49.581Zm0-6.6a4.86,4.86,0,0,0,3.521-1.436,4.691,4.691,0,0,0,1.47-3.486,4.775,4.775,0,0,0-1.487-3.521,4.82,4.82,0,0,0-3.5-1.47,4.885,4.885,0,0,0-3.572,1.436,4.8,4.8,0,0,0-1.453,3.555,4.718,4.718,0,0,0,1.453,3.486A4.885,4.885,0,0,0,127.49-6.016Z" transform="translate(973.241 2141)" fill="#00223d"/>
    <path id="Trazado_20678" data-name="Trazado 20678" d="M8.884.215A8.664,8.664,0,0,1,5.72-.354,7.439,7.439,0,0,1,3.2-1.944,7.167,7.167,0,0,1,1.547-4.469a8.8,8.8,0,0,1-.6-3.3,8.408,8.408,0,0,1,1.031-4.216,7.021,7.021,0,0,1,2.831-2.788,8.476,8.476,0,0,1,4.077-.967,8.237,8.237,0,0,1,4.555,1.257,6.88,6.88,0,0,1,2.782,3.459l-3.008,1.1a4.252,4.252,0,0,0-1.665-2.095,4.756,4.756,0,0,0-2.664-.752,4.559,4.559,0,0,0-3.395,1.354A4.98,4.98,0,0,0,4.157-7.767,4.988,4.988,0,0,0,5.495-4.109,4.554,4.554,0,0,0,8.884-2.75a4.738,4.738,0,0,0,2.659-.757,4.271,4.271,0,0,0,1.67-2.1l3.008,1.1a6.908,6.908,0,0,1-2.782,3.464A8.211,8.211,0,0,1,8.884.215ZM23.6.215a6.944,6.944,0,0,1-3.126-.677,5.058,5.058,0,0,1-2.143-1.987,5.922,5.922,0,0,1-.779-3.083,5.4,5.4,0,0,1,1.676-4.189A6.217,6.217,0,0,1,23.6-11.258a6.232,6.232,0,0,1,4.383,1.536,5.4,5.4,0,0,1,1.676,4.189,5.432,5.432,0,0,1-1.676,4.206A6.219,6.219,0,0,1,23.6.215Zm-.032-2.46a2.835,2.835,0,0,0,2.186-.9,3.378,3.378,0,0,0,.833-2.385,3.378,3.378,0,0,0-.833-2.385,2.835,2.835,0,0,0-2.186-.9,2.731,2.731,0,0,0-2.122.908,3.409,3.409,0,0,0-.822,2.379,3.409,3.409,0,0,0,.822,2.379A2.731,2.731,0,0,0,23.568-2.245Zm21.474-9.013a4.219,4.219,0,0,1,2.847.9,3.209,3.209,0,0,1,1.042,2.573V0H45.837V-6.907a1.845,1.845,0,0,0-.494-1.4A1.731,1.731,0,0,0,44.1-8.776a2,2,0,0,0-1.5.6,2.732,2.732,0,0,0-.58,1.944V0H38.887V-6.875A1.894,1.894,0,0,0,38.393-8.3a1.762,1.762,0,0,0-1.278-.478,1.932,1.932,0,0,0-1.493.634,3.027,3.027,0,0,0-.58,2.073V0H31.958V-11.043h3.083v1.3a3.755,3.755,0,0,1,3.2-1.515,4.722,4.722,0,0,1,2.079.424A2.829,2.829,0,0,1,41.626-9.6,3.9,3.9,0,0,1,45.042-11.258Zm13.374,0a5.371,5.371,0,0,1,2.063.4A5.161,5.161,0,0,1,62.17-9.743a5.054,5.054,0,0,1,1.144,1.821A6.76,6.76,0,0,1,63.733-5.5a6.76,6.76,0,0,1-.419,2.422A5.054,5.054,0,0,1,62.17-1.257,5.161,5.161,0,0,1,60.479-.14a5.371,5.371,0,0,1-2.062.4,4.792,4.792,0,0,1-2-.408,3.131,3.131,0,0,1-1.386-1.16V5.371H51.938V-11.043h2.933l.086,1.482a3.025,3.025,0,0,1,1.38-1.251A4.744,4.744,0,0,1,58.416-11.258Zm-.7,8.948a2.779,2.779,0,0,0,2.089-.865A3.212,3.212,0,0,0,60.64-5.5a3.212,3.212,0,0,0-.833-2.326,2.779,2.779,0,0,0-2.089-.865,2.784,2.784,0,0,0-2.105.881,3.213,3.213,0,0,0-.838,2.31,3.213,3.213,0,0,0,.838,2.31A2.784,2.784,0,0,0,57.718-2.31ZM69.029-9.292a3.585,3.585,0,0,1,1.45-1.327,4.425,4.425,0,0,1,2.159-.553v2.761A4.183,4.183,0,0,0,70-7.745a2.908,2.908,0,0,0-.816,2.363V0H66.064V-11.043h2.965ZM79.535.215a6.944,6.944,0,0,1-3.126-.677,5.058,5.058,0,0,1-2.143-1.987,5.922,5.922,0,0,1-.779-3.083,5.4,5.4,0,0,1,1.676-4.189,6.217,6.217,0,0,1,4.372-1.536,6.232,6.232,0,0,1,4.383,1.536,5.4,5.4,0,0,1,1.676,4.189,5.432,5.432,0,0,1-1.676,4.206A6.219,6.219,0,0,1,79.535.215ZM79.5-2.245a2.835,2.835,0,0,0,2.186-.9,3.378,3.378,0,0,0,.833-2.385,3.378,3.378,0,0,0-.833-2.385,2.835,2.835,0,0,0-2.186-.9,2.731,2.731,0,0,0-2.122.908,3.409,3.409,0,0,0-.822,2.379,3.409,3.409,0,0,0,.822,2.379A2.731,2.731,0,0,0,79.5-2.245Zm21.474-9.013a4.219,4.219,0,0,1,2.847.9,3.209,3.209,0,0,1,1.042,2.573V0h-3.094V-6.907a1.845,1.845,0,0,0-.494-1.4,1.731,1.731,0,0,0-1.246-.473,2,2,0,0,0-1.5.6,2.732,2.732,0,0,0-.58,1.944V0H94.821V-6.875A1.894,1.894,0,0,0,94.327-8.3a1.762,1.762,0,0,0-1.278-.478,1.932,1.932,0,0,0-1.493.634,3.027,3.027,0,0,0-.58,2.073V0H87.893V-11.043h3.083v1.3a3.755,3.755,0,0,1,3.2-1.515,4.722,4.722,0,0,1,2.079.424A2.829,2.829,0,0,1,97.561-9.6,3.9,3.9,0,0,1,100.977-11.258Zm8.476-1.439a1.737,1.737,0,0,1-1.268-.521,1.71,1.71,0,0,1-.526-1.262,1.69,1.69,0,0,1,.532-1.251,1.742,1.742,0,0,1,1.262-.521,1.712,1.712,0,0,1,1.246.521,1.7,1.7,0,0,1,.526,1.251,1.71,1.71,0,0,1-.526,1.262A1.712,1.712,0,0,1,109.452-12.7ZM107.873,0V-11.043h3.115V0Zm10.205.215a6.171,6.171,0,0,1-3.223-.773,3.269,3.269,0,0,1-1.579-2.3l2.589-.73a2.08,2.08,0,0,0,2.213,1.644,2.285,2.285,0,0,0,1.128-.252.879.879,0,0,0,.44-.854.9.9,0,0,0-.183-.569,1.446,1.446,0,0,0-.564-.408,7.026,7.026,0,0,0-.752-.29q-.371-.118-.983-.285t-1.021-.317a6.836,6.836,0,0,1-.972-.414,4.147,4.147,0,0,1-.806-.569,2.3,2.3,0,0,1-.6-.865,3.12,3.12,0,0,1-.209-1.182,2.821,2.821,0,0,1,1.2-2.471,5.352,5.352,0,0,1,3.131-.838,5.487,5.487,0,0,1,2.89.709,3.209,3.209,0,0,1,1.482,2.213l-2.4.537A1.876,1.876,0,0,0,117.9-9.2a2.153,2.153,0,0,0-1.085.247.794.794,0,0,0-.43.73.837.837,0,0,0,.064.333.659.659,0,0,0,.226.269,3.29,3.29,0,0,0,.312.2,2.35,2.35,0,0,0,.44.177q.29.091.483.14l.564.145.575.15q.591.161,1.037.322a6.071,6.071,0,0,1,.951.451,3.412,3.412,0,0,1,.833.65,2.9,2.9,0,0,1,.542.913,3.372,3.372,0,0,1,.215,1.23,3.322,3.322,0,0,1-.371,1.6,2.782,2.782,0,0,1-1.015,1.08,4.941,4.941,0,0,1-1.434.58A7.439,7.439,0,0,1,118.078.215Zm11.913,0a6.944,6.944,0,0,1-3.126-.677,5.058,5.058,0,0,1-2.143-1.987,5.922,5.922,0,0,1-.779-3.083,5.4,5.4,0,0,1,1.676-4.189,6.217,6.217,0,0,1,4.372-1.536,6.232,6.232,0,0,1,4.383,1.536,5.4,5.4,0,0,1,1.676,4.189,5.432,5.432,0,0,1-1.676,4.206A6.219,6.219,0,0,1,129.991.215Zm-.032-2.46a2.835,2.835,0,0,0,2.186-.9,3.378,3.378,0,0,0,.833-2.385,3.378,3.378,0,0,0-.833-2.385,2.835,2.835,0,0,0-2.186-.9,2.731,2.731,0,0,0-2.122.908,3.409,3.409,0,0,0-.822,2.379,3.409,3.409,0,0,0,.822,2.379A2.731,2.731,0,0,0,129.959-2.245ZM142.237.215a6.171,6.171,0,0,1-3.223-.773,3.269,3.269,0,0,1-1.579-2.3l2.589-.73a2.08,2.08,0,0,0,2.213,1.644,2.285,2.285,0,0,0,1.128-.252.879.879,0,0,0,.44-.854.9.9,0,0,0-.183-.569,1.446,1.446,0,0,0-.564-.408,7.026,7.026,0,0,0-.752-.29q-.371-.118-.983-.285T140.3-4.92a6.836,6.836,0,0,1-.972-.414,4.147,4.147,0,0,1-.806-.569,2.3,2.3,0,0,1-.6-.865,3.12,3.12,0,0,1-.209-1.182,2.821,2.821,0,0,1,1.2-2.471,5.352,5.352,0,0,1,3.131-.838,5.487,5.487,0,0,1,2.89.709,3.209,3.209,0,0,1,1.482,2.213l-2.4.537a1.876,1.876,0,0,0-1.966-1.4,2.153,2.153,0,0,0-1.085.247.794.794,0,0,0-.43.73.837.837,0,0,0,.064.333.659.659,0,0,0,.226.269,3.289,3.289,0,0,0,.312.2,2.35,2.35,0,0,0,.44.177q.29.091.483.14l.564.145.575.15q.591.161,1.037.322a6.072,6.072,0,0,1,.951.451,3.412,3.412,0,0,1,.833.65,2.9,2.9,0,0,1,.542.913,3.372,3.372,0,0,1,.215,1.23,3.322,3.322,0,0,1-.371,1.6A2.782,2.782,0,0,1,145.4-.553a4.941,4.941,0,0,1-1.434.58A7.439,7.439,0,0,1,142.237.215ZM160.95-14.029h-.064q-.3,0-.457.005t-.44.038a1.783,1.783,0,0,0-.446.1,2.272,2.272,0,0,0-.371.2.989.989,0,0,0-.322.322,1.947,1.947,0,0,0-.193.478,2.5,2.5,0,0,0-.081.666v1.182h2.374v2.374h-2.374V0h-3.083V-8.669h-2.159v-2.374h2.159v-1.192a6.458,6.458,0,0,1,.14-1.407,4.282,4.282,0,0,1,.376-1.069,2.5,2.5,0,0,1,.628-.768,3.708,3.708,0,0,1,.816-.516,4.665,4.665,0,0,1,1.015-.312,8.9,8.9,0,0,1,1.166-.156q.575-.038,1.316-.038Zm9.066,2.986h3.094V0h-2.933L170.1-1.332A4.217,4.217,0,0,1,166.59.215a4.3,4.3,0,0,1-3.051-.994,3.684,3.684,0,0,1-1.063-2.831v-7.434h3.1v6.768a1.909,1.909,0,0,0,.553,1.515,2.1,2.1,0,0,0,1.434.483,2.49,2.49,0,0,0,1.756-.628,2.7,2.7,0,0,0,.693-2.046Zm12.815-.215a4.3,4.3,0,0,1,3.051.994,3.684,3.684,0,0,1,1.063,2.831V0h-3.1V-6.768a1.923,1.923,0,0,0-.553-1.525,2.084,2.084,0,0,0-1.423-.483,2.908,2.908,0,0,0-.924.14,2.373,2.373,0,0,0-.773.435,1.923,1.923,0,0,0-.553.833,3.85,3.85,0,0,0-.209,1.278V0h-3.094V-11.043h3.094v1.225A4.255,4.255,0,0,1,182.832-11.258ZM194.938.2a5.9,5.9,0,0,1-4.265-1.59,5.491,5.491,0,0,1-1.654-4.146,5.479,5.479,0,0,1,1.649-4.146,5.918,5.918,0,0,1,4.27-1.579,5.884,5.884,0,0,1,3.577,1.063,4.748,4.748,0,0,1,1.848,3l-2.857.312a2.448,2.448,0,0,0-.924-1.45,2.809,2.809,0,0,0-1.676-.483,2.533,2.533,0,0,0-2.02.9,3.538,3.538,0,0,0-.773,2.385,3.542,3.542,0,0,0,.773,2.379,2.526,2.526,0,0,0,2.02.908,2.785,2.785,0,0,0,1.67-.483,2.505,2.505,0,0,0,.929-1.45l2.857.312a4.761,4.761,0,0,1-1.864,3A5.86,5.86,0,0,1,194.938.2Zm9.206-12.9a1.737,1.737,0,0,1-1.268-.521,1.71,1.71,0,0,1-.526-1.262,1.69,1.69,0,0,1,.532-1.251,1.742,1.742,0,0,1,1.262-.521,1.712,1.712,0,0,1,1.246.521,1.7,1.7,0,0,1,.526,1.251,1.71,1.71,0,0,1-.526,1.262A1.712,1.712,0,0,1,204.145-12.7ZM202.565,0V-11.043h3.115V0Zm11.462.215A6.944,6.944,0,0,1,210.9-.462a5.058,5.058,0,0,1-2.143-1.987,5.922,5.922,0,0,1-.779-3.083,5.4,5.4,0,0,1,1.676-4.189,6.217,6.217,0,0,1,4.372-1.536,6.232,6.232,0,0,1,4.383,1.536,5.4,5.4,0,0,1,1.676,4.189,5.432,5.432,0,0,1-1.676,4.206A6.219,6.219,0,0,1,214.027.215ZM214-2.245a2.835,2.835,0,0,0,2.186-.9,3.378,3.378,0,0,0,.833-2.385,3.378,3.378,0,0,0-.833-2.385,2.835,2.835,0,0,0-2.186-.9,2.731,2.731,0,0,0-2.122.908,3.409,3.409,0,0,0-.822,2.379,3.409,3.409,0,0,0,.822,2.379A2.731,2.731,0,0,0,214-2.245Zm14.91-9.013a4.3,4.3,0,0,1,3.051.994,3.684,3.684,0,0,1,1.063,2.831V0h-3.1V-6.768a1.923,1.923,0,0,0-.553-1.525,2.084,2.084,0,0,0-1.423-.483,2.908,2.908,0,0,0-.924.14,2.373,2.373,0,0,0-.773.435,1.923,1.923,0,0,0-.553.833,3.85,3.85,0,0,0-.209,1.278V0h-3.094V-11.043h3.094v1.225A4.255,4.255,0,0,1,228.905-11.258ZM245.072-3a10.331,10.331,0,0,0,.269,2.7V0h-2.89L242.2-1.2A3.591,3.591,0,0,1,240.657-.14a5.7,5.7,0,0,1-2,.354,5.254,5.254,0,0,1-1.031-.1,3.506,3.506,0,0,1-.929-.328,2.82,2.82,0,0,1-.768-.575,2.52,2.52,0,0,1-.516-.875,3.488,3.488,0,0,1-.193-1.2,3.322,3.322,0,0,1,.2-1.2,2.807,2.807,0,0,1,.537-.9,3.258,3.258,0,0,1,.87-.655,6.658,6.658,0,0,1,1.1-.473,13.092,13.092,0,0,1,1.311-.344l1.815-.408a2,2,0,0,0,.822-.349.7.7,0,0,0,.242-.553,1.14,1.14,0,0,0-.542-1.063,2.533,2.533,0,0,0-1.316-.322A1.894,1.894,0,0,0,238.1-7.434l-2.739-.494a3.708,3.708,0,0,1,1.6-2.519,6.362,6.362,0,0,1,3.47-.811q4.641,0,4.641,3.985ZM239.626-1.88a2.488,2.488,0,0,0,1.912-.8,3.372,3.372,0,0,0,.741-2.369l-2.621.741a3.1,3.1,0,0,0-1.1.451.927.927,0,0,0-.381.795,1.029,1.029,0,0,0,.408.875A1.689,1.689,0,0,0,239.626-1.88ZM248.08,0V-16.5h3.126V0Zm16.715-5.683-.032.741h-8.186a2.859,2.859,0,0,0,.881,2.02,2.817,2.817,0,0,0,1.944.7,2.715,2.715,0,0,0,1.456-.381,2.344,2.344,0,0,0,.929-1.112l2.836.419a4.821,4.821,0,0,1-1.934,2.589,5.749,5.749,0,0,1-3.266.924,5.978,5.978,0,0,1-4.3-1.52,5.546,5.546,0,0,1-1.6-4.216,5.579,5.579,0,0,1,1.6-4.216,5.8,5.8,0,0,1,4.2-1.542,5.544,5.544,0,0,1,3.964,1.407A5.52,5.52,0,0,1,264.795-5.683Zm-5.446-3.405a2.445,2.445,0,0,0-2.686,2.127h5.07a2.326,2.326,0,0,0-.763-1.579A2.417,2.417,0,0,0,259.349-9.088Zm11.688,9.3a6.171,6.171,0,0,1-3.223-.773,3.269,3.269,0,0,1-1.579-2.3l2.589-.73a2.08,2.08,0,0,0,2.213,1.644,2.285,2.285,0,0,0,1.128-.252.879.879,0,0,0,.44-.854.9.9,0,0,0-.183-.569,1.446,1.446,0,0,0-.564-.408,7.027,7.027,0,0,0-.752-.29q-.371-.118-.983-.285T269.1-4.92a6.836,6.836,0,0,1-.972-.414,4.146,4.146,0,0,1-.806-.569,2.3,2.3,0,0,1-.6-.865,3.12,3.12,0,0,1-.209-1.182,2.821,2.821,0,0,1,1.2-2.471,5.352,5.352,0,0,1,3.131-.838,5.487,5.487,0,0,1,2.89.709,3.209,3.209,0,0,1,1.482,2.213l-2.4.537a1.876,1.876,0,0,0-1.966-1.4,2.153,2.153,0,0,0-1.085.247.794.794,0,0,0-.43.73.837.837,0,0,0,.064.333.659.659,0,0,0,.226.269,3.291,3.291,0,0,0,.312.2,2.35,2.35,0,0,0,.44.177q.29.091.483.14l.564.145L272-6.8q.591.161,1.037.322a6.07,6.07,0,0,1,.951.451,3.412,3.412,0,0,1,.833.65,2.9,2.9,0,0,1,.542.913,3.373,3.373,0,0,1,.215,1.23,3.322,3.322,0,0,1-.371,1.6,2.782,2.782,0,0,1-1.015,1.08,4.941,4.941,0,0,1-1.434.58A7.439,7.439,0,0,1,271.036.215Z" transform="translate(762 1862)" fill="#00223d"/>
    <path id="Trazado_20677" data-name="Trazado 20677" d="M8.884.215A8.664,8.664,0,0,1,5.72-.354,7.439,7.439,0,0,1,3.2-1.944,7.167,7.167,0,0,1,1.547-4.469a8.8,8.8,0,0,1-.6-3.3,8.408,8.408,0,0,1,1.031-4.216,7.021,7.021,0,0,1,2.831-2.788,8.476,8.476,0,0,1,4.077-.967,8.237,8.237,0,0,1,4.555,1.257,6.88,6.88,0,0,1,2.782,3.459l-3.008,1.1a4.252,4.252,0,0,0-1.665-2.095,4.756,4.756,0,0,0-2.664-.752,4.559,4.559,0,0,0-3.395,1.354A4.98,4.98,0,0,0,4.157-7.767,4.988,4.988,0,0,0,5.495-4.109,4.554,4.554,0,0,0,8.884-2.75a4.738,4.738,0,0,0,2.659-.757,4.271,4.271,0,0,0,1.67-2.1l3.008,1.1a6.908,6.908,0,0,1-2.782,3.464A8.211,8.211,0,0,1,8.884.215ZM23.6.215a6.944,6.944,0,0,1-3.126-.677,5.058,5.058,0,0,1-2.143-1.987,5.922,5.922,0,0,1-.779-3.083,5.4,5.4,0,0,1,1.676-4.189A6.217,6.217,0,0,1,23.6-11.258a6.232,6.232,0,0,1,4.383,1.536,5.4,5.4,0,0,1,1.676,4.189,5.432,5.432,0,0,1-1.676,4.206A6.219,6.219,0,0,1,23.6.215Zm-.032-2.46a2.835,2.835,0,0,0,2.186-.9,3.378,3.378,0,0,0,.833-2.385,3.378,3.378,0,0,0-.833-2.385,2.835,2.835,0,0,0-2.186-.9,2.731,2.731,0,0,0-2.122.908,3.409,3.409,0,0,0-.822,2.379,3.409,3.409,0,0,0,.822,2.379A2.731,2.731,0,0,0,23.568-2.245Zm21.474-9.013a4.219,4.219,0,0,1,2.847.9,3.209,3.209,0,0,1,1.042,2.573V0H45.837V-6.907a1.845,1.845,0,0,0-.494-1.4A1.731,1.731,0,0,0,44.1-8.776a2,2,0,0,0-1.5.6,2.732,2.732,0,0,0-.58,1.944V0H38.887V-6.875A1.894,1.894,0,0,0,38.393-8.3a1.762,1.762,0,0,0-1.278-.478,1.932,1.932,0,0,0-1.493.634,3.027,3.027,0,0,0-.58,2.073V0H31.958V-11.043h3.083v1.3a3.755,3.755,0,0,1,3.2-1.515,4.722,4.722,0,0,1,2.079.424A2.829,2.829,0,0,1,41.626-9.6,3.9,3.9,0,0,1,45.042-11.258Zm13.374,0a5.371,5.371,0,0,1,2.063.4A5.161,5.161,0,0,1,62.17-9.743a5.054,5.054,0,0,1,1.144,1.821A6.76,6.76,0,0,1,63.733-5.5a6.76,6.76,0,0,1-.419,2.422A5.054,5.054,0,0,1,62.17-1.257,5.161,5.161,0,0,1,60.479-.14a5.371,5.371,0,0,1-2.062.4,4.792,4.792,0,0,1-2-.408,3.131,3.131,0,0,1-1.386-1.16V5.371H51.938V-11.043h2.933l.086,1.482a3.025,3.025,0,0,1,1.38-1.251A4.744,4.744,0,0,1,58.416-11.258Zm-.7,8.948a2.779,2.779,0,0,0,2.089-.865A3.212,3.212,0,0,0,60.64-5.5a3.212,3.212,0,0,0-.833-2.326,2.779,2.779,0,0,0-2.089-.865,2.784,2.784,0,0,0-2.105.881,3.213,3.213,0,0,0-.838,2.31,3.213,3.213,0,0,0,.838,2.31A2.784,2.784,0,0,0,57.718-2.31ZM69.029-9.292a3.585,3.585,0,0,1,1.45-1.327,4.425,4.425,0,0,1,2.159-.553v2.761A4.183,4.183,0,0,0,70-7.745a2.908,2.908,0,0,0-.816,2.363V0H66.064V-11.043h2.965ZM79.535.215a6.944,6.944,0,0,1-3.126-.677,5.058,5.058,0,0,1-2.143-1.987,5.922,5.922,0,0,1-.779-3.083,5.4,5.4,0,0,1,1.676-4.189,6.217,6.217,0,0,1,4.372-1.536,6.232,6.232,0,0,1,4.383,1.536,5.4,5.4,0,0,1,1.676,4.189,5.432,5.432,0,0,1-1.676,4.206A6.219,6.219,0,0,1,79.535.215ZM79.5-2.245a2.835,2.835,0,0,0,2.186-.9,3.378,3.378,0,0,0,.833-2.385,3.378,3.378,0,0,0-.833-2.385,2.835,2.835,0,0,0-2.186-.9,2.731,2.731,0,0,0-2.122.908,3.409,3.409,0,0,0-.822,2.379,3.409,3.409,0,0,0,.822,2.379A2.731,2.731,0,0,0,79.5-2.245Zm21.474-9.013a4.219,4.219,0,0,1,2.847.9,3.209,3.209,0,0,1,1.042,2.573V0h-3.094V-6.907a1.845,1.845,0,0,0-.494-1.4,1.731,1.731,0,0,0-1.246-.473,2,2,0,0,0-1.5.6,2.732,2.732,0,0,0-.58,1.944V0H94.821V-6.875A1.894,1.894,0,0,0,94.327-8.3a1.762,1.762,0,0,0-1.278-.478,1.932,1.932,0,0,0-1.493.634,3.027,3.027,0,0,0-.58,2.073V0H87.893V-11.043h3.083v1.3a3.755,3.755,0,0,1,3.2-1.515,4.722,4.722,0,0,1,2.079.424A2.829,2.829,0,0,1,97.561-9.6,3.9,3.9,0,0,1,100.977-11.258Zm8.476-1.439a1.737,1.737,0,0,1-1.268-.521,1.71,1.71,0,0,1-.526-1.262,1.69,1.69,0,0,1,.532-1.251,1.742,1.742,0,0,1,1.262-.521,1.712,1.712,0,0,1,1.246.521,1.7,1.7,0,0,1,.526,1.251,1.71,1.71,0,0,1-.526,1.262A1.712,1.712,0,0,1,109.452-12.7ZM107.873,0V-11.043h3.115V0Zm10.205.215a6.171,6.171,0,0,1-3.223-.773,3.269,3.269,0,0,1-1.579-2.3l2.589-.73a2.08,2.08,0,0,0,2.213,1.644,2.285,2.285,0,0,0,1.128-.252.879.879,0,0,0,.44-.854.9.9,0,0,0-.183-.569,1.446,1.446,0,0,0-.564-.408,7.026,7.026,0,0,0-.752-.29q-.371-.118-.983-.285t-1.021-.317a6.836,6.836,0,0,1-.972-.414,4.147,4.147,0,0,1-.806-.569,2.3,2.3,0,0,1-.6-.865,3.12,3.12,0,0,1-.209-1.182,2.821,2.821,0,0,1,1.2-2.471,5.352,5.352,0,0,1,3.131-.838,5.487,5.487,0,0,1,2.89.709,3.209,3.209,0,0,1,1.482,2.213l-2.4.537A1.876,1.876,0,0,0,117.9-9.2a2.153,2.153,0,0,0-1.085.247.794.794,0,0,0-.43.73.837.837,0,0,0,.064.333.659.659,0,0,0,.226.269,3.29,3.29,0,0,0,.312.2,2.35,2.35,0,0,0,.44.177q.29.091.483.14l.564.145.575.15q.591.161,1.037.322a6.071,6.071,0,0,1,.951.451,3.412,3.412,0,0,1,.833.65,2.9,2.9,0,0,1,.542.913,3.372,3.372,0,0,1,.215,1.23,3.322,3.322,0,0,1-.371,1.6,2.782,2.782,0,0,1-1.015,1.08,4.941,4.941,0,0,1-1.434.58A7.439,7.439,0,0,1,118.078.215Zm11.913,0a6.944,6.944,0,0,1-3.126-.677,5.058,5.058,0,0,1-2.143-1.987,5.922,5.922,0,0,1-.779-3.083,5.4,5.4,0,0,1,1.676-4.189,6.217,6.217,0,0,1,4.372-1.536,6.232,6.232,0,0,1,4.383,1.536,5.4,5.4,0,0,1,1.676,4.189,5.432,5.432,0,0,1-1.676,4.206A6.219,6.219,0,0,1,129.991.215Zm-.032-2.46a2.835,2.835,0,0,0,2.186-.9,3.378,3.378,0,0,0,.833-2.385,3.378,3.378,0,0,0-.833-2.385,2.835,2.835,0,0,0-2.186-.9,2.731,2.731,0,0,0-2.122.908,3.409,3.409,0,0,0-.822,2.379,3.409,3.409,0,0,0,.822,2.379A2.731,2.731,0,0,0,129.959-2.245ZM142.237.215a6.171,6.171,0,0,1-3.223-.773,3.269,3.269,0,0,1-1.579-2.3l2.589-.73a2.08,2.08,0,0,0,2.213,1.644,2.285,2.285,0,0,0,1.128-.252.879.879,0,0,0,.44-.854.9.9,0,0,0-.183-.569,1.446,1.446,0,0,0-.564-.408,7.026,7.026,0,0,0-.752-.29q-.371-.118-.983-.285T140.3-4.92a6.836,6.836,0,0,1-.972-.414,4.147,4.147,0,0,1-.806-.569,2.3,2.3,0,0,1-.6-.865,3.12,3.12,0,0,1-.209-1.182,2.821,2.821,0,0,1,1.2-2.471,5.352,5.352,0,0,1,3.131-.838,5.487,5.487,0,0,1,2.89.709,3.209,3.209,0,0,1,1.482,2.213l-2.4.537a1.876,1.876,0,0,0-1.966-1.4,2.153,2.153,0,0,0-1.085.247.794.794,0,0,0-.43.73.837.837,0,0,0,.064.333.659.659,0,0,0,.226.269,3.289,3.289,0,0,0,.312.2,2.35,2.35,0,0,0,.44.177q.29.091.483.14l.564.145.575.15q.591.161,1.037.322a6.072,6.072,0,0,1,.951.451,3.412,3.412,0,0,1,.833.65,2.9,2.9,0,0,1,.542.913,3.372,3.372,0,0,1,.215,1.23,3.322,3.322,0,0,1-.371,1.6A2.782,2.782,0,0,1,145.4-.553a4.941,4.941,0,0,1-1.434.58A7.439,7.439,0,0,1,142.237.215ZM6.6,30.2a5.9,5.9,0,0,1-4.265-1.59A5.491,5.491,0,0,1,.677,24.468a5.479,5.479,0,0,1,1.649-4.146A5.918,5.918,0,0,1,6.6,18.742a5.884,5.884,0,0,1,3.577,1.063,4.748,4.748,0,0,1,1.848,3l-2.857.312a2.448,2.448,0,0,0-.924-1.45,2.809,2.809,0,0,0-1.676-.483,2.533,2.533,0,0,0-2.02.9,3.538,3.538,0,0,0-.773,2.385,3.542,3.542,0,0,0,.773,2.379,2.526,2.526,0,0,0,2.02.908,2.785,2.785,0,0,0,1.67-.483,2.505,2.505,0,0,0,.929-1.45l2.857.312a4.761,4.761,0,0,1-1.864,3A5.86,5.86,0,0,1,6.6,30.2Zm12.772.011a6.944,6.944,0,0,1-3.126-.677A5.058,5.058,0,0,1,14.1,27.551a5.922,5.922,0,0,1-.779-3.083A5.4,5.4,0,0,1,15,20.278a6.217,6.217,0,0,1,4.372-1.536,6.232,6.232,0,0,1,4.383,1.536,5.4,5.4,0,0,1,1.676,4.189,5.432,5.432,0,0,1-1.676,4.206A6.219,6.219,0,0,1,19.368,30.215Zm-.032-2.46a2.835,2.835,0,0,0,2.186-.9,3.378,3.378,0,0,0,.833-2.385,3.378,3.378,0,0,0-.833-2.385,2.835,2.835,0,0,0-2.186-.9,2.731,2.731,0,0,0-2.122.908,3.409,3.409,0,0,0-.822,2.379,3.409,3.409,0,0,0,.822,2.379A2.731,2.731,0,0,0,19.336,27.755ZM40.81,18.742a4.219,4.219,0,0,1,2.847.9A3.209,3.209,0,0,1,44.7,22.212V30H41.6V23.093a1.845,1.845,0,0,0-.494-1.4,1.731,1.731,0,0,0-1.246-.473,2,2,0,0,0-1.5.6,2.732,2.732,0,0,0-.58,1.944V30H34.654V23.125A1.894,1.894,0,0,0,34.16,21.7a1.762,1.762,0,0,0-1.278-.478,1.932,1.932,0,0,0-1.493.634,3.027,3.027,0,0,0-.58,2.073V30H27.726V18.957h3.083v1.3a3.755,3.755,0,0,1,3.2-1.515,4.722,4.722,0,0,1,2.079.424,2.829,2.829,0,0,1,1.305,1.23A3.9,3.9,0,0,1,40.81,18.742Zm13.374,0a5.371,5.371,0,0,1,2.063.4,5.161,5.161,0,0,1,1.692,1.117,5.054,5.054,0,0,1,1.144,1.821,7.213,7.213,0,0,1,0,4.845,5.054,5.054,0,0,1-1.144,1.821,5.161,5.161,0,0,1-1.692,1.117,5.371,5.371,0,0,1-2.062.4,4.792,4.792,0,0,1-2-.408,3.131,3.131,0,0,1-1.386-1.16v6.682H47.706V18.957h2.933l.086,1.482a3.025,3.025,0,0,1,1.38-1.251A4.744,4.744,0,0,1,54.184,18.742Zm-.7,8.948a2.779,2.779,0,0,0,2.089-.865,3.212,3.212,0,0,0,.833-2.326,3.212,3.212,0,0,0-.833-2.326,2.957,2.957,0,0,0-4.195.016,3.213,3.213,0,0,0-.838,2.31,3.213,3.213,0,0,0,.838,2.31A2.784,2.784,0,0,0,53.485,27.69Zm13.492,2.524a6.944,6.944,0,0,1-3.126-.677,5.058,5.058,0,0,1-2.143-1.987,5.922,5.922,0,0,1-.779-3.083,5.4,5.4,0,0,1,1.676-4.189,7.005,7.005,0,0,1,8.755,0,5.4,5.4,0,0,1,1.676,4.189,5.432,5.432,0,0,1-1.676,4.206A6.219,6.219,0,0,1,66.978,30.215Zm-.032-2.46a2.835,2.835,0,0,0,2.186-.9,3.378,3.378,0,0,0,.833-2.385,3.378,3.378,0,0,0-.833-2.385,2.835,2.835,0,0,0-2.186-.9,2.731,2.731,0,0,0-2.122.908A3.409,3.409,0,0,0,64,24.468a3.409,3.409,0,0,0,.822,2.379A2.731,2.731,0,0,0,66.945,27.755ZM78.3,20.708a3.585,3.585,0,0,1,1.45-1.327,4.425,4.425,0,0,1,2.159-.553v2.761a4.183,4.183,0,0,0-2.643.666,2.908,2.908,0,0,0-.816,2.363V30H75.335V18.957H78.3ZM88.473,30a3.335,3.335,0,0,1-2.492-.9,3.489,3.489,0,0,1-.881-2.551V21.331H82.93V18.957h.7A1.822,1.822,0,0,0,85,18.5a2.378,2.378,0,0,0,.44-1.644V15.391h2.793v3.566h2.277v2.374H88.236v4.888q0,1.429,1.278,1.429h1V30Zm13.449-3a10.331,10.331,0,0,0,.269,2.7V30H99.3l-.247-1.2a3.591,3.591,0,0,1-1.547,1.063,5.7,5.7,0,0,1-2,.354,5.254,5.254,0,0,1-1.031-.1,3.506,3.506,0,0,1-.929-.328,2.82,2.82,0,0,1-.768-.575,2.52,2.52,0,0,1-.516-.875,3.488,3.488,0,0,1-.193-1.2,3.321,3.321,0,0,1,.2-1.2,2.807,2.807,0,0,1,.537-.9,3.258,3.258,0,0,1,.87-.655,6.658,6.658,0,0,1,1.1-.473,13.092,13.092,0,0,1,1.311-.344l1.815-.408a2,2,0,0,0,.822-.349.7.7,0,0,0,.242-.553,1.14,1.14,0,0,0-.542-1.063,2.533,2.533,0,0,0-1.316-.322,1.894,1.894,0,0,0-2.159,1.687l-2.739-.494a3.708,3.708,0,0,1,1.6-2.519,6.362,6.362,0,0,1,3.47-.811q4.641,0,4.641,3.985ZM96.476,28.12a2.488,2.488,0,0,0,1.912-.8,3.372,3.372,0,0,0,.741-2.369l-2.621.741a3.1,3.1,0,0,0-1.1.451.927.927,0,0,0-.381.795,1.029,1.029,0,0,0,.408.875A1.689,1.689,0,0,0,96.476,28.12Zm21.538-9.378a4.219,4.219,0,0,1,2.847.9,3.209,3.209,0,0,1,1.042,2.573V30h-3.094V23.093a1.845,1.845,0,0,0-.494-1.4,1.731,1.731,0,0,0-1.246-.473,2,2,0,0,0-1.5.6,2.732,2.732,0,0,0-.58,1.944V30h-3.126V23.125a1.894,1.894,0,0,0-.494-1.423,1.762,1.762,0,0,0-1.278-.478,1.932,1.932,0,0,0-1.493.634,3.027,3.027,0,0,0-.58,2.073V30H104.93V18.957h3.083v1.3a3.755,3.755,0,0,1,3.2-1.515,4.722,4.722,0,0,1,2.079.424A2.829,2.829,0,0,1,114.6,20.4,3.9,3.9,0,0,1,118.014,18.742ZM135.3,24.317l-.032.741H127.08a2.859,2.859,0,0,0,.881,2.02,2.817,2.817,0,0,0,1.944.7,2.715,2.715,0,0,0,1.456-.381,2.344,2.344,0,0,0,.929-1.112l2.836.419a4.821,4.821,0,0,1-1.934,2.589,5.749,5.749,0,0,1-3.266.924,5.978,5.978,0,0,1-4.3-1.52,5.546,5.546,0,0,1-1.6-4.216,5.579,5.579,0,0,1,1.6-4.216,5.8,5.8,0,0,1,4.2-1.542,5.544,5.544,0,0,1,3.964,1.407A5.52,5.52,0,0,1,135.3,24.317Zm-5.446-3.405a2.445,2.445,0,0,0-2.686,2.127h5.07a2.326,2.326,0,0,0-.763-1.579A2.417,2.417,0,0,0,129.852,20.912Zm14.319-2.17a4.3,4.3,0,0,1,3.051.994,3.684,3.684,0,0,1,1.063,2.831V30h-3.1V23.232a1.923,1.923,0,0,0-.553-1.525,2.084,2.084,0,0,0-1.423-.483,2.908,2.908,0,0,0-.924.14,2.373,2.373,0,0,0-.773.435,1.923,1.923,0,0,0-.553.833,3.85,3.85,0,0,0-.209,1.278V30H137.65V18.957h3.094v1.225A4.255,4.255,0,0,1,144.171,18.742ZM155.4,30a3.335,3.335,0,0,1-2.492-.9,3.489,3.489,0,0,1-.881-2.551V21.331h-2.17V18.957h.7a1.822,1.822,0,0,0,1.375-.462,2.378,2.378,0,0,0,.44-1.644V15.391h2.793v3.566h2.277v2.374H155.16v4.888q0,1.429,1.278,1.429h1V30Zm13.449-3a10.331,10.331,0,0,0,.269,2.7V30h-2.89l-.247-1.2a3.591,3.591,0,0,1-1.547,1.063,5.7,5.7,0,0,1-2,.354,5.254,5.254,0,0,1-1.031-.1,3.506,3.506,0,0,1-.929-.328,2.82,2.82,0,0,1-.768-.575,2.52,2.52,0,0,1-.516-.875,3.488,3.488,0,0,1-.193-1.2,3.322,3.322,0,0,1,.2-1.2,2.807,2.807,0,0,1,.537-.9,3.258,3.258,0,0,1,.87-.655,6.658,6.658,0,0,1,1.1-.473,13.092,13.092,0,0,1,1.311-.344l1.815-.408a2,2,0,0,0,.822-.349.7.7,0,0,0,.242-.553,1.14,1.14,0,0,0-.542-1.063,2.533,2.533,0,0,0-1.316-.322,1.894,1.894,0,0,0-2.159,1.687l-2.739-.494a3.708,3.708,0,0,1,1.6-2.519,6.362,6.362,0,0,1,3.47-.811q4.641,0,4.641,3.985ZM163.4,28.12a2.488,2.488,0,0,0,1.912-.8,3.372,3.372,0,0,0,.741-2.369l-2.621.741a3.1,3.1,0,0,0-1.1.451.927.927,0,0,0-.381.795,1.029,1.029,0,0,0,.408.875A1.689,1.689,0,0,0,163.4,28.12ZM171.854,30V13.5h3.126V30Zm16.715-5.683-.032.741h-8.186a2.859,2.859,0,0,0,.881,2.02,2.817,2.817,0,0,0,1.944.7,2.715,2.715,0,0,0,1.456-.381,2.344,2.344,0,0,0,.929-1.112l2.836.419a4.821,4.821,0,0,1-1.934,2.589,5.749,5.749,0,0,1-3.266.924,5.978,5.978,0,0,1-4.3-1.52,5.546,5.546,0,0,1-1.6-4.216,5.579,5.579,0,0,1,1.6-4.216,5.8,5.8,0,0,1,4.2-1.542,5.544,5.544,0,0,1,3.964,1.407A5.52,5.52,0,0,1,188.568,24.317Zm-5.446-3.405a2.445,2.445,0,0,0-2.686,2.127h5.07a2.326,2.326,0,0,0-.763-1.579A2.417,2.417,0,0,0,183.122,20.912Zm11.688,9.3a6.171,6.171,0,0,1-3.223-.773,3.269,3.269,0,0,1-1.579-2.3l2.589-.73a2.08,2.08,0,0,0,2.213,1.644,2.285,2.285,0,0,0,1.128-.252.879.879,0,0,0,.44-.854.9.9,0,0,0-.183-.569,1.446,1.446,0,0,0-.564-.408,7.026,7.026,0,0,0-.752-.29q-.371-.118-.983-.285t-1.021-.317a6.836,6.836,0,0,1-.972-.414,4.147,4.147,0,0,1-.806-.569,2.3,2.3,0,0,1-.6-.865,3.12,3.12,0,0,1-.209-1.182,2.821,2.821,0,0,1,1.2-2.471,5.352,5.352,0,0,1,3.131-.838,5.487,5.487,0,0,1,2.89.709,3.209,3.209,0,0,1,1.482,2.213l-2.4.537a1.876,1.876,0,0,0-1.966-1.4,2.153,2.153,0,0,0-1.085.247.794.794,0,0,0-.43.73.837.837,0,0,0,.064.333.659.659,0,0,0,.226.269,3.289,3.289,0,0,0,.312.2,2.35,2.35,0,0,0,.44.177q.29.091.483.14l.564.145.575.15q.591.161,1.037.322a6.072,6.072,0,0,1,.951.451,3.412,3.412,0,0,1,.833.65,2.9,2.9,0,0,1,.542.913,3.372,3.372,0,0,1,.215,1.23,3.322,3.322,0,0,1-.371,1.6,2.782,2.782,0,0,1-1.015,1.08,4.941,4.941,0,0,1-1.434.58A7.439,7.439,0,0,1,194.81,30.215Z" transform="translate(981 2017)" fill="#00223d"/>
  </g>
</svg>
