<svg xmlns="http://www.w3.org/2000/svg" width="222.68" height="180.343" viewBox="0 0 222.68 180.343">
  <g id="Grupo_12427" data-name="Grupo 12427" transform="translate(-4665.419 -443.629)">
    <g id="Color" transform="translate(4678.052 482.251)">
      <g id="Grupo_12377" data-name="Grupo 12377" transform="translate(1.16)">
        <rect id="Rectángulo_2307" data-name="Rectángulo 2307" width="84.523" height="27.593" fill="#ffd571"/>
      </g>
      <g id="Grupo_12378" data-name="Grupo 12378" transform="translate(0 42.511)">
        <rect id="Rectángulo_2308" data-name="Rectángulo 2308" width="13.557" height="13.557" fill="#ffd571"/>
      </g>
      <g id="Grupo_12379" data-name="Grupo 12379" transform="translate(0 70.986)">
        <rect id="Rectángulo_2309" data-name="Rectángulo 2309" width="13.557" height="13.557" fill="#ffd571"/>
      </g>
      <g id="Grupo_12380" data-name="Grupo 12380" transform="translate(188.328 89.342)">
        <rect id="Rectángulo_2310" data-name="Rectángulo 2310" width="12.888" height="33.796" fill="#ff5a5a"/>
      </g>
      <g id="Grupo_12381" data-name="Grupo 12381" transform="translate(191.882 5.634)">
        <rect id="Rectángulo_2311" data-name="Rectángulo 2311" width="5.78" height="6.415" fill="#ff5a5a"/>
      </g>
      <g id="Grupo_12382" data-name="Grupo 12382" transform="translate(203.339 45.33)">
        <path id="Trazado_20198" data-name="Trazado 20198" d="M6197.068,1038.161a2.261,2.261,0,1,0,2.189,2.26A2.268,2.268,0,0,0,6197.068,1038.161Z" transform="translate(-6194.878 -1038.161)" fill="#fcd118"/>
      </g>
    </g>
    <g id="CONTRACT" transform="translate(4665.419 443.629)">
      <g id="Grupo_12399" data-name="Grupo 12399" transform="translate(0.207 0)">
        <g id="Grupo_12387" data-name="Grupo 12387">
          <g id="Grupo_12386" data-name="Grupo 12386">
            <g id="Grupo_12383" data-name="Grupo 12383">
              <path id="Trazado_20199" data-name="Trazado 20199" d="M4667.941,582.771a1.1,1.1,0,0,1-.749-.345,1.145,1.145,0,0,1-.311-.784V456.018a12.365,12.365,0,1,1,19.27,10.256h91.438a1.059,1.059,0,0,1,.969,1.488,1.1,1.1,0,0,1,.02.206v113.6a1.089,1.089,0,0,1-1.059,1.094l-109.577.106Zm11.3-137.024A10.263,10.263,0,0,0,4669,456.006V580.582l107.459-.069V468.393h-97.225a1.059,1.059,0,0,1,0-2.118,10.264,10.264,0,0,0,.011-20.528Z" transform="translate(-4666.882 -443.629)" fill="#1e243a"/>
            </g>
            <g id="Grupo_12384" data-name="Grupo 12384" transform="translate(109.615 0.004)">
              <path id="Trazado_20200" data-name="Trazado 20200" d="M5444.208,468.4a1.059,1.059,0,1,1,0-2.118,10.255,10.255,0,1,0,0-20.509,1.059,1.059,0,1,1,0-2.118,12.373,12.373,0,0,1,0,24.745Z" transform="translate(-5443.149 -443.659)" fill="#1e243a"/>
            </g>
            <g id="Grupo_12385" data-name="Grupo 12385" transform="translate(11.367 0.052)">
              <path id="Trazado_20201" data-name="Trazado 20201" d="M4846.723,446.118h-98.282a1.059,1.059,0,0,1,0-2.118h98.282a1.059,1.059,0,0,1,0,2.118Z" transform="translate(-4747.383 -444)" fill="#1e243a"/>
            </g>
          </g>
        </g>
        <g id="Grupo_12388" data-name="Grupo 12388" transform="translate(12.527 37.563)">
          <path id="Trazado_20202" data-name="Trazado 20202" d="M4841.178,739.354h-84.523a1.059,1.059,0,0,1-1.059-1.059V710.7a1.059,1.059,0,0,1,1.059-1.059h84.523a1.059,1.059,0,0,1,1.06,1.059V738.3A1.059,1.059,0,0,1,4841.178,739.354Zm-83.464-2.118h82.406V711.761h-82.406Z" transform="translate(-4755.596 -709.643)" fill="#1e243a"/>
        </g>
        <g id="Grupo_12389" data-name="Grupo 12389" transform="translate(11.367 80.074)">
          <path id="Trazado_20203" data-name="Trazado 20203" d="M4762,1026.37h-13.558a1.059,1.059,0,0,1-1.059-1.059v-13.557a1.059,1.059,0,0,1,1.059-1.059H4762a1.059,1.059,0,0,1,1.059,1.059v13.557A1.059,1.059,0,0,1,4762,1026.37Zm-12.5-2.118h11.439v-11.439H4749.5Z" transform="translate(-4747.383 -1010.695)" fill="#1e243a"/>
        </g>
        <g id="Grupo_12390" data-name="Grupo 12390" transform="translate(11.367 108.549)">
          <path id="Trazado_20204" data-name="Trazado 20204" d="M4762,1228.023h-13.558a1.059,1.059,0,0,1-1.059-1.059v-13.557a1.059,1.059,0,0,1,1.059-1.059H4762a1.059,1.059,0,0,1,1.059,1.059v13.557A1.059,1.059,0,0,1,4762,1228.023Zm-12.5-2.118h11.439v-11.439H4749.5Z" transform="translate(-4747.383 -1212.348)" fill="#1e243a"/>
        </g>
        <g id="Grupo_12393" data-name="Grupo 12393" transform="translate(31.984 83.224)">
          <g id="Grupo_12391" data-name="Grupo 12391">
            <path id="Trazado_20205" data-name="Trazado 20205" d="M4941.041,1035.118h-46.6a1.059,1.059,0,0,1,0-2.118h46.6a1.059,1.059,0,0,1,0,2.118Z" transform="translate(-4893.383 -1033)" fill="#1e243a"/>
          </g>
          <g id="Grupo_12392" data-name="Grupo 12392" transform="translate(0 7.343)">
            <path id="Trazado_20206" data-name="Trazado 20206" d="M4959.539,1087.118h-65.1a1.059,1.059,0,0,1,0-2.118h65.1a1.059,1.059,0,1,1,0,2.118Z" transform="translate(-4893.383 -1085)" fill="#1e243a"/>
          </g>
        </g>
        <g id="Grupo_12396" data-name="Grupo 12396" transform="translate(31.984 111.607)">
          <g id="Grupo_12394" data-name="Grupo 12394">
            <path id="Trazado_20207" data-name="Trazado 20207" d="M4941.041,1236.118h-46.6a1.059,1.059,0,0,1,0-2.118h46.6a1.059,1.059,0,0,1,0,2.118Z" transform="translate(-4893.383 -1234)" fill="#1e243a"/>
          </g>
          <g id="Grupo_12395" data-name="Grupo 12395" transform="translate(0 7.343)">
            <path id="Trazado_20208" data-name="Trazado 20208" d="M4959.539,1288.118h-65.1a1.059,1.059,0,0,1,0-2.118h65.1a1.059,1.059,0,0,1,0,2.118Z" transform="translate(-4893.383 -1286)" fill="#1e243a"/>
          </g>
        </g>
        <g id="Grupo_12397" data-name="Grupo 12397" transform="translate(36.644 22.646)">
          <path id="Trazado_20209" data-name="Trazado 20209" d="M4946.787,606.118h-19.345a1.059,1.059,0,1,1,0-2.118h19.345a1.059,1.059,0,1,1,0,2.118Z" transform="translate(-4926.383 -604)" fill="#1e243a"/>
        </g>
        <g id="Grupo_12398" data-name="Grupo 12398" transform="translate(26.9 137.024)">
          <path id="Trazado_20210" data-name="Trazado 20210" d="M4904.193,1416.118h-45.751a1.059,1.059,0,0,1,0-2.118h45.751a1.059,1.059,0,1,1,0,2.118Z" transform="translate(-4857.383 -1414)" fill="#1e243a"/>
        </g>
      </g>
      <g id="Grupo_12407" data-name="Grupo 12407" transform="translate(199.902 43.198)">
        <g id="Grupo_12400" data-name="Grupo 12400" transform="translate(1.706 6.415)">
          <path id="Trazado_20211" data-name="Trazado 20211" d="M6103.691,874.385h-9.477a1.06,1.06,0,0,1-1.06-1.059V796.033a1.059,1.059,0,0,1,1.06-1.059h9.477a1.059,1.059,0,0,1,1.059,1.059v77.293A1.059,1.059,0,0,1,6103.691,874.385Zm-8.417-2.118h7.358V797.092h-7.358Z" transform="translate(-6093.155 -794.974)" fill="#1e243a"/>
        </g>
        <g id="Grupo_12401" data-name="Grupo 12401" transform="translate(0 83.708)">
          <path id="Trazado_20212" data-name="Trazado 20212" d="M6095.023,1378.258h-12.889a1.059,1.059,0,0,1-1.059-1.059v-33.8a1.059,1.059,0,0,1,1.059-1.059h12.889a1.059,1.059,0,0,1,1.059,1.059v33.8A1.059,1.059,0,0,1,6095.023,1378.258Zm-11.829-2.118h10.77v-31.678h-10.77Z" transform="translate(-6081.076 -1342.344)" fill="#1e243a"/>
        </g>
        <g id="Grupo_12402" data-name="Grupo 12402" transform="translate(0.568 117.504)">
          <path id="Trazado_20213" data-name="Trazado 20213" d="M6092.034,1601.319a1.058,1.058,0,0,1-1-.722l-5.875-17.524a1.059,1.059,0,1,1,2.008-.673l4.871,14.529,4.871-14.529a1.059,1.059,0,1,1,2.008.673l-5.875,17.524A1.058,1.058,0,0,1,6092.034,1601.319Z" transform="translate(-6085.1 -1581.677)" fill="#1e243a"/>
        </g>
        <g id="Grupo_12403" data-name="Grupo 12403" transform="translate(5.127 129.411)">
          <path id="Trazado_20214" data-name="Trazado 20214" d="M6121.125,1668.118h-2.683a1.059,1.059,0,0,1,0-2.118h2.683a1.059,1.059,0,0,1,0,2.118Z" transform="translate(-6117.383 -1666)" fill="#1e243a"/>
        </g>
        <g id="Grupo_12404" data-name="Grupo 12404" transform="translate(3.554)">
          <path id="Trazado_20215" data-name="Trazado 20215" d="M6113.081,758.077h-5.78a1.059,1.059,0,0,1-1.06-1.059V750.6a1.059,1.059,0,0,1,1.06-1.059h5.78a1.059,1.059,0,0,1,1.06,1.059v6.415A1.059,1.059,0,0,1,6113.081,758.077Zm-4.721-2.118h3.662v-4.3h-3.662Z" transform="translate(-6106.241 -749.544)" fill="#1e243a"/>
        </g>
        <g id="Grupo_12405" data-name="Grupo 12405" transform="translate(11.199 6.842)">
          <path id="Trazado_20216" data-name="Trazado 20216" d="M6165.184,835.349a1.059,1.059,0,0,1-1.059-1.059V800.118h-2.684a1.059,1.059,0,0,1,0-2.118h3.742a1.059,1.059,0,0,1,1.06,1.059V834.29A1.059,1.059,0,0,1,6165.184,835.349Z" transform="translate(-6160.383 -798)" fill="#1e243a"/>
        </g>
        <g id="Grupo_12406" data-name="Grupo 12406" transform="translate(15.011 39.696)">
          <path id="Trazado_20217" data-name="Trazado 20217" d="M6190.628,1037.3a3.319,3.319,0,1,1,3.248-3.318A3.33,3.33,0,0,1,6190.628,1037.3Zm0-4.519a1.2,1.2,0,1,0,1.13,1.2A1.211,1.211,0,0,0,6190.628,1032.779Z" transform="translate(-6187.379 -1030.661)" fill="#1e243a"/>
        </g>
      </g>
      <g id="Grupo_12413" data-name="Grupo 12413" transform="translate(54.995 143.873)">
        <g id="Grupo_12408" data-name="Grupo 12408">
          <path id="Trazado_20218" data-name="Trazado 20218" d="M5055.941,1466.454a1.059,1.059,0,0,1-1.059-1.059v-1.836a1.059,1.059,0,0,1,2.118,0v1.836A1.059,1.059,0,0,1,5055.941,1466.454Z" transform="translate(-5054.882 -1462.5)" fill="#1e243a"/>
        </g>
        <g id="Grupo_12409" data-name="Grupo 12409" transform="translate(0 7.908)">
          <path id="Trazado_20219" data-name="Trazado 20219" d="M5055.941,1533.609a1.059,1.059,0,0,1-1.059-1.059v-3.389a1.059,1.059,0,1,1,2.118,0v3.389A1.059,1.059,0,0,1,5055.941,1533.609Zm0-9.6a1.059,1.059,0,0,1-1.059-1.059v-3.389a1.059,1.059,0,0,1,2.118,0v3.389A1.059,1.059,0,0,1,5055.941,1524.007Z" transform="translate(-5054.882 -1518.5)" fill="#1e243a"/>
        </g>
        <g id="Grupo_12410" data-name="Grupo 12410" transform="translate(0 27.112)">
          <path id="Trazado_20220" data-name="Trazado 20220" d="M5057.707,1658.383h-1.766a1.06,1.06,0,0,1-1.06-1.059v-1.765a1.059,1.059,0,0,1,2.118,0v.706h.707a1.059,1.059,0,0,1,0,2.118Z" transform="translate(-5054.882 -1654.5)" fill="#1e243a"/>
        </g>
        <g id="Grupo_12411" data-name="Grupo 12411" transform="translate(7.978 28.877)">
          <path id="Trazado_20221" data-name="Trazado 20221" d="M5240.659,1669.118h-3.39a1.059,1.059,0,0,1,0-2.118h3.39a1.059,1.059,0,0,1,0,2.118Zm-9.6,0h-3.389a1.059,1.059,0,0,1,0-2.118h3.389a1.059,1.059,0,1,1,0,2.118Zm-9.6,0h-3.389a1.059,1.059,0,0,1,0-2.118h3.389a1.059,1.059,0,0,1,0,2.118Zm-9.6,0h-3.389a1.059,1.059,0,0,1,0-2.118h3.389a1.059,1.059,0,1,1,0,2.118Zm-9.6,0h-3.389a1.059,1.059,0,0,1,0-2.118h3.389a1.059,1.059,0,0,1,0,2.118Zm-9.6,0h-3.389a1.059,1.059,0,0,1,0-2.118h3.389a1.059,1.059,0,0,1,0,2.118Zm-9.6,0h-3.39a1.059,1.059,0,0,1,0-2.118h3.39a1.059,1.059,0,0,1,0,2.118Zm-9.6,0h-3.389a1.059,1.059,0,1,1,0-2.118h3.389a1.059,1.059,0,1,1,0,2.118Zm-9.6,0h-3.389a1.059,1.059,0,0,1,0-2.118h3.389a1.059,1.059,0,1,1,0,2.118Zm-9.6,0h-3.388a1.059,1.059,0,1,1,0-2.118h3.388a1.059,1.059,0,1,1,0,2.118Zm-9.6,0h-3.389a1.059,1.059,0,0,1,0-2.118h3.389a1.059,1.059,0,0,1,0,2.118Zm-9.6,0h-3.389a1.059,1.059,0,0,1,0-2.118h3.389a1.059,1.059,0,0,1,0,2.118Zm-9.6,0h-3.39a1.059,1.059,0,0,1,0-2.118h3.39a1.059,1.059,0,0,1,0,2.118Zm-9.6,0h-3.389a1.059,1.059,0,0,1,0-2.118h3.389a1.059,1.059,0,0,1,0,2.118Z" transform="translate(-5111.383 -1667)" fill="#1e243a"/>
        </g>
        <g id="Grupo_12412" data-name="Grupo 12412" transform="translate(143.114 28.877)">
          <path id="Trazado_20222" data-name="Trazado 20222" d="M6071.278,1669.118h-1.837a1.059,1.059,0,0,1,0-2.118h1.837a1.059,1.059,0,0,1,0,2.118Z" transform="translate(-6068.383 -1667)" fill="#1e243a"/>
        </g>
      </g>
      <g id="Grupo_12414" data-name="Grupo 12414" transform="translate(166.575 64.824)">
        <path id="Trazado_20223" data-name="Trazado 20223" d="M5848.89,915.837a1.411,1.411,0,0,1-.682-1.877h0a1.411,1.411,0,0,1,1.876-.682h0a1.411,1.411,0,0,1,.683,1.877h0a1.411,1.411,0,0,1-1.281.815h0A1.408,1.408,0,0,1,5848.89,915.837Zm4.11-.715a1.411,1.411,0,0,1,.627-1.895h0a1.41,1.41,0,0,1,1.9.627h0a1.41,1.41,0,0,1-.627,1.9h0a1.4,1.4,0,0,1-.634.151h0A1.413,1.413,0,0,1,5853,915.122Zm-7.9-3.942a1.411,1.411,0,0,1,1.051-1.7h0a1.409,1.409,0,0,1,1.7,1.049h0a1.411,1.411,0,0,1-1.049,1.7h0a1.433,1.433,0,0,1-.326.038h0A1.413,1.413,0,0,1,5845.1,911.18Zm11.79.9a1.413,1.413,0,0,1-1.1-1.668h0a1.412,1.412,0,0,1,1.667-1.1h0a1.412,1.412,0,0,1,1.1,1.668h0a1.411,1.411,0,0,1-1.381,1.128h0A1.4,1.4,0,0,1,5856.887,912.082ZM5846.63,907.3a1.409,1.409,0,0,1-.23-1.982h0a1.413,1.413,0,0,1,1.983-.232h0a1.411,1.411,0,0,1,.23,1.984h0a1.409,1.409,0,0,1-1.108.536h0A1.4,1.4,0,0,1,5846.63,907.3Zm8.29-.322a1.412,1.412,0,0,1,.172-1.99h0a1.413,1.413,0,0,1,1.99.174h0a1.411,1.411,0,0,1-.172,1.99h0a1.414,1.414,0,0,1-.908.33h0A1.407,1.407,0,0,1,5854.92,906.977Zm-4.529-2.865a1.412,1.412,0,0,1,1.412-1.412h0a1.412,1.412,0,0,1,1.413,1.412h0a1.412,1.412,0,0,1-1.413,1.412h0A1.412,1.412,0,0,1,5850.391,904.112Z" transform="translate(-5845.059 -902.7)" fill="#1e243a"/>
      </g>
      <g id="Grupo_12415" data-name="Grupo 12415" transform="translate(117.928 140.724)">
        <path id="Trazado_20224" data-name="Trazado 20224" d="M5504.389,1453.337a1.412,1.412,0,0,1-.681-1.877h0a1.411,1.411,0,0,1,1.876-.682h0a1.413,1.413,0,0,1,.683,1.877h0a1.412,1.412,0,0,1-1.281.815h0A1.4,1.4,0,0,1,5504.389,1453.337Zm4.111-.714a1.41,1.41,0,0,1,.628-1.9h0a1.411,1.411,0,0,1,1.9.627h0a1.411,1.411,0,0,1-.627,1.895h0a1.4,1.4,0,0,1-.634.151h0A1.412,1.412,0,0,1,5508.5,1452.622Zm-7.9-3.943a1.411,1.411,0,0,1,1.049-1.7h0a1.41,1.41,0,0,1,1.7,1.049h0a1.412,1.412,0,0,1-1.049,1.7h0a1.438,1.438,0,0,1-.326.038h0A1.411,1.411,0,0,1,5500.6,1448.679Zm11.788.9a1.411,1.411,0,0,1-1.1-1.666h0a1.414,1.414,0,0,1,1.668-1.1h0a1.414,1.414,0,0,1,1.1,1.668h0a1.413,1.413,0,0,1-1.382,1.128h0A1.405,1.405,0,0,1,5512.385,1449.582Zm-10.256-4.781a1.413,1.413,0,0,1-.231-1.984h0a1.412,1.412,0,0,1,1.983-.232h0a1.411,1.411,0,0,1,.231,1.984h0a1.405,1.405,0,0,1-1.107.536h0A1.407,1.407,0,0,1,5502.129,1444.8Zm8.291-.323a1.412,1.412,0,0,1,.172-1.99h0a1.413,1.413,0,0,1,1.99.173h0a1.413,1.413,0,0,1-.173,1.99h0a1.408,1.408,0,0,1-.907.33h0A1.405,1.405,0,0,1,5510.419,1444.477Zm-4.529-2.865a1.413,1.413,0,0,1,1.413-1.412h0a1.412,1.412,0,0,1,1.412,1.412h0a1.411,1.411,0,0,1-1.412,1.412h0A1.412,1.412,0,0,1,5505.891,1441.612Z" transform="translate(-5500.559 -1440.2)" fill="#1e243a"/>
      </g>
      <g id="Grupo_12416" data-name="Grupo 12416" transform="translate(0 166.918)">
        <path id="Trazado_20225" data-name="Trazado 20225" d="M4669.25,1638.837a1.411,1.411,0,0,1-.682-1.876h0a1.411,1.411,0,0,1,1.876-.682h0a1.413,1.413,0,0,1,.683,1.877h0a1.413,1.413,0,0,1-1.281.815h0A1.4,1.4,0,0,1,4669.25,1638.837Zm4.11-.714a1.412,1.412,0,0,1,.628-1.9h0a1.41,1.41,0,0,1,1.9.627h0a1.412,1.412,0,0,1-.626,1.895h0a1.407,1.407,0,0,1-.635.151h0A1.412,1.412,0,0,1,4673.36,1638.122Zm-7.9-3.943a1.412,1.412,0,0,1,1.05-1.7h0a1.411,1.411,0,0,1,1.7,1.049h0a1.412,1.412,0,0,1-1.049,1.7h0a1.449,1.449,0,0,1-.326.038h0A1.411,1.411,0,0,1,4665.457,1634.18Zm11.788.9a1.412,1.412,0,0,1-1.1-1.668h0a1.412,1.412,0,0,1,1.668-1.1h0a1.411,1.411,0,0,1,1.1,1.668h0a1.411,1.411,0,0,1-1.38,1.128h0A1.421,1.421,0,0,1,4677.245,1635.082Zm-10.256-4.781a1.412,1.412,0,0,1-.229-1.984h0a1.409,1.409,0,0,1,1.981-.23h0a1.41,1.41,0,0,1,.231,1.982h0a1.408,1.408,0,0,1-1.107.537h0A1.406,1.406,0,0,1,4666.989,1630.3Zm8.29-.323a1.413,1.413,0,0,1,.173-1.99h0a1.412,1.412,0,0,1,1.989.174h0a1.413,1.413,0,0,1-.174,1.99h0a1.405,1.405,0,0,1-.906.33h0A1.406,1.406,0,0,1,4675.279,1629.977Zm-4.528-2.865a1.413,1.413,0,0,1,1.412-1.412h0a1.412,1.412,0,0,1,1.412,1.412h0a1.411,1.411,0,0,1-1.412,1.412h0A1.412,1.412,0,0,1,4670.751,1627.112Z" transform="translate(-4665.419 -1625.7)" fill="#1e243a"/>
      </g>
      <g id="Grupo_12417" data-name="Grupo 12417" transform="translate(209.157 1.097)">
        <path id="Trazado_20226" data-name="Trazado 20226" d="M6150.451,464.537h0a1.41,1.41,0,0,1-.683-1.877h0a1.413,1.413,0,0,1,1.877-.682h0a1.411,1.411,0,0,1,.682,1.877h0a1.412,1.412,0,0,1-1.28.816h0A1.406,1.406,0,0,1,6150.451,464.537Zm4.11-.713a1.412,1.412,0,0,1,.627-1.9h0a1.411,1.411,0,0,1,1.9.627h0a1.412,1.412,0,0,1-.626,1.9h0a1.4,1.4,0,0,1-.634.151h0A1.413,1.413,0,0,1,6154.562,463.823Zm-7.9-3.944a1.412,1.412,0,0,1,1.049-1.7h0a1.412,1.412,0,0,1,1.7,1.049h0a1.412,1.412,0,0,1-1.049,1.7h0a1.365,1.365,0,0,1-.327.038h0A1.411,1.411,0,0,1,6146.658,459.88Zm11.788.9a1.411,1.411,0,0,1-1.1-1.666h0a1.414,1.414,0,0,1,1.668-1.1h0a1.412,1.412,0,0,1,1.1,1.668h0a1.412,1.412,0,0,1-1.381,1.128h0A1.425,1.425,0,0,1,6158.446,460.782ZM6148.19,456a1.412,1.412,0,0,1-.23-1.984h0a1.412,1.412,0,0,1,1.984-.23h0a1.411,1.411,0,0,1,.229,1.983h0a1.406,1.406,0,0,1-1.108.537h0A1.409,1.409,0,0,1,6148.19,456Zm8.29-.322a1.415,1.415,0,0,1,.172-1.991h0a1.412,1.412,0,0,1,1.989.174h0a1.413,1.413,0,0,1-.172,1.99h0a1.407,1.407,0,0,1-.908.33h0A1.411,1.411,0,0,1,6156.48,455.679Zm-4.528-2.867a1.412,1.412,0,0,1,1.411-1.412h0a1.411,1.411,0,0,1,1.413,1.411h0a1.411,1.411,0,0,1-1.413,1.412h0A1.412,1.412,0,0,1,6151.953,452.812Z" transform="translate(-6146.62 -451.4)" fill="#1e243a"/>
      </g>
      <g id="Grupo_12420" data-name="Grupo 12420" transform="translate(132.73 28.365)">
        <g id="Grupo_12418" data-name="Grupo 12418" transform="translate(3.601)">
          <path id="Trazado_20227" data-name="Trazado 20227" d="M5631.941,653.82a1.06,1.06,0,0,1-1.06-1.059v-7.2a1.06,1.06,0,0,1,2.119,0v7.2A1.06,1.06,0,0,1,5631.941,653.82Z" transform="translate(-5630.882 -644.5)" fill="#1e243a"/>
        </g>
        <g id="Grupo_12419" data-name="Grupo 12419" transform="translate(0 3.601)">
          <path id="Trazado_20228" data-name="Trazado 20228" d="M5613.645,672.118h-7.2a1.059,1.059,0,0,1,0-2.118h7.2a1.059,1.059,0,0,1,0,2.118Z" transform="translate(-5605.383 -670)" fill="#1e243a"/>
        </g>
      </g>
      <g id="Grupo_12423" data-name="Grupo 12423" transform="translate(176.364 125.798)">
        <g id="Grupo_12421" data-name="Grupo 12421" transform="translate(3.601)">
          <path id="Trazado_20229" data-name="Trazado 20229" d="M5940.941,1343.82a1.059,1.059,0,0,1-1.059-1.059v-7.2a1.059,1.059,0,0,1,2.118,0v7.2A1.059,1.059,0,0,1,5940.941,1343.82Z" transform="translate(-5939.882 -1334.5)" fill="#1e243a"/>
        </g>
        <g id="Grupo_12422" data-name="Grupo 12422" transform="translate(0 3.601)">
          <path id="Trazado_20230" data-name="Trazado 20230" d="M5922.644,1362.118h-7.2a1.059,1.059,0,1,1,0-2.118h7.2a1.059,1.059,0,1,1,0,2.118Z" transform="translate(-5914.383 -1360)" fill="#1e243a"/>
        </g>
      </g>
      <g id="Grupo_12426" data-name="Grupo 12426" transform="translate(35.156 146.556)">
        <g id="Grupo_12424" data-name="Grupo 12424" transform="translate(3.601)">
          <path id="Trazado_20231" data-name="Trazado 20231" d="M4940.94,1490.82a1.059,1.059,0,0,1-1.059-1.059v-7.2a1.059,1.059,0,1,1,2.118,0v7.2A1.059,1.059,0,0,1,4940.94,1490.82Z" transform="translate(-4939.882 -1481.5)" fill="#1e243a"/>
        </g>
        <g id="Grupo_12425" data-name="Grupo 12425" transform="translate(0 3.601)">
          <path id="Trazado_20232" data-name="Trazado 20232" d="M4922.644,1509.118h-7.2a1.059,1.059,0,0,1,0-2.118h7.2a1.059,1.059,0,1,1,0,2.118Z" transform="translate(-4914.383 -1507)" fill="#1e243a"/>
        </g>
      </g>
    </g>
  </g>
</svg>
