<svg xmlns="http://www.w3.org/2000/svg" width="194.227" height="160.91" viewBox="0 0 194.227 160.91">
  <g id="Grupo_12657" data-name="Grupo 12657" transform="translate(-6792.635 -438.708)">
    <g id="Color" transform="translate(6793.529 445.778)">
      <g id="Grupo_12570" data-name="Grupo 12570" transform="translate(127.47 87.979)">
        <g id="Grupo_12566" data-name="Grupo 12566">
          <path id="Trazado_20330" data-name="Trazado 20330" d="M7865.284,1208.921a32.468,32.468,0,1,0,32.467,32.468A32.469,32.469,0,0,0,7865.284,1208.921Zm-.031,58.48a26.013,26.013,0,1,1,26.013-26.013A26.013,26.013,0,0,1,7865.253,1267.4Z" transform="translate(-7832.815 -1208.921)" fill="#ff5a5a"/>
        </g>
        <g id="Grupo_12567" data-name="Grupo 12567" transform="translate(30.102 30.133)">
          <circle id="Elipse_651" data-name="Elipse 651" cx="2.035" cy="2.035" r="2.035" transform="matrix(0.987, -0.16, 0.16, 0.987, 0, 0.652)" fill="#ff5a5a"/>
        </g>
        <g id="Grupo_12568" data-name="Grupo 12568" transform="translate(30.495 15.726)">
          <path id="Trazado_20331" data-name="Trazado 20331" d="M8079.926,1338.284h3.862l-1.931-1.931Z" transform="translate(-8079.926 -1336.354)" fill="#ff5a5a"/>
        </g>
        <g id="Grupo_12569" data-name="Grupo 12569" transform="translate(40.609 30.537)">
          <path id="Trazado_20332" data-name="Trazado 20332" d="M8161.882,1460.234l1.932-1.931-1.932-1.931Z" transform="translate(-8161.882 -1456.372)" fill="#ff5a5a"/>
        </g>
      </g>
      <g id="Grupo_12573" data-name="Grupo 12573" transform="translate(0)">
        <g id="Grupo_12571" data-name="Grupo 12571">
          <path id="Trazado_20333" data-name="Trazado 20333" d="M6938.3,496h-25.25v5.183h-4.319V496H6835.67v5.43h-1.277a4.439,4.439,0,0,1,3.611,4.386,4.5,4.5,0,1,1-5.386-4.386h-1.267V496h-25.243a6.252,6.252,0,0,0-6.226,6.23v13.514h144.632V502.231A6.246,6.246,0,0,0,6938.3,496Zm-27.4,14.289a4.5,4.5,0,1,1,4.5-4.5A4.5,4.5,0,0,1,6910.9,510.289Z" transform="translate(-6799.882 -496)" fill="#ffd571"/>
        </g>
        <g id="Grupo_12572" data-name="Grupo 12572" transform="translate(32.736 5.337)">
          <path id="Trazado_20334" data-name="Trazado 20334" d="M7066.038,539.254a2.151,2.151,0,0,0-.887.088h1.774A2.151,2.151,0,0,0,7066.038,539.254Z" transform="translate(-7065.151 -539.249)" fill="#ffd571"/>
        </g>
      </g>
    </g>
    <g id="PLANNING" transform="translate(6792.635 438.708)">
      <g id="Grupo_12602" data-name="Grupo 12602" transform="translate(0)">
        <g id="Grupo_12574" data-name="Grupo 12574" transform="translate(0 6.181)">
          <path id="Trazado_20335" data-name="Trazado 20335" d="M6924.653,595.527H6799.64a7.014,7.014,0,0,1-7.005-7.006V495.8a7.014,7.014,0,0,1,7.005-7.006H6824a.926.926,0,0,1,0,1.851H6799.64a5.16,5.16,0,0,0-5.154,5.155v92.724a5.16,5.16,0,0,0,5.154,5.155h125.013a.926.926,0,0,1,0,1.851Z" transform="translate(-6792.635 -488.792)" fill="#1e243a"/>
        </g>
        <g id="Grupo_12575" data-name="Grupo 12575" transform="translate(114.409 6.181)">
          <path id="Trazado_20336" data-name="Trazado 20336" d="M7750.824,582.042a.925.925,0,0,1-.925-.926V495.8a5.161,5.161,0,0,0-5.155-5.155h-24.088a.926.926,0,1,1,0-1.851h24.088a7.013,7.013,0,0,1,7.005,7.006v85.319A.926.926,0,0,1,7750.824,582.042Z" transform="translate(-7719.73 -488.792)" fill="#1e243a"/>
        </g>
        <g id="Grupo_12576" data-name="Grupo 12576" transform="translate(36.966 6.181)">
          <path id="Trazado_20337" data-name="Trazado 20337" d="M7163.934,490.643h-70.828a.926.926,0,1,1,0-1.851h70.828a.926.926,0,0,1,0,1.851Z" transform="translate(-7092.18 -488.792)" fill="#1e243a"/>
        </g>
        <g id="Grupo_12577" data-name="Grupo 12577" transform="translate(1.326 25.828)">
          <path id="Trazado_20338" data-name="Trazado 20338" d="M6946.225,649.851H6804.309a.926.926,0,1,1,0-1.851h141.917a.926.926,0,1,1,0,1.851Z" transform="translate(-6803.383 -648)" fill="#1e243a"/>
        </g>
        <g id="Grupo_12578" data-name="Grupo 12578" transform="translate(29.094 11.438)">
          <path id="Trazado_20339" data-name="Trazado 20339" d="M7033.815,542.238a5.424,5.424,0,1,1,5.424-5.424A5.43,5.43,0,0,1,7033.815,542.238Zm0-9a3.573,3.573,0,1,0,3.573,3.573A3.577,3.577,0,0,0,7033.815,533.241Z" transform="translate(-7028.392 -531.39)" fill="#1e243a"/>
        </g>
        <g id="Grupo_12579" data-name="Grupo 12579" transform="translate(106.487 11.438)">
          <path id="Trazado_20340" data-name="Trazado 20340" d="M7660.954,542.238a5.424,5.424,0,1,1,5.423-5.424A5.431,5.431,0,0,1,7660.954,542.238Zm0-9a3.573,3.573,0,1,0,3.572,3.573A3.577,3.577,0,0,0,7660.954,533.241Z" transform="translate(-7655.529 -531.39)" fill="#1e243a"/>
        </g>
        <g id="Grupo_12580" data-name="Grupo 12580" transform="translate(31.416)">
          <path id="Trazado_20341" data-name="Trazado 20341" d="M7052.488,452.085a.925.925,0,0,1-.926-.926v-9.35a1.25,1.25,0,1,0-2.5,0v9.35a.926.926,0,0,1-1.852,0v-9.35a3.1,3.1,0,0,1,6.2,0v9.35A.925.925,0,0,1,7052.488,452.085Z" transform="translate(-7047.211 -438.708)" fill="#1e243a"/>
        </g>
        <g id="Grupo_12581" data-name="Grupo 12581" transform="translate(108.809)">
          <path id="Trazado_20342" data-name="Trazado 20342" d="M7679.627,451.908a.926.926,0,0,1-.926-.926v-9.173a1.25,1.25,0,0,0-2.5,0v9.173a.926.926,0,1,1-1.851,0v-9.173a3.1,3.1,0,1,1,6.2,0v9.173A.926.926,0,0,1,7679.627,451.908Z" transform="translate(-7674.35 -438.708)" fill="#1e243a"/>
        </g>
        <g id="Grupo_12586" data-name="Grupo 12586" transform="translate(8.55 37.489)">
          <g id="Grupo_12582" data-name="Grupo 12582">
            <path id="Trazado_20343" data-name="Trazado 20343" d="M6885.014,766.508h-22.166a.926.926,0,0,1-.926-.925V743.417a.926.926,0,0,1,.926-.926h22.166a.926.926,0,0,1,.925.926v22.166A.925.925,0,0,1,6885.014,766.508Zm-21.24-1.851h20.314V744.342h-20.314Z" transform="translate(-6861.922 -742.491)" fill="#1e243a"/>
          </g>
          <g id="Grupo_12583" data-name="Grupo 12583" transform="translate(35.104)">
            <path id="Trazado_20344" data-name="Trazado 20344" d="M7169.468,766.508H7147.3a.926.926,0,0,1-.926-.925V743.417a.926.926,0,0,1,.926-.926h22.165a.925.925,0,0,1,.926.926v22.166A.925.925,0,0,1,7169.468,766.508Zm-21.24-1.851h20.315V744.342h-20.315Z" transform="translate(-7146.377 -742.491)" fill="#1e243a"/>
          </g>
          <g id="Grupo_12584" data-name="Grupo 12584" transform="translate(105.31)">
            <path id="Trazado_20345" data-name="Trazado 20345" d="M7738.377,766.508h-22.166a.925.925,0,0,1-.926-.925V743.417a.925.925,0,0,1,.926-.926h22.166a.925.925,0,0,1,.925.926v22.166A.925.925,0,0,1,7738.377,766.508Zm-21.24-1.851h20.315V744.342h-20.315Z" transform="translate(-7715.286 -742.491)" fill="#1e243a"/>
          </g>
          <g id="Grupo_12585" data-name="Grupo 12585" transform="translate(70.207)">
            <path id="Trazado_20346" data-name="Trazado 20346" d="M7453.922,766.508h-22.166a.925.925,0,0,1-.925-.925V743.417a.925.925,0,0,1,.925-.926h22.166a.925.925,0,0,1,.926.926v22.166A.925.925,0,0,1,7453.922,766.508Zm-21.24-1.851H7453V744.342h-20.315Z" transform="translate(-7430.832 -742.491)" fill="#1e243a"/>
          </g>
        </g>
        <g id="Grupo_12587" data-name="Grupo 12587" transform="translate(8.55 77.004)">
          <path id="Trazado_20347" data-name="Trazado 20347" d="M6885.014,1086.716h-22.166a.926.926,0,0,1-.926-.926v-22.166a.926.926,0,0,1,.926-.925h22.166a.926.926,0,0,1,.925.925v22.166A.926.926,0,0,1,6885.014,1086.716Zm-21.24-1.851h20.314V1064.55h-20.314Z" transform="translate(-6861.922 -1062.699)" fill="#1e243a"/>
        </g>
        <g id="Grupo_12588" data-name="Grupo 12588" transform="translate(43.654 77.004)">
          <path id="Trazado_20348" data-name="Trazado 20348" d="M7169.468,1086.716H7147.3a.926.926,0,0,1-.926-.926v-22.166a.926.926,0,0,1,.926-.925h22.165a.925.925,0,0,1,.926.925v22.166A.925.925,0,0,1,7169.468,1086.716Zm-21.24-1.851h20.315V1064.55h-20.315Z" transform="translate(-7146.377 -1062.699)" fill="#1e243a"/>
        </g>
        <g id="Grupo_12589" data-name="Grupo 12589" transform="translate(78.757 77.004)">
          <path id="Trazado_20349" data-name="Trazado 20349" d="M7453.922,1086.716h-22.166a.925.925,0,0,1-.925-.926v-22.166a.925.925,0,0,1,.925-.925h22.166a.925.925,0,0,1,.926.925v22.166A.925.925,0,0,1,7453.922,1086.716Zm-21.24-1.851H7453V1064.55h-20.315Z" transform="translate(-7430.832 -1062.699)" fill="#1e243a"/>
        </g>
        <g id="Grupo_12590" data-name="Grupo 12590" transform="translate(44.728 38.457)">
          <path id="Trazado_20350" data-name="Trazado 20350" d="M7175.671,771.858a.923.923,0,0,1-.655-.271l-19.667-19.668a.926.926,0,0,1,1.309-1.309l19.667,19.667a.926.926,0,0,1-.654,1.58Z" transform="translate(-7155.078 -750.34)" fill="#1e243a"/>
        </g>
        <g id="Grupo_12591" data-name="Grupo 12591" transform="translate(44.728 38.457)">
          <path id="Trazado_20351" data-name="Trazado 20351" d="M7156,771.859a.925.925,0,0,1-.655-1.58l19.667-19.667a.926.926,0,0,1,1.309,1.309l-19.667,19.668A.922.922,0,0,1,7156,771.859Z" transform="translate(-7155.078 -750.34)" fill="#1e243a"/>
        </g>
        <g id="Grupo_12598" data-name="Grupo 12598" transform="translate(113.861 77.004)">
          <g id="Grupo_12592" data-name="Grupo 12592">
            <path id="Trazado_20352" data-name="Trazado 20352" d="M7738.377,1086.716h-22.166a.925.925,0,0,1-.926-.926v-22.166a.925.925,0,0,1,.926-.925h22.166a.925.925,0,0,1,.925.925v22.166A.925.925,0,0,1,7738.377,1086.716Zm-21.24-1.851h20.315V1064.55h-20.315Z" transform="translate(-7715.286 -1062.699)" fill="#1e243a"/>
          </g>
          <g id="Grupo_12593" data-name="Grupo 12593" transform="translate(0.843 0.329)">
            <path id="Trazado_20353" data-name="Trazado 20353" d="M7723.039,1074.738a.925.925,0,0,1-.654-1.58l7.52-7.52a.926.926,0,1,1,1.309,1.309l-7.52,7.52A.923.923,0,0,1,7723.039,1074.738Z" transform="translate(-7722.114 -1065.367)" fill="#1e243a"/>
          </g>
          <g id="Grupo_12594" data-name="Grupo 12594" transform="translate(0.6 0.439)">
            <path id="Trazado_20354" data-name="Trazado 20354" d="M7721.073,1082.643a.926.926,0,0,1-.654-1.58l14.532-14.532a.925.925,0,0,1,1.309,1.309l-14.532,14.532A.923.923,0,0,1,7721.073,1082.643Z" transform="translate(-7720.148 -1066.26)" fill="#1e243a"/>
          </g>
          <g id="Grupo_12595" data-name="Grupo 12595" transform="translate(0.843 0.969)">
            <path id="Trazado_20355" data-name="Trazado 20355" d="M7723.039,1092.8a.925.925,0,0,1-.654-1.58l20.4-20.4a.926.926,0,0,1,1.309,1.309l-20.4,20.4A.922.922,0,0,1,7723.039,1092.8Z" transform="translate(-7722.114 -1070.548)" fill="#1e243a"/>
          </g>
          <g id="Grupo_12596" data-name="Grupo 12596" transform="translate(7.744 8.003)">
            <path id="Trazado_20356" data-name="Trazado 20356" d="M7778.968,1143.338a.926.926,0,0,1-.654-1.58l13.936-13.936a.926.926,0,1,1,1.309,1.309l-13.936,13.936A.923.923,0,0,1,7778.968,1143.338Z" transform="translate(-7778.042 -1127.55)" fill="#1e243a"/>
          </g>
          <g id="Grupo_12597" data-name="Grupo 12597" transform="translate(14.963 14.721)">
            <path id="Trazado_20357" data-name="Trazado 20357" d="M7837.459,1190.662a.926.926,0,0,1-.655-1.58l6.821-6.821a.926.926,0,0,1,1.309,1.309l-6.822,6.821A.921.921,0,0,1,7837.459,1190.662Z" transform="translate(-7836.533 -1181.99)" fill="#1e243a"/>
          </g>
        </g>
        <g id="Grupo_12601" data-name="Grupo 12601" transform="translate(46.493 13.364)">
          <g id="Grupo_12599" data-name="Grupo 12599">
            <path id="Trazado_20358" data-name="Trazado 20358" d="M7197.828,548.851h-27.519a.926.926,0,1,1,0-1.851h27.519a.926.926,0,1,1,0,1.851Z" transform="translate(-7169.383 -547)" fill="#1e243a"/>
          </g>
          <g id="Grupo_12600" data-name="Grupo 12600" transform="translate(35.911)">
            <path id="Trazado_20359" data-name="Trazado 20359" d="M7468.96,548.851h-7.651a.926.926,0,0,1,0-1.851h7.651a.926.926,0,0,1,0,1.851Z" transform="translate(-7460.383 -547)" fill="#1e243a"/>
          </g>
        </g>
      </g>
      <g id="Grupo_12626" data-name="Grupo 12626" transform="translate(127.439 94.124)">
        <g id="Grupo_12625" data-name="Grupo 12625">
          <g id="Grupo_12603" data-name="Grupo 12603">
            <path id="Trazado_20360" data-name="Trazado 20360" d="M7858.708,1268.208a33.394,33.394,0,1,1,23.613-9.781A33.176,33.176,0,0,1,7858.708,1268.208Zm0-64.936a31.542,31.542,0,1,0,31.542,31.542A31.577,31.577,0,0,0,7858.708,1203.272Z" transform="translate(-7825.315 -1201.421)" fill="#1e243a"/>
          </g>
          <g id="Grupo_12624" data-name="Grupo 12624" transform="translate(6.425 6.455)">
            <g id="Grupo_12604" data-name="Grupo 12604">
              <path id="Trazado_20361" data-name="Trazado 20361" d="M7904.314,1307.606a26.937,26.937,0,1,1,19.048-7.89A26.762,26.762,0,0,1,7904.314,1307.606Zm0-52.025a25.087,25.087,0,1,0,25.087,25.087A25.115,25.115,0,0,0,7904.314,1255.581Z" transform="translate(-7877.376 -1253.73)" fill="#1e243a"/>
            </g>
            <g id="Grupo_12605" data-name="Grupo 12605" transform="translate(23.977 23.977)">
              <path id="Trazado_20362" data-name="Trazado 20362" d="M8074.633,1453.948a2.961,2.961,0,1,1,2.96-2.961A2.964,2.964,0,0,1,8074.633,1453.948Zm0-4.07a1.11,1.11,0,1,0,1.109,1.11A1.111,1.111,0,0,0,8074.633,1449.878Z" transform="translate(-8071.673 -1448.027)" fill="#1e243a"/>
            </g>
            <g id="Grupo_12608" data-name="Grupo 12608" transform="translate(25.854 0.095)">
              <g id="Grupo_12606" data-name="Grupo 12606">
                <path id="Trazado_20363" data-name="Trazado 20363" d="M8087.808,1259.066a.926.926,0,0,1-.925-.926v-2.715a.925.925,0,1,1,1.851,0v2.715A.925.925,0,0,1,8087.808,1259.066Z" transform="translate(-8086.882 -1254.5)" fill="#1e243a"/>
              </g>
              <g id="Grupo_12607" data-name="Grupo 12607" transform="translate(0 49.116)">
                <path id="Trazado_20364" data-name="Trazado 20364" d="M8087.808,1657.066a.926.926,0,0,1-.925-.926v-2.715a.925.925,0,1,1,1.851,0v2.715A.925.925,0,0,1,8087.808,1657.066Z" transform="translate(-8086.882 -1652.5)" fill="#1e243a"/>
              </g>
            </g>
            <g id="Grupo_12611" data-name="Grupo 12611" transform="translate(7.625 7.615)">
              <g id="Grupo_12609" data-name="Grupo 12609">
                <path id="Trazado_20365" data-name="Trazado 20365" d="M7942.084,1319.283a.923.923,0,0,1-.654-.271l-2-2a.925.925,0,1,1,1.309-1.309l2,2a.925.925,0,0,1-.655,1.58Z" transform="translate(-7939.162 -1315.435)" fill="#1e243a"/>
              </g>
              <g id="Grupo_12610" data-name="Grupo 12610" transform="translate(34.756 34.756)">
                <path id="Trazado_20366" data-name="Trazado 20366" d="M8223.721,1600.922a.921.921,0,0,1-.653-.271l-2-2a.925.925,0,0,1,1.309-1.309l2,2a.926.926,0,0,1-.656,1.58Z" transform="translate(-8220.799 -1597.073)" fill="#1e243a"/>
              </g>
            </g>
            <g id="Grupo_12614" data-name="Grupo 12614" transform="translate(0.001 26.072)">
              <g id="Grupo_12612" data-name="Grupo 12612">
                <path id="Trazado_20367" data-name="Trazado 20367" d="M7881.147,1466.851h-2.838a.926.926,0,1,1,0-1.851h2.838a.926.926,0,1,1,0,1.851Z" transform="translate(-7877.383 -1465)" fill="#1e243a"/>
              </g>
              <g id="Grupo_12613" data-name="Grupo 12613" transform="translate(49.239)">
                <path id="Trazado_20368" data-name="Trazado 20368" d="M8280.147,1466.851h-2.838a.926.926,0,1,1,0-1.851h2.838a.926.926,0,0,1,0,1.851Z" transform="translate(-8276.383 -1465)" fill="#1e243a"/>
              </g>
            </g>
            <g id="Grupo_12617" data-name="Grupo 12617" transform="translate(7.625 7.615)">
              <g id="Grupo_12615" data-name="Grupo 12615" transform="translate(0 34.756)">
                <path id="Trazado_20369" data-name="Trazado 20369" d="M7940.087,1600.921a.925.925,0,0,1-.654-1.58l2-2a.926.926,0,1,1,1.31,1.309l-2,2A.922.922,0,0,1,7940.087,1600.921Z" transform="translate(-7939.162 -1597.073)" fill="#1e243a"/>
              </g>
              <g id="Grupo_12616" data-name="Grupo 12616" transform="translate(34.756)">
                <path id="Trazado_20370" data-name="Trazado 20370" d="M8221.725,1319.283a.925.925,0,0,1-.655-1.58l2-2a.926.926,0,0,1,1.31,1.309l-2,2A.917.917,0,0,1,8221.725,1319.283Z" transform="translate(-8220.799 -1315.435)" fill="#1e243a"/>
              </g>
            </g>
            <g id="Grupo_12620" data-name="Grupo 12620" transform="translate(24.07 9.33)">
              <g id="Grupo_12618" data-name="Grupo 12618" transform="translate(1.784 0.391)">
                <path id="Trazado_20371" data-name="Trazado 20371" d="M8087.808,1348.419a.926.926,0,0,1-.925-.925v-14.068a.925.925,0,1,1,1.851,0v14.068A.925.925,0,0,1,8087.808,1348.419Z" transform="translate(-8086.882 -1332.5)" fill="#1e243a"/>
              </g>
              <g id="Grupo_12619" data-name="Grupo 12619">
                <path id="Trazado_20372" data-name="Trazado 20372" d="M8077.213,1333.113a.922.922,0,0,1-.654-.271l-1.276-1.276-1.277,1.276a.926.926,0,0,1-1.309-1.309l1.932-1.931a.926.926,0,0,1,1.309,0l1.931,1.931a.926.926,0,0,1-.655,1.58Z" transform="translate(-8072.426 -1329.331)" fill="#1e243a"/>
              </g>
            </g>
            <g id="Grupo_12623" data-name="Grupo 12623" transform="translate(28.631 24.082)">
              <g id="Grupo_12621" data-name="Grupo 12621" transform="translate(0 2.114)">
                <path id="Trazado_20373" data-name="Trazado 20373" d="M8117.59,1467.851h-7.281a.926.926,0,1,1,0-1.851h7.281a.926.926,0,1,1,0,1.851Z" transform="translate(-8109.383 -1466)" fill="#1e243a"/>
              </g>
              <g id="Grupo_12622" data-name="Grupo 12622" transform="translate(5.559)">
                <path id="Trazado_20374" data-name="Trazado 20374" d="M8155.357,1454.584a.926.926,0,0,1-.654-1.58l1.276-1.276-1.276-1.276a.925.925,0,1,1,1.308-1.309l1.931,1.931a.926.926,0,0,1,0,1.309l-1.931,1.931A.921.921,0,0,1,8155.357,1454.584Z" transform="translate(-8154.432 -1448.871)" fill="#1e243a"/>
              </g>
            </g>
          </g>
        </g>
      </g>
      <g id="Grupo_12632" data-name="Grupo 12632" transform="translate(19.652 116.717)">
        <g id="Grupo_12627" data-name="Grupo 12627">
          <path id="Trazado_20375" data-name="Trazado 20375" d="M6952.808,1387.955a.926.926,0,0,1-.926-.925v-1.6a.926.926,0,0,1,1.852,0v1.6A.926.926,0,0,1,6952.808,1387.955Z" transform="translate(-6951.882 -1384.5)" fill="#1e243a"/>
        </g>
        <g id="Grupo_12628" data-name="Grupo 12628" transform="translate(0 7.651)">
          <path id="Trazado_20376" data-name="Trazado 20376" d="M6952.808,1451.806a.926.926,0,0,1-.926-.925v-3.455a.926.926,0,0,1,1.852,0v3.455A.925.925,0,0,1,6952.808,1451.806Z" transform="translate(-6951.882 -1446.5)" fill="#1e243a"/>
        </g>
        <g id="Grupo_12629" data-name="Grupo 12629" transform="translate(0 17.277)">
          <path id="Trazado_20377" data-name="Trazado 20377" d="M6954.351,1527.894h-1.542a.926.926,0,0,1-.926-.926v-1.542a.926.926,0,0,1,1.852,0v.617h.617a.925.925,0,0,1,0,1.851Z" transform="translate(-6951.882 -1524.5)" fill="#1e243a"/>
        </g>
        <g id="Grupo_12630" data-name="Grupo 12630" transform="translate(6.973 18.819)">
          <path id="Trazado_20378" data-name="Trazado 20378" d="M7097.544,1538.851h-3.085a.926.926,0,1,1,0-1.851h3.085a.926.926,0,1,1,0,1.851Zm-8.515,0h-3.085a.926.926,0,1,1,0-1.851h3.085a.926.926,0,1,1,0,1.851Zm-8.516,0h-3.085a.926.926,0,1,1,0-1.851h3.085a.926.926,0,1,1,0,1.851Zm-8.515,0h-3.085a.926.926,0,1,1,0-1.851H7072a.926.926,0,1,1,0,1.851Zm-8.516,0H7060.4a.926.926,0,0,1,0-1.851h3.085a.926.926,0,1,1,0,1.851Zm-8.515,0h-3.085a.926.926,0,1,1,0-1.851h3.085a.926.926,0,1,1,0,1.851Zm-8.515,0h-3.085a.926.926,0,1,1,0-1.851h3.085a.926.926,0,0,1,0,1.851Zm-8.516,0h-3.085a.926.926,0,1,1,0-1.851h3.085a.926.926,0,1,1,0,1.851Zm-8.515,0h-3.085a.926.926,0,1,1,0-1.851h3.085a.926.926,0,1,1,0,1.851Zm-8.515,0h-3.086a.926.926,0,0,1,0-1.851h3.086a.926.926,0,0,1,0,1.851Zm-8.516,0h-3.085a.926.926,0,1,1,0-1.851h3.085a.926.926,0,1,1,0,1.851Z" transform="translate(-7008.383 -1537)" fill="#1e243a"/>
        </g>
        <g id="Grupo_12631" data-name="Grupo 12631" transform="translate(100.391 18.819)">
          <path id="Trazado_20379" data-name="Trazado 20379" d="M7767.912,1538.851h-1.6a.926.926,0,0,1,0-1.851h1.6a.926.926,0,1,1,0,1.851Z" transform="translate(-7765.383 -1537)" fill="#1e243a"/>
        </g>
      </g>
      <g id="Grupo_12638" data-name="Grupo 12638" transform="translate(152.622 25.828)">
        <g id="Grupo_12633" data-name="Grupo 12633">
          <path id="Trazado_20380" data-name="Trazado 20380" d="M8031.79,649.851h-1.481a.926.926,0,1,1,0-1.851h1.481a.926.926,0,0,1,0,1.851Z" transform="translate(-8029.383 -648)" fill="#1e243a"/>
        </g>
        <g id="Grupo_12634" data-name="Grupo 12634" transform="translate(7.158)">
          <path id="Trazado_20381" data-name="Trazado 20381" d="M8091.394,649.851h-3.085a.926.926,0,1,1,0-1.851h3.085a.926.926,0,1,1,0,1.851Z" transform="translate(-8087.383 -648)" fill="#1e243a"/>
        </g>
        <g id="Grupo_12635" data-name="Grupo 12635" transform="translate(15.796)">
          <path id="Trazado_20382" data-name="Trazado 20382" d="M8159.851,651.394a.925.925,0,0,1-.925-.926v-.617h-.617a.926.926,0,1,1,0-1.851h1.543a.926.926,0,0,1,.926.926v1.543A.926.926,0,0,1,8159.851,651.394Z" transform="translate(-8157.383 -648)" fill="#1e243a"/>
        </g>
        <g id="Grupo_12636" data-name="Grupo 12636" transform="translate(17.338 7.466)">
          <path id="Trazado_20383" data-name="Trazado 20383" d="M8170.808,759.96a.925.925,0,0,1-.925-.926V755.7a.926.926,0,1,1,1.851,0v3.332A.925.925,0,0,1,8170.808,759.96Zm0-9.255a.925.925,0,0,1-.925-.926v-3.332a.926.926,0,1,1,1.851,0v3.332A.925.925,0,0,1,8170.808,750.7Zm0-9.255a.925.925,0,0,1-.925-.926v-3.332a.926.926,0,1,1,1.851,0v3.332A.925.925,0,0,1,8170.808,741.449Zm0-9.255a.925.925,0,0,1-.925-.926v-3.332a.926.926,0,1,1,1.851,0v3.332A.925.925,0,0,1,8170.808,732.194Zm0-9.255a.925.925,0,0,1-.925-.926v-3.332a.926.926,0,1,1,1.851,0v3.332A.925.925,0,0,1,8170.808,722.939Zm0-9.255a.925.925,0,0,1-.925-.926v-3.332a.926.926,0,1,1,1.851,0v3.332A.925.925,0,0,1,8170.808,713.683Z" transform="translate(-8169.882 -708.5)" fill="#1e243a"/>
        </g>
        <g id="Grupo_12637" data-name="Grupo 12637" transform="translate(17.338 62.629)">
          <path id="Trazado_20384" data-name="Trazado 20384" d="M8170.808,1158.832a.925.925,0,0,1-.925-.926v-1.481a.926.926,0,1,1,1.851,0v1.481A.925.925,0,0,1,8170.808,1158.832Z" transform="translate(-8169.882 -1155.5)" fill="#1e243a"/>
        </g>
      </g>
      <g id="Grupo_12639" data-name="Grupo 12639" transform="translate(181.035 0.578)">
        <path id="Trazado_20385" data-name="Trazado 20385" d="M8262.967,454.87a1.233,1.233,0,0,1-.6-1.64h0a1.233,1.233,0,0,1,1.641-.6h0a1.235,1.235,0,0,1,.6,1.64h0a1.234,1.234,0,0,1-1.12.712h0A1.224,1.224,0,0,1,8262.967,454.87Zm3.593-.624a1.234,1.234,0,0,1,.547-1.656h0a1.233,1.233,0,0,1,1.657.547h0a1.233,1.233,0,0,1-.548,1.657h0a1.218,1.218,0,0,1-.554.132h0A1.232,1.232,0,0,1,8266.56,454.246Zm-6.908-3.445a1.235,1.235,0,0,1,.918-1.485h0a1.234,1.234,0,0,1,1.484.917h0a1.234,1.234,0,0,1-.917,1.485h0a1.258,1.258,0,0,1-.286.033h0A1.236,1.236,0,0,1,8259.651,450.8Zm10.3.789a1.233,1.233,0,0,1-.96-1.456h0a1.235,1.235,0,0,1,1.457-.961h0a1.235,1.235,0,0,1,.961,1.457h0a1.235,1.235,0,0,1-1.207.986h0A1.236,1.236,0,0,1,8269.954,451.589Zm-8.963-4.178a1.234,1.234,0,0,1-.2-1.734h0a1.234,1.234,0,0,1,1.733-.2h0a1.234,1.234,0,0,1,.2,1.733h0a1.231,1.231,0,0,1-.968.469h0A1.234,1.234,0,0,1,8260.991,447.411Zm7.244-.283a1.234,1.234,0,0,1,.151-1.739h0a1.235,1.235,0,0,1,1.739.152h0a1.233,1.233,0,0,1-.151,1.739h0a1.232,1.232,0,0,1-.794.289h0A1.233,1.233,0,0,1,8268.235,447.128Zm-3.956-2.5a1.234,1.234,0,0,1,1.233-1.234h0a1.233,1.233,0,0,1,1.233,1.234h0a1.232,1.232,0,0,1-1.233,1.234h0A1.233,1.233,0,0,1,8264.279,444.624Z" transform="translate(-8259.618 -443.39)" fill="#1e243a"/>
      </g>
      <g id="Grupo_12640" data-name="Grupo 12640" transform="translate(153.372 72.788)">
        <path id="Trazado_20386" data-name="Trazado 20386" d="M8038.8,1040.01a1.235,1.235,0,0,1-.594-1.641h0a1.233,1.233,0,0,1,1.64-.595h0a1.234,1.234,0,0,1,.6,1.64h0a1.233,1.233,0,0,1-1.118.712h0A1.236,1.236,0,0,1,8038.8,1040.01Zm3.594-.624a1.234,1.234,0,0,1,.548-1.657h0a1.235,1.235,0,0,1,1.657.548h0a1.235,1.235,0,0,1-.547,1.657h0a1.229,1.229,0,0,1-.555.132h0A1.232,1.232,0,0,1,8042.395,1039.386Zm-6.908-3.447a1.236,1.236,0,0,1,.918-1.484h0a1.234,1.234,0,0,1,1.484.918h0a1.234,1.234,0,0,1-.918,1.484h0a1.244,1.244,0,0,1-.284.033h0A1.236,1.236,0,0,1,8035.486,1035.939Zm10.3.79a1.233,1.233,0,0,1-.96-1.458h0a1.233,1.233,0,0,1,1.457-.96h0a1.236,1.236,0,0,1,.962,1.457h0a1.238,1.238,0,0,1-1.21.986h0A1.24,1.24,0,0,1,8045.789,1036.729Zm-8.962-4.18a1.233,1.233,0,0,1-.2-1.734h0a1.235,1.235,0,0,1,1.734-.2h0a1.234,1.234,0,0,1,.2,1.734h0a1.229,1.229,0,0,1-.968.468h0A1.22,1.22,0,0,1,8036.827,1032.549Zm7.243-.281a1.235,1.235,0,0,1,.153-1.739h0a1.233,1.233,0,0,1,1.738.152h0a1.234,1.234,0,0,1-.152,1.739h0a1.226,1.226,0,0,1-.792.289h0A1.232,1.232,0,0,1,8044.07,1032.268Zm-3.956-2.5a1.234,1.234,0,0,1,1.234-1.234h0a1.235,1.235,0,0,1,1.234,1.234h0a1.235,1.235,0,0,1-1.234,1.234h0A1.234,1.234,0,0,1,8040.114,1029.764Z" transform="translate(-8035.454 -1028.53)" fill="#1e243a"/>
      </g>
      <g id="Grupo_12641" data-name="Grupo 12641" transform="translate(72.249 147.508)">
        <path id="Trazado_20387" data-name="Trazado 20387" d="M7381.438,1645.49a1.234,1.234,0,0,1-.595-1.641h0a1.234,1.234,0,0,1,1.641-.595h0a1.235,1.235,0,0,1,.6,1.64h0a1.236,1.236,0,0,1-1.119.712h0A1.229,1.229,0,0,1,7381.438,1645.49Zm3.594-.624a1.234,1.234,0,0,1,.548-1.657h0a1.236,1.236,0,0,1,1.658.548h0a1.235,1.235,0,0,1-.548,1.658h0a1.223,1.223,0,0,1-.554.132h0A1.235,1.235,0,0,1,7385.031,1644.866Zm-6.908-3.447a1.234,1.234,0,0,1,.918-1.485h0a1.234,1.234,0,0,1,1.484.918h0a1.234,1.234,0,0,1-.917,1.485h0a1.247,1.247,0,0,1-.284.033h0A1.237,1.237,0,0,1,7378.123,1641.419Zm10.3.79a1.234,1.234,0,0,1-.96-1.458h0a1.233,1.233,0,0,1,1.456-.96h0a1.235,1.235,0,0,1,.961,1.457h0a1.235,1.235,0,0,1-1.208.986h0A1.245,1.245,0,0,1,7388.426,1642.209Zm-8.963-4.18a1.233,1.233,0,0,1-.2-1.733h0a1.234,1.234,0,0,1,1.734-.2h0a1.234,1.234,0,0,1,.2,1.734h0a1.23,1.23,0,0,1-.967.468h0A1.219,1.219,0,0,1,7379.463,1638.029Zm7.244-.281a1.235,1.235,0,0,1,.152-1.739h0a1.235,1.235,0,0,1,1.739.152h0a1.233,1.233,0,0,1-.152,1.738h0a1.224,1.224,0,0,1-.794.29h0A1.233,1.233,0,0,1,7386.707,1637.748Zm-3.956-2.5a1.234,1.234,0,0,1,1.234-1.234h0a1.235,1.235,0,0,1,1.234,1.234h0a1.235,1.235,0,0,1-1.234,1.234h0A1.234,1.234,0,0,1,7382.751,1635.244Z" transform="translate(-7378.09 -1634.01)" fill="#1e243a"/>
      </g>
      <g id="Grupo_12644" data-name="Grupo 12644" transform="translate(154.844 5.034)">
        <g id="Grupo_12642" data-name="Grupo 12642" transform="translate(3.147)">
          <path id="Trazado_20388" data-name="Trazado 20388" d="M8073.808,487.645a.925.925,0,0,1-.926-.926v-6.294a.926.926,0,0,1,1.852,0v6.294A.925.925,0,0,1,8073.808,487.645Z" transform="translate(-8072.882 -479.5)" fill="#1e243a"/>
        </g>
        <g id="Grupo_12643" data-name="Grupo 12643" transform="translate(0 3.147)">
          <path id="Trazado_20389" data-name="Trazado 20389" d="M8054.6,506.851h-6.293a.926.926,0,1,1,0-1.851h6.293a.926.926,0,1,1,0,1.851Z" transform="translate(-8047.383 -505)" fill="#1e243a"/>
        </g>
      </g>
      <g id="Grupo_12647" data-name="Grupo 12647" transform="translate(182.734 51.682)">
        <g id="Grupo_12645" data-name="Grupo 12645" transform="translate(3.147)">
          <path id="Trazado_20390" data-name="Trazado 20390" d="M8299.808,865.645a.925.925,0,0,1-.926-.925v-6.294a.925.925,0,1,1,1.851,0v6.294A.925.925,0,0,1,8299.808,865.645Z" transform="translate(-8298.882 -857.5)" fill="#1e243a"/>
        </g>
        <g id="Grupo_12646" data-name="Grupo 12646" transform="translate(0 3.147)">
          <path id="Trazado_20391" data-name="Trazado 20391" d="M8280.6,884.851h-6.292a.926.926,0,1,1,0-1.851h6.292a.926.926,0,1,1,0,1.851Z" transform="translate(-8273.383 -883)" fill="#1e243a"/>
        </g>
      </g>
      <g id="Grupo_12650" data-name="Grupo 12650" transform="translate(43.284 120.542)">
        <g id="Grupo_12648" data-name="Grupo 12648" transform="translate(3.147)">
          <path id="Trazado_20392" data-name="Trazado 20392" d="M7169.808,1423.645a.926.926,0,0,1-.926-.925v-6.294a.926.926,0,1,1,1.851,0v6.294A.926.926,0,0,1,7169.808,1423.645Z" transform="translate(-7168.882 -1415.5)" fill="#1e243a"/>
        </g>
        <g id="Grupo_12649" data-name="Grupo 12649" transform="translate(0 3.147)">
          <path id="Trazado_20393" data-name="Trazado 20393" d="M7150.6,1442.851h-6.293a.926.926,0,1,1,0-1.851h6.293a.926.926,0,0,1,0,1.851Z" transform="translate(-7143.383 -1441)" fill="#1e243a"/>
        </g>
      </g>
      <g id="Grupo_12653" data-name="Grupo 12653" transform="translate(114.613 147.692)">
        <g id="Grupo_12651" data-name="Grupo 12651" transform="translate(3.147)">
          <path id="Trazado_20394" data-name="Trazado 20394" d="M7747.808,1643.645a.926.926,0,0,1-.926-.926v-6.294a.926.926,0,1,1,1.851,0v6.294A.925.925,0,0,1,7747.808,1643.645Z" transform="translate(-7746.882 -1635.5)" fill="#1e243a"/>
        </g>
        <g id="Grupo_12652" data-name="Grupo 12652" transform="translate(0 3.147)">
          <path id="Trazado_20395" data-name="Trazado 20395" d="M7728.6,1662.851h-6.294a.926.926,0,0,1,0-1.851h6.294a.926.926,0,1,1,0,1.851Z" transform="translate(-7721.383 -1661)" fill="#1e243a"/>
        </g>
      </g>
      <g id="Grupo_12656" data-name="Grupo 12656" transform="translate(5.399 144.483)">
        <g id="Grupo_12654" data-name="Grupo 12654" transform="translate(3.147)">
          <path id="Trazado_20396" data-name="Trazado 20396" d="M6862.807,1617.645a.925.925,0,0,1-.925-.926v-6.294a.926.926,0,1,1,1.851,0v6.294A.925.925,0,0,1,6862.807,1617.645Z" transform="translate(-6861.882 -1609.5)" fill="#1e243a"/>
        </g>
        <g id="Grupo_12655" data-name="Grupo 12655" transform="translate(0 3.147)">
          <path id="Trazado_20397" data-name="Trazado 20397" d="M6843.6,1636.851h-6.293a.926.926,0,1,1,0-1.851h6.293a.926.926,0,0,1,0,1.851Z" transform="translate(-6836.383 -1635)" fill="#1e243a"/>
        </g>
      </g>
    </g>
  </g>
</svg>
