<svg xmlns="http://www.w3.org/2000/svg" width="257.644" height="212.048" viewBox="0 0 257.644 212.048">
  <g id="Grupo_12827" data-name="Grupo 12827" transform="translate(-2490.076 -442.544)">
    <g id="Color" transform="translate(2491.464 443.932)">
      <g id="Grupo_12760" data-name="Grupo 12760" transform="translate(136.944 102.034)">
        <rect id="Rectángulo_2319" data-name="Rectángulo 2319" width="85.505" height="107.237" fill="#ffd571"/>
      </g>
      <g id="Grupo_12761" data-name="Grupo 12761" transform="translate(17.36 45.909)">
        <ellipse id="Elipse_653" data-name="Elipse 653" cx="2.533" cy="2.613" rx="2.533" ry="2.613" fill="#fcd118"/>
      </g>
      <g id="Grupo_12762" data-name="Grupo 12762" transform="translate(0 96.81)">
        <rect id="Rectángulo_2320" data-name="Rectángulo 2320" width="14.905" height="39.086" fill="#ff5a5a"/>
      </g>
      <g id="Grupo_12763" data-name="Grupo 12763" transform="translate(4.11)">
        <rect id="Rectángulo_2321" data-name="Rectángulo 2321" width="6.685" height="7.419" fill="#ff5a5a"/>
      </g>
    </g>
    <g id="CONTRACT" transform="translate(2490.076 442.544)">
      <g id="Grupo_12787" data-name="Grupo 12787" transform="translate(136.944 69.616)">
        <g id="Grupo_12765" data-name="Grupo 12765" transform="translate(0 32.419)">
          <g id="Grupo_12764" data-name="Grupo 12764">
            <path id="Trazado_20477" data-name="Trazado 20477" d="M3415.519,1177.345h-85.5a1.388,1.388,0,0,1-1.388-1.388V1068.72a1.388,1.388,0,0,1,1.388-1.388h85.5a1.388,1.388,0,0,1,1.388,1.388v107.237A1.388,1.388,0,0,1,3415.519,1177.345Zm-84.117-2.776h82.729V1070.108H3331.4Z" transform="translate(-3328.626 -1067.332)" fill="#1e243a"/>
          </g>
        </g>
        <g id="Grupo_12767" data-name="Grupo 12767" transform="translate(15.666 16.753)">
          <g id="Grupo_12766" data-name="Grupo 12766">
            <path id="Trazado_20478" data-name="Trazado 20478" d="M3511.447,1081.416h-14.458a1.388,1.388,0,0,1,0-2.776h13.07V974.179H3427.33v13.29a1.388,1.388,0,1,1-2.776,0V972.791a1.388,1.388,0,0,1,1.388-1.388h85.5a1.388,1.388,0,0,1,1.388,1.388v107.237A1.388,1.388,0,0,1,3511.447,1081.416Z" transform="translate(-3424.554 -971.403)" fill="#1e243a"/>
          </g>
        </g>
        <g id="Grupo_12769" data-name="Grupo 12769" transform="translate(32.419)">
          <g id="Grupo_12768" data-name="Grupo 12768">
            <path id="Trazado_20479" data-name="Trazado 20479" d="M3614.029,978.834h-15.86a1.388,1.388,0,1,1,0-2.776h14.472V871.6h-82.729v14.691a1.388,1.388,0,1,1-2.776,0V870.209a1.388,1.388,0,0,1,1.388-1.388h85.5a1.388,1.388,0,0,1,1.388,1.388V977.446A1.388,1.388,0,0,1,3614.029,978.834Z" transform="translate(-3527.136 -868.821)" fill="#1e243a"/>
          </g>
        </g>
        <g id="Grupo_12771" data-name="Grupo 12771" transform="translate(6.873 118.172)">
          <g id="Grupo_12770" data-name="Grupo 12770">
            <path id="Trazado_20480" data-name="Trazado 20480" d="M3386.38,1609.478H3372.1a1.388,1.388,0,0,1-1.388-1.388v-14.279a1.388,1.388,0,0,1,2.776,0V1606.7h12.891a1.388,1.388,0,0,1,0,2.776Z" transform="translate(-3370.713 -1592.423)" fill="#1e243a"/>
          </g>
        </g>
        <g id="Grupo_12773" data-name="Grupo 12773" transform="translate(64.353 39.624)">
          <g id="Grupo_12772" data-name="Grupo 12772">
            <path id="Trazado_20481" data-name="Trazado 20481" d="M3738.344,1128.507a1.388,1.388,0,0,1-1.388-1.388v-12.891h-12.89a1.388,1.388,0,0,1,0-2.776h14.278a1.388,1.388,0,0,1,1.388,1.388v14.279A1.388,1.388,0,0,1,3738.344,1128.507Z" transform="translate(-3722.677 -1111.452)" fill="#1e243a"/>
          </g>
        </g>
        <g id="Grupo_12786" data-name="Grupo 12786" transform="translate(14.985 63.884)">
          <g id="Grupo_12775" data-name="Grupo 12775" transform="translate(0 8.819)">
            <g id="Grupo_12774" data-name="Grupo 12774">
              <path id="Trazado_20482" data-name="Trazado 20482" d="M3477.624,1316.776h-55.852a1.388,1.388,0,1,1,0-2.776h55.852a1.388,1.388,0,1,1,0,2.776Z" transform="translate(-3420.383 -1314)" fill="#1e243a"/>
            </g>
          </g>
          <g id="Grupo_12777" data-name="Grupo 12777">
            <g id="Grupo_12776" data-name="Grupo 12776">
              <path id="Trazado_20483" data-name="Trazado 20483" d="M3477.624,1262.776h-55.852a1.388,1.388,0,0,1,0-2.776h55.852a1.388,1.388,0,0,1,0,2.776Z" transform="translate(-3420.383 -1260)" fill="#1e243a"/>
            </g>
          </g>
          <g id="Grupo_12779" data-name="Grupo 12779" transform="translate(0 17.638)">
            <g id="Grupo_12778" data-name="Grupo 12778">
              <path id="Trazado_20484" data-name="Trazado 20484" d="M3477.624,1370.776h-55.852a1.388,1.388,0,0,1,0-2.776h55.852a1.388,1.388,0,0,1,0,2.776Z" transform="translate(-3420.383 -1368)" fill="#1e243a"/>
            </g>
          </g>
          <g id="Grupo_12781" data-name="Grupo 12781" transform="translate(0 26.456)">
            <g id="Grupo_12780" data-name="Grupo 12780">
              <path id="Trazado_20485" data-name="Trazado 20485" d="M3477.624,1424.776h-55.852a1.388,1.388,0,0,1,0-2.776h55.852a1.388,1.388,0,0,1,0,2.776Z" transform="translate(-3420.383 -1422)" fill="#1e243a"/>
            </g>
          </g>
          <g id="Grupo_12783" data-name="Grupo 12783" transform="translate(0 35.438)">
            <g id="Grupo_12782" data-name="Grupo 12782">
              <path id="Trazado_20486" data-name="Trazado 20486" d="M3477.624,1479.776h-55.852a1.388,1.388,0,1,1,0-2.776h55.852a1.388,1.388,0,1,1,0,2.776Z" transform="translate(-3420.383 -1477)" fill="#1e243a"/>
            </g>
          </g>
          <g id="Grupo_12785" data-name="Grupo 12785" transform="translate(0 44.257)">
            <g id="Grupo_12784" data-name="Grupo 12784">
              <path id="Trazado_20487" data-name="Trazado 20487" d="M3449.7,1533.776h-27.926a1.388,1.388,0,1,1,0-2.776H3449.7a1.388,1.388,0,1,1,0,2.776Z" transform="translate(-3420.383 -1531)" fill="#1e243a"/>
            </g>
          </g>
        </g>
      </g>
      <g id="Grupo_12802" data-name="Grupo 12802" transform="translate(0 0)">
        <g id="Grupo_12789" data-name="Grupo 12789" transform="translate(1.973 7.419)">
          <g id="Grupo_12788" data-name="Grupo 12788">
            <path id="Trazado_20488" data-name="Trazado 20488" d="M2514.5,580.142h-10.959a1.388,1.388,0,0,1-1.388-1.388V489.362a1.388,1.388,0,0,1,1.388-1.388H2514.5a1.388,1.388,0,0,1,1.388,1.388v89.391A1.388,1.388,0,0,1,2514.5,580.142Zm-9.571-2.776h8.183V490.75h-8.183Z" transform="translate(-2502.155 -487.974)" fill="#1e243a"/>
          </g>
        </g>
        <g id="Grupo_12791" data-name="Grupo 12791" transform="translate(0 96.811)">
          <g id="Grupo_12790" data-name="Grupo 12790">
            <path id="Trazado_20489" data-name="Trazado 20489" d="M2506.369,1077.206h-14.9a1.388,1.388,0,0,1-1.388-1.388v-39.086a1.388,1.388,0,0,1,1.388-1.388h14.9a1.388,1.388,0,0,1,1.388,1.388v39.086A1.388,1.388,0,0,1,2506.369,1077.206Zm-13.516-2.776h12.128v-36.31h-12.128Z" transform="translate(-2490.076 -1035.344)" fill="#1e243a"/>
          </g>
        </g>
        <g id="Grupo_12793" data-name="Grupo 12793" transform="translate(0.657 135.896)">
          <g id="Grupo_12792" data-name="Grupo 12792">
            <path id="Trazado_20490" data-name="Trazado 20490" d="M2502.283,1297.72a1.388,1.388,0,0,1-1.316-.947l-6.795-20.267a1.388,1.388,0,0,1,2.632-.883l5.479,16.341,5.479-16.341a1.388,1.388,0,1,1,2.632.883l-6.795,20.267A1.388,1.388,0,0,1,2502.283,1297.72Z" transform="translate(-2494.1 -1274.677)" fill="#1e243a"/>
          </g>
        </g>
        <g id="Grupo_12795" data-name="Grupo 12795" transform="translate(5.929 149.667)">
          <g id="Grupo_12794" data-name="Grupo 12794">
            <path id="Trazado_20491" data-name="Trazado 20491" d="M2530.874,1361.776h-3.1a1.388,1.388,0,0,1,0-2.776h3.1a1.388,1.388,0,0,1,0,2.776Z" transform="translate(-2526.383 -1359)" fill="#1e243a"/>
          </g>
        </g>
        <g id="Grupo_12797" data-name="Grupo 12797" transform="translate(4.11)">
          <g id="Grupo_12796" data-name="Grupo 12796">
            <path id="Trazado_20492" data-name="Trazado 20492" d="M2523.314,452.74h-6.685a1.388,1.388,0,0,1-1.388-1.388v-7.419a1.388,1.388,0,0,1,1.388-1.388h6.685a1.388,1.388,0,0,1,1.388,1.388v7.419A1.388,1.388,0,0,1,2523.314,452.74Zm-5.3-2.776h3.909V445.32h-3.909Z" transform="translate(-2515.241 -442.544)" fill="#1e243a"/>
          </g>
        </g>
        <g id="Grupo_12799" data-name="Grupo 12799" transform="translate(12.952 7.913)">
          <g id="Grupo_12798" data-name="Grupo 12798">
            <path id="Trazado_20493" data-name="Trazado 20493" d="M2575.1,534.522a1.388,1.388,0,0,1-1.388-1.388V493.776h-2.939a1.388,1.388,0,0,1,0-2.776h4.328a1.388,1.388,0,0,1,1.388,1.388v40.746A1.388,1.388,0,0,1,2575.1,534.522Z" transform="translate(-2569.383 -491)" fill="#1e243a"/>
          </g>
        </g>
        <g id="Grupo_12801" data-name="Grupo 12801" transform="translate(17.36 45.909)">
          <g id="Grupo_12800" data-name="Grupo 12800">
            <path id="Trazado_20494" data-name="Trazado 20494" d="M2600.3,731.664a4,4,0,1,1,3.921-4A4.016,4.016,0,0,1,2600.3,731.664Zm0-5.226a1.228,1.228,0,1,0,1.144,1.225A1.251,1.251,0,0,0,2600.3,726.437Z" transform="translate(-2596.378 -723.661)" fill="#1e243a"/>
          </g>
        </g>
      </g>
      <g id="Grupo_12804" data-name="Grupo 12804" transform="translate(7.481 169.673)">
        <g id="Grupo_12803" data-name="Grupo 12803">
          <path id="Trazado_20495" data-name="Trazado 20495" d="M2652.159,1522.409H2537.271a1.388,1.388,0,0,1-1.388-1.388v-38.133a1.388,1.388,0,1,1,2.776,0v36.745h113.5a1.388,1.388,0,1,1,0,2.776Z" transform="translate(-2535.882 -1481.5)" fill="#1e243a"/>
        </g>
      </g>
      <g id="Grupo_12806" data-name="Grupo 12806" transform="translate(21.525 181.268)">
        <g id="Grupo_12805" data-name="Grupo 12805">
          <path id="Trazado_20496" data-name="Trazado 20496" d="M2660.914,1569.4h-37.643a1.388,1.388,0,0,1-1.388-1.388v-14.126a1.388,1.388,0,0,1,2.776,0v12.738h36.255a1.388,1.388,0,1,1,0,2.776Z" transform="translate(-2621.882 -1552.5)" fill="#1e243a"/>
        </g>
      </g>
      <g id="Grupo_12808" data-name="Grupo 12808" transform="translate(36.468 7.913)">
        <g id="Grupo_12807" data-name="Grupo 12807">
          <path id="Trazado_20497" data-name="Trazado 20497" d="M2878.327,546.281a1.388,1.388,0,0,1-1.388-1.388V493.776H2714.771a1.388,1.388,0,1,1,0-2.776h163.556a1.388,1.388,0,0,1,1.388,1.388v52.5A1.388,1.388,0,0,1,2878.327,546.281Z" transform="translate(-2713.383 -491)" fill="#1e243a"/>
        </g>
      </g>
      <g id="Grupo_12810" data-name="Grupo 12810" transform="translate(110.448 25.551)">
        <g id="Grupo_12809" data-name="Grupo 12809">
          <path id="Trazado_20498" data-name="Trazado 20498" d="M3240.526,620.475a1.388,1.388,0,0,1-1.388-1.388V601.776h-71.367a1.388,1.388,0,1,1,0-2.776h72.755a1.388,1.388,0,0,1,1.388,1.388v18.7A1.388,1.388,0,0,1,3240.526,620.475Z" transform="translate(-3166.383 -599)" fill="#1e243a"/>
        </g>
      </g>
      <g id="Grupo_12812" data-name="Grupo 12812" transform="translate(229.539 3.836)">
        <g id="Grupo_12811" data-name="Grupo 12811">
          <path id="Trazado_20499" data-name="Trazado 20499" d="M3902.663,485.7h0a1.8,1.8,0,0,1-1.2-2.239h0a1.8,1.8,0,0,1,2.239-1.2h0a1.8,1.8,0,0,1,1.2,2.239h0a1.8,1.8,0,0,1-1.72,1.277h0A1.8,1.8,0,0,1,3902.663,485.7Zm4.623-1.346a1.8,1.8,0,0,1,.911-2.371h0a1.8,1.8,0,0,1,2.372.911h0a1.8,1.8,0,0,1-.911,2.371h0a1.8,1.8,0,0,1-.729.155h0A1.8,1.8,0,0,1,3907.286,484.358Zm-10.2-2.894a1.8,1.8,0,0,1,.554-2.479h0a1.8,1.8,0,0,1,2.479.552h0a1.8,1.8,0,0,1-.554,2.481h0a1.79,1.79,0,0,1-.962.279h0A1.794,1.794,0,0,1,3897.086,481.464Zm15.19-.235a1.8,1.8,0,0,1-.856-2.392h0a1.8,1.8,0,0,1,2.391-.856h0a1.8,1.8,0,0,1,.856,2.392h0a1.8,1.8,0,0,1-1.625,1.029h0A1.785,1.785,0,0,1,3912.276,481.229Zm-15.127-4.579a1.8,1.8,0,0,1-1.517-2.038h0a1.8,1.8,0,0,1,2.038-1.517h0a1.8,1.8,0,0,1,1.517,2.038h0a1.8,1.8,0,0,1-1.775,1.535h0A1.788,1.788,0,0,1,3897.148,476.65Zm14.652-2.3v0h0a1.8,1.8,0,0,1,1.252-2.211h0a1.794,1.794,0,0,1,2.209,1.251h0a1.8,1.8,0,0,1-1.251,2.211h0a1.811,1.811,0,0,1-.48.065h0A1.8,1.8,0,0,1,3911.8,474.351ZM3898.824,471a1.8,1.8,0,0,1,.185-2.533h0a1.8,1.8,0,0,1,2.534.185h0a1.8,1.8,0,0,1-.186,2.535h0a1.785,1.785,0,0,1-1.172.436h0A1.789,1.789,0,0,1,3898.824,471Zm10.334-.3h0a1.8,1.8,0,0,1-.5-2.492h0a1.8,1.8,0,0,1,2.492-.495h0a1.794,1.794,0,0,1,.495,2.49h0a1.79,1.79,0,0,1-1.494.8h0A1.789,1.789,0,0,1,3909.158,470.706Zm-5.378-2.879a1.8,1.8,0,0,1,1.8-1.8h0a1.8,1.8,0,0,1,1.8,1.8h0a1.8,1.8,0,0,1-1.8,1.8h0A1.8,1.8,0,0,1,3903.78,467.826Z" transform="translate(-3895.612 -466.03)" fill="#1e243a"/>
        </g>
      </g>
      <g id="Grupo_12814" data-name="Grupo 12814" transform="translate(43.451 65.709)">
        <g id="Grupo_12813" data-name="Grupo 12813">
          <path id="Trazado_20500" data-name="Trazado 20500" d="M2763.194,864.574a1.8,1.8,0,0,1-1.2-2.239h0a1.8,1.8,0,0,1,2.239-1.2h0a1.8,1.8,0,0,1,1.2,2.239h0a1.8,1.8,0,0,1-1.719,1.277h0A1.807,1.807,0,0,1,2763.194,864.574Zm4.623-1.346a1.8,1.8,0,0,1,.911-2.371h0a1.8,1.8,0,0,1,2.371.911h0a1.8,1.8,0,0,1-.911,2.371h0a1.784,1.784,0,0,1-.73.155h0A1.8,1.8,0,0,1,2767.817,863.228Zm-10.2-2.894a1.8,1.8,0,0,1,.554-2.479h0a1.8,1.8,0,0,1,2.479.554h0a1.8,1.8,0,0,1-.554,2.479h0a1.791,1.791,0,0,1-.962.281h0A1.793,1.793,0,0,1,2757.617,860.335Zm15.189-.234a1.8,1.8,0,0,1-.856-2.393h0a1.8,1.8,0,0,1,2.391-.857h0a1.8,1.8,0,0,1,.856,2.392h0a1.8,1.8,0,0,1-1.625,1.029h0A1.808,1.808,0,0,1,2772.806,860.1Zm-15.127-4.581a1.8,1.8,0,0,1-1.517-2.038h0a1.8,1.8,0,0,1,2.038-1.517h0a1.8,1.8,0,0,1,1.517,2.038h0a1.8,1.8,0,0,1-1.775,1.537h0A1.791,1.791,0,0,1,2757.679,855.52Zm14.652-2.3a1.8,1.8,0,0,1,1.252-2.211h0a1.8,1.8,0,0,1,2.21,1.251h0a1.794,1.794,0,0,1-1.251,2.211h0a1.809,1.809,0,0,1-.48.065h0A1.8,1.8,0,0,1,2772.331,853.222Zm-12.977-3.346a1.8,1.8,0,0,1,.185-2.535h0a1.8,1.8,0,0,1,2.534.186h0a1.8,1.8,0,0,1-.186,2.533h0a1.787,1.787,0,0,1-1.172.438h0A1.79,1.79,0,0,1,2759.354,849.876Zm10.334-.3a1.793,1.793,0,0,1-.5-2.49h0a1.8,1.8,0,0,1,2.492-.5h0a1.8,1.8,0,0,1,.495,2.492h0a1.794,1.794,0,0,1-1.494.8h0A1.779,1.779,0,0,1,2769.688,849.576Zm-5.378-2.879a1.8,1.8,0,0,1,1.795-1.8h0a1.8,1.8,0,0,1,1.8,1.8h0a1.8,1.8,0,0,1-1.8,1.8h0A1.8,1.8,0,0,1,2764.311,846.7Z" transform="translate(-2756.143 -844.9)" fill="#1e243a"/>
        </g>
      </g>
      <g id="Grupo_12816" data-name="Grupo 12816" transform="translate(98.533 158.662)">
        <g id="Grupo_12815" data-name="Grupo 12815">
          <path id="Trazado_20501" data-name="Trazado 20501" d="M3100.475,1433.754a1.8,1.8,0,0,1-1.2-2.239h0a1.8,1.8,0,0,1,2.239-1.2h0a1.8,1.8,0,0,1,1.2,2.241h0a1.8,1.8,0,0,1-1.72,1.277h0A1.789,1.789,0,0,1,3100.475,1433.754Zm4.622-1.345a1.8,1.8,0,0,1,.911-2.371h0a1.8,1.8,0,0,1,2.371.911h0a1.8,1.8,0,0,1-.911,2.371h0a1.776,1.776,0,0,1-.728.155h0A1.8,1.8,0,0,1,3105.1,1432.408Zm-10.2-2.894a1.8,1.8,0,0,1,.553-2.479h0a1.8,1.8,0,0,1,2.479.552h0a1.8,1.8,0,0,1-.553,2.481h0a1.788,1.788,0,0,1-.96.279h0A1.8,1.8,0,0,1,3094.9,1429.514Zm15.189-.235a1.8,1.8,0,0,1-.856-2.391h0a1.8,1.8,0,0,1,2.391-.857h0a1.8,1.8,0,0,1,.857,2.393h0a1.8,1.8,0,0,1-1.626,1.029h0A1.785,1.785,0,0,1,3110.086,1429.279Zm-15.127-4.579a1.8,1.8,0,0,1-1.517-2.038h0a1.8,1.8,0,0,1,2.038-1.517h0a1.8,1.8,0,0,1,1.517,2.038h0a1.8,1.8,0,0,1-1.775,1.537h0A1.783,1.783,0,0,1,3094.958,1424.7Zm14.652-2.3a1.8,1.8,0,0,1,1.252-2.211h0a1.8,1.8,0,0,1,2.211,1.251h0a1.8,1.8,0,0,1-1.253,2.211h0a1.817,1.817,0,0,1-.48.065h0A1.8,1.8,0,0,1,3109.611,1422.4Zm-12.977-3.348a1.8,1.8,0,0,1,.185-2.533h0a1.8,1.8,0,0,1,2.535.186h0a1.8,1.8,0,0,1-.186,2.533h0a1.782,1.782,0,0,1-1.173.436h0A1.789,1.789,0,0,1,3096.634,1419.054Zm10.334-.3h0a1.8,1.8,0,0,1-.5-2.49h0a1.8,1.8,0,0,1,2.492-.5h0a1.8,1.8,0,0,1,.5,2.49h0a1.8,1.8,0,0,1-1.5.8h0A1.785,1.785,0,0,1,3106.968,1418.756Zm-5.378-2.879a1.8,1.8,0,0,1,1.8-1.8h0a1.8,1.8,0,0,1,1.8,1.8h0a1.8,1.8,0,0,1-1.8,1.8h0A1.8,1.8,0,0,1,3101.59,1415.876Z" transform="translate(-3093.422 -1414.08)" fill="#1e243a"/>
        </g>
      </g>
      <g id="Grupo_12821" data-name="Grupo 12821" transform="translate(122.696 51.926)">
        <g id="Grupo_12818" data-name="Grupo 12818" transform="translate(0 4.164)">
          <g id="Grupo_12817" data-name="Grupo 12817">
            <path id="Trazado_20502" data-name="Trazado 20502" d="M3251.263,788.776h-8.492a1.388,1.388,0,0,1,0-2.776h8.492a1.388,1.388,0,0,1,0,2.776Z" transform="translate(-3241.383 -786)" fill="#1e243a"/>
          </g>
        </g>
        <g id="Grupo_12820" data-name="Grupo 12820" transform="translate(4.164)">
          <g id="Grupo_12819" data-name="Grupo 12819">
            <path id="Trazado_20503" data-name="Trazado 20503" d="M3268.27,771.768a1.388,1.388,0,0,1-1.388-1.388v-8.492a1.388,1.388,0,1,1,2.776,0v8.492A1.388,1.388,0,0,1,3268.27,771.768Z" transform="translate(-3266.882 -760.5)" fill="#1e243a"/>
          </g>
        </g>
      </g>
      <g id="Grupo_12826" data-name="Grupo 12826" transform="translate(49.86 151.382)">
        <g id="Grupo_12823" data-name="Grupo 12823" transform="translate(0 4.164)">
          <g id="Grupo_12822" data-name="Grupo 12822">
            <path id="Trazado_20504" data-name="Trazado 20504" d="M2805.263,1397.776h-8.492a1.388,1.388,0,0,1,0-2.776h8.492a1.388,1.388,0,1,1,0,2.776Z" transform="translate(-2795.383 -1395)" fill="#1e243a"/>
          </g>
        </g>
        <g id="Grupo_12825" data-name="Grupo 12825" transform="translate(4.164)">
          <g id="Grupo_12824" data-name="Grupo 12824">
            <path id="Trazado_20505" data-name="Trazado 20505" d="M2822.27,1380.769a1.388,1.388,0,0,1-1.388-1.388v-8.492a1.388,1.388,0,0,1,2.776,0v8.492A1.388,1.388,0,0,1,2822.27,1380.769Z" transform="translate(-2820.882 -1369.5)" fill="#1e243a"/>
          </g>
        </g>
      </g>
    </g>
  </g>
</svg>
