<svg xmlns="http://www.w3.org/2000/svg" width="390.32" height="326.283" viewBox="0 0 390.32 326.283">
  <g id="Grupo_12931" data-name="Grupo 12931" transform="translate(-1075.414 -15.607)">
    <g id="Grupo_12238" data-name="Grupo 12238">
      <path id="Trazado_12269" data-name="Trazado 12269" d="M317.345,239.884c61.252,57.756,130.818-1.284,185.961,90.277C585.474,466.6,405.971,541.489,310.978,522.488c-77.07-15.417-115.591-41.571-160.711-115.924C85.97,300.608,226.218,153.959,317.345,239.884Z" transform="translate(941.471 -198.382)" fill="rgba(58,27,141,0.15)" style="mix-blend-mode: multiply;isolation: isolate"/>
      <g id="Grupo_12212" data-name="Grupo 12212" transform="translate(1392.24 41.07)">
        <path id="Trazado_20054" data-name="Trazado 20054" d="M726.217,425.881a10.2,10.2,0,1,1,10.2-10.2,10.2,10.2,0,0,1-10.2,10.2m0-15.295a5.1,5.1,0,1,0,5.1,5.1,5.1,5.1,0,0,0-5.1-5.1" transform="translate(-716.021 -405.488)" fill="#5fe0ed"/>
      </g>
      <g id="Grupo_12213" data-name="Grupo 12213" transform="translate(1182.66 285.81)">
        <rect id="Rectángulo_2294" data-name="Rectángulo 2294" width="5.098" height="56.08" fill="#fff"/>
      </g>
      <g id="Grupo_12214" data-name="Grupo 12214" transform="translate(1346.854 285.81)">
        <rect id="Rectángulo_2295" data-name="Rectángulo 2295" width="5.098" height="56.08" fill="#fff"/>
      </g>
      <g id="Grupo_12215" data-name="Grupo 12215" transform="translate(1131.979 224.707)">
        <path id="Trazado_20055" data-name="Trazado 20055" d="M624.119,594.712h-5.1V514.683a17.769,17.769,0,0,1,12.485-17.018l68.706-20.138,1.435,4.894-68.66,20.123a12.674,12.674,0,0,0-8.868,12.139Z" transform="translate(-619.021 -477.528)" fill="#fff"/>
      </g>
      <g id="Grupo_12216" data-name="Grupo 12216" transform="translate(1256.917 222.54)">
        <path id="Trazado_20056" data-name="Trazado 20056" d="M691.215,502.171H670.823l-2.789-12.745V476.678h25.491v12.748Z" transform="translate(-668.034 -476.678)" fill="#5fe0ed"/>
      </g>
      <g id="Grupo_12217" data-name="Grupo 12217" transform="translate(1254.608 253.131)">
        <path id="Trazado_20057" data-name="Trazado 20057" d="M697.717,577.438v-5.1l-5.1-83.661H672.226l-5.1,83.661v5.1Z" transform="translate(-667.128 -488.679)" fill="#5fe0ed"/>
      </g>
      <g id="Grupo_12218" data-name="Grupo 12218" transform="translate(1211.339 209.31)">
        <path id="Trazado_20058" data-name="Trazado 20058" d="M685.841,491.881H650.154v-7.647A12.76,12.76,0,0,1,662.9,471.488h33.138a15.313,15.313,0,0,1,15.295,15.294v2.547h-5.1v-2.547a10.2,10.2,0,1,0-20.393,0Zm-30.589-5.1h25.491a15.225,15.225,0,0,1,3.905-10.2H662.9a7.657,7.657,0,0,0-7.647,7.647Z" transform="translate(-650.154 -471.488)" fill="#fff"/>
      </g>
      <g id="Grupo_12219" data-name="Grupo 12219" transform="translate(1267.419 209.31)">
        <path id="Trazado_20059" data-name="Trazado 20059" d="M728.234,491.881H697.645v-5.1a10.2,10.2,0,1,0-20.393,0v2.547h-5.1v-2.547a15.313,15.313,0,0,1,15.295-15.294h28.04a12.76,12.76,0,0,1,12.745,12.745Zm-25.491-5.1h20.393v-2.549a7.657,7.657,0,0,0-7.647-7.647H698.84a15.24,15.24,0,0,1,3.9,10.2" transform="translate(-672.154 -471.488)" fill="#fff"/>
      </g>
      <g id="Grupo_12220" data-name="Grupo 12220" transform="translate(1320.007 224.707)">
        <path id="Trazado_20060" data-name="Trazado 20060" d="M775.41,594.712h-5.1V514.683a12.694,12.694,0,0,0-8.917-12.154l-68.611-20.107,1.432-4.894,68.66,20.122a17.786,17.786,0,0,1,12.534,17.033Z" transform="translate(-692.784 -477.528)" fill="#fff"/>
      </g>
      <g id="Grupo_12221" data-name="Grupo 12221" transform="translate(1116.684 107.346)">
        <path id="Trazado_20061" data-name="Trazado 20061" d="M623.217,451.881a10.2,10.2,0,1,1,10.2-10.2,10.2,10.2,0,0,1-10.2,10.2m0-15.295a5.1,5.1,0,1,0,5.1,5.1,5.1,5.1,0,0,0-5.1-5.1" transform="translate(-613.021 -431.488)" fill="#fede31"/>
      </g>
      <g id="Grupo_12222" data-name="Grupo 12222" transform="translate(1114.135 222.055)">
        <rect id="Rectángulo_2296" data-name="Rectángulo 2296" width="5.098" height="20.393" fill="#ffd571"/>
      </g>
      <g id="Grupo_12223" data-name="Grupo 12223" transform="translate(1106.488 229.703)">
        <rect id="Rectángulo_2297" data-name="Rectángulo 2297" width="20.393" height="5.098" fill="#ffd571"/>
      </g>
      <g id="Grupo_12224" data-name="Grupo 12224" transform="translate(1315.816 252.759)">
        <path id="Trazado_20062" data-name="Trazado 20062" d="M701.336,508.926a10.2,10.2,0,1,1,10.2-10.2,10.2,10.2,0,0,1-10.2,10.2m0-15.294a5.1,5.1,0,1,0,5.1,5.1,5.1,5.1,0,0,0-5.1-5.1" transform="translate(-691.14 -488.533)" fill="#dededd"/>
      </g>
      <g id="Grupo_12225" data-name="Grupo 12225" transform="translate(1175.313 69.138)">
        <path id="Trazado_20063" data-name="Trazado 20063" d="M651.316,416.5v68.825l56.993,27.11a27.656,27.656,0,0,1,19.48,26.421A20.394,20.394,0,0,0,707.4,518.463H636.021V416.5Z" transform="translate(-636.021 -416.499)" fill="#ffd571"/>
      </g>
      <g id="Grupo_12226" data-name="Grupo 12226" transform="translate(1267.08 69.138)">
        <path id="Trazado_20064" data-name="Trazado 20064" d="M748.494,416.5v68.825L691.5,512.434a27.656,27.656,0,0,0-19.48,26.421,20.394,20.394,0,0,1,20.393-20.393h71.374V416.5Z" transform="translate(-672.021 -416.499)" fill="#ffd571"/>
      </g>
      <g id="Grupo_12227" data-name="Grupo 12227" transform="translate(1162.568 171.102)">
        <path id="Trazado_20065" data-name="Trazado 20065" d="M631.021,484.539V456.5h84.12a20.394,20.394,0,0,1,20.393,20.393A20.394,20.394,0,0,1,755.926,456.5h84.12v28.04Z" transform="translate(-631.021 -456.499)" fill="#ffd571"/>
      </g>
      <g id="Grupo_12228" data-name="Grupo 12228" transform="translate(1264.531 46.196)">
        <path id="Trazado_20066" data-name="Trazado 20066" d="M676.119,552.8h-5.1V430.441A22.967,22.967,0,0,1,693.963,407.5h89.218V534.953H693.963A17.867,17.867,0,0,0,676.119,552.8m17.844-140.2a17.867,17.867,0,0,0-17.844,17.844V538.392a22.911,22.911,0,0,1,17.844-8.537h84.12V412.6Z" transform="translate(-671.021 -407.499)" fill="#fff"/>
      </g>
      <g id="Grupo_12229" data-name="Grupo 12229" transform="translate(1157.47 46.196)">
        <path id="Trazado_20067" data-name="Trazado 20067" d="M741.181,552.8h-5.1a17.867,17.867,0,0,0-17.844-17.844H629.021V407.5h89.218a22.97,22.97,0,0,1,22.942,22.942ZM634.119,529.855h84.12a22.912,22.912,0,0,1,17.844,8.537V430.441A17.867,17.867,0,0,0,718.239,412.6h-84.12Z" transform="translate(-629.021 -407.499)" fill="#fff"/>
      </g>
      <g id="Grupo_12230" data-name="Grupo 12230" transform="translate(1157.47 194.043)">
        <path id="Trazado_20068" data-name="Trazado 20068" d="M848.243,475.7H777.924a11.186,11.186,0,0,1-7.956-3.3,6.113,6.113,0,0,0-4.351-1.8h-4.479a7.662,7.662,0,0,1-7.211,5.1H723.337a7.662,7.662,0,0,1-7.211-5.1H711.65a6.116,6.116,0,0,0-3.89,1.382,2.662,2.662,0,0,1-.222,2.3,3.345,3.345,0,0,1-3.1,1.415H629.021v-5.1h73.562a4.324,4.324,0,0,1,1.109-1.8,11.166,11.166,0,0,1,7.958-3.3h9.139v2.549a2.553,2.553,0,0,0,2.549,2.549h30.589a2.55,2.55,0,0,0,2.549-2.549V465.5h9.141a11.176,11.176,0,0,1,7.956,3.3,6.111,6.111,0,0,0,4.351,1.8h70.319Z" transform="translate(-629.021 -465.499)" fill="#fff"/>
      </g>
      <g id="Grupo_12231" data-name="Grupo 12231" transform="translate(1274.728 56.393)">
        <path id="Trazado_20069" data-name="Trazado 20069" d="M687.766,411.5a12.76,12.76,0,0,0-12.745,12.745v97.383a27.867,27.867,0,0,1,12.745-3.067Z" transform="translate(-675.021 -411.499)" fill="#ffd571"/>
      </g>
      <g id="Grupo_12232" data-name="Grupo 12232" transform="translate(1264.531 15.607)">
        <path id="Trazado_20070" data-name="Trazado 20070" d="M676.119,571.386h-5.1V449.216a30.017,30.017,0,0,1,21.336-28.874L744.369,395.5h8.223V519.466L693.808,547.4a24.989,24.989,0,0,0-17.688,23.987m69.4-170.789-51.509,24.571a24.952,24.952,0,0,0-17.895,24.048V554.532a30.148,30.148,0,0,1,16-11.948l55.374-26.34V400.6Z" transform="translate(-671.021 -395.499)" fill="#fff"/>
      </g>
      <g id="Grupo_12233" data-name="Grupo 12233" transform="translate(1188.059 15.607)">
        <path id="Trazado_20071" data-name="Trazado 20071" d="M722.592,571.386h-5.1A24.989,24.989,0,0,0,699.811,547.4l-.341-.133-58.448-27.8V395.5h8.226l52.009,24.843a30.011,30.011,0,0,1,21.336,28.874Zm-21.1-28.8a30.107,30.107,0,0,1,16,11.948V449.216A24.946,24.946,0,0,0,699.6,425.168l-.367-.143L648.092,400.6h-1.973V516.244Z" transform="translate(-641.021 -395.499)" fill="#fff"/>
      </g>
      <g id="Grupo_12234" data-name="Grupo 12234" transform="translate(1278.355 92.05)">
        <path id="Trazado_20072" data-name="Trazado 20072" d="M802.639,445.88H700.168l-23.724-10.171,23.286-10.222H802.642a10.2,10.2,0,1,1,0,20.393Zm-101.426-5.1H802.639a5.1,5.1,0,1,0,0-10.2H700.8l-11.545,5.068Z" transform="translate(-676.444 -425.487)" fill="#ff5a5a"/>
      </g>
      <g id="Grupo_12235" data-name="Grupo 12235" transform="translate(1394.354 94.598)">
        <rect id="Rectángulo_2298" data-name="Rectángulo 2298" width="5.098" height="15.295" fill="#ff5a5a"/>
      </g>
      <g id="Grupo_12236" data-name="Grupo 12236" transform="translate(1417.477 194.015)">
        <rect id="Rectángulo_2299" data-name="Rectángulo 2299" width="5.098" height="20.393" fill="#fff"/>
      </g>
      <g id="Grupo_12237" data-name="Grupo 12237" transform="translate(1409.829 201.663)">
        <rect id="Rectángulo_2300" data-name="Rectángulo 2300" width="20.393" height="5.098" fill="#fff"/>
      </g>
    </g>
  </g>
</svg>
